<?xml version="1.0" encoding="UTF-8"?>
<svg width="50px" height="50px" viewBox="0 0 50 50" version="1.1" xmlns="http://www.w3.org/2000/svg" xmlns:xlink="http://www.w3.org/1999/xlink">
    <title>Solutions / Card / Circle / deliver / 360@3x</title>
    <g id="Solutions-/-Card-/-Circle-/-deliver-/-360" stroke="none" stroke-width="1" fill="none" fill-rule="evenodd">
        <g id="Group-11">
            <path d="M0,24.9988632 C0,11.1932154 11.1927064,0 25,0 C31.6296835,0 37.9888141,2.63289528 42.6768825,7.32117685 C47.3649509,12.0094584 50,18.3688782 50,24.9988632 C50,38.8067846 38.80502,50 25,50 C11.1927064,50 0,38.8067846 0,24.9988632" id="Fill-30" fill="#4B286D"></path>
            <g id="rotate-3-2" transform="translate(10.000000, 10.000000)" fill="#FFFFFF" fill-rule="nonzero" stroke="#FFFFFF" stroke-width="0.25">
                <path d="M1.25,15 C1.25,9.18375 4.88625,4.21125 10,2.205 L10,5.625 C10,5.8775 10.1525,6.10625 10.38625,6.2025 C10.46375,6.23375 10.545,6.25 10.625,6.25 C10.7875,6.25 10.9475,6.18625 11.06625,6.0675 L15.96125,1.1725 C16.1225,1.065 16.23875,0.8925 16.24875,0.68625 C16.24875,0.675 16.24375,0.665 16.24375,0.65375 C16.25125,0.485 16.195,0.31375 16.06625,0.18375 C15.91375,0.03125 15.7025,-0.015 15.505,0.02375 L15.44375,0.02 C15.2975,0.01 15.15,0 15,0 C6.72875,0 0,6.72875 0,15 C0,16.05375 0.11625,17.12625 0.3475,18.1875 C0.41,18.48 0.67,18.68 0.9575,18.68 C1.00125,18.68 1.045,18.675 1.09,18.66625 C1.4275,18.5925 1.6425,18.26125 1.56875,17.9225 C1.3575,16.94875 1.25,15.965 1.25,15 Z M14.06875,1.2975 L11.25,4.11625 L11.25,1.875 C11.25,1.84375 11.23625,1.8175 11.2325,1.7875 C12.14375,1.5275 13.0925,1.3625 14.06875,1.2975 Z M19.56375,0.7125 C19.2375,0.61125 18.88375,0.79 18.77875,1.1175 C18.675,1.4475 18.85625,1.79875 19.185,1.90375 C24.90625,3.72875 28.75,8.9925 28.75,15 C28.75,15.69625 28.68875,16.3875 28.58375,17.07 L25.62,15.35875 C25.4,15.23 25.1275,15.25 24.9275,15.40375 C24.72625,15.5575 24.63875,15.8175 24.70375,16.06125 L26.50125,22.77125 C26.5175,22.94875 26.6025,23.11625 26.75875,23.225 C26.76,23.225 26.76,23.22625 26.76125,23.2275 C26.7675,23.2325 26.77125,23.24 26.77875,23.24375 C26.85,23.28875 26.93,23.29625 27.00875,23.31 C27.05375,23.32 27.09,23.35375 27.1375,23.35375 C27.19125,23.35375 27.245,23.34625 27.3,23.335 C27.515,23.2775 27.6625,23.11125 27.725,22.91375 C29.21125,20.52875 30,17.7975 30,15 C30,8.44625 25.80625,2.705 19.56375,0.7125 Z M27.32625,21.02 L26.30125,17.195 L28.2425,18.315 C28.26375,18.3275 28.28625,18.3275 28.30875,18.3375 C28.075,19.2625 27.75,20.15875 27.32625,21.02 Z M24.23625,25.16375 C21.6925,27.47625 18.4125,28.75 15,28.75 C11.81125,28.75 8.805,27.65375 6.41125,25.7325 L9.37875,24.01875 C9.59875,23.8925 9.71875,23.64625 9.68625,23.39625 C9.65375,23.14625 9.4725,22.94 9.22875,22.87375 L2.5025,21.07125 C2.33625,20.99875 2.1425,20.99125 1.96625,21.08125 C1.95375,21.0875 1.94625,21.1 1.935,21.1075 C1.89625,21.12875 1.8675,21.16125 1.83375,21.19 C1.81375,21.20875 1.7875,21.2225 1.77125,21.24375 C1.71,21.3125 1.66,21.39125 1.635,21.4875 C1.58125,21.69125 1.6425,21.89 1.7675,22.04125 C4.38375,26.95125 9.44,30 15,30 C18.72375,30 22.30375,28.61125 25.0775,26.08875 C25.3325,25.8575 25.3525,25.46125 25.12,25.20625 C24.8875,24.94875 24.4925,24.9325 24.23625,25.16375 Z M5.45625,24.855 C4.77625,24.19375 4.15625,23.46625 3.61625,22.66375 L7.44875,23.69 L5.5075,24.81 C5.48625,24.8225 5.475,24.84125 5.45625,24.855 Z M8.75,15 C8.75,18.44625 11.55375,21.25 15,21.25 C18.44625,21.25 21.25,18.44625 21.25,15 C21.25,11.55375 18.44625,8.75 15,8.75 C11.55375,8.75 8.75,11.55375 8.75,15 Z M20,15 C20,17.7575 17.7575,20 15,20 C12.2425,20 10,17.7575 10,15 C10,12.2425 12.2425,10 15,10 C17.7575,10 20,12.2425 20,15 Z" id="Shape"></path>
            </g>
        </g>
    </g>
</svg>