<svg width="30" height="30" viewBox="0 0 30 30" fill="none" xmlns="http://www.w3.org/2000/svg">
<path d="M1 23.5C0.7 23.5 0.5 23.3 0.5 23C0.5 20.5 2.1 18.4 4.6 17.8L8.2 16.9L8.5 15.7C7.6 14.8 7 13.4 6.8 12.2C6.2 12.1 5.8 11.6 5.7 11L5.4 9.10001C5.3 8.70001 5.4 8.20001 5.7 7.90001C5.9 7.70001 6.1 7.60001 6.3 7.50001C6.3 7.00001 6.2 6.10001 6.2 5.60001C6.2 3.80001 6.7 1.80001 10.8 1.80001C12.2 0.900009 13.8 0.900009 14.4 0.900009C16 0.900009 17.3 1.40001 18 2.50001C18.9 3.90001 18.5 5.00001 17.9 5.50001L17.6 5.90001L17.5 7.60001C17.8 7.60001 17.9 7.80001 18.1 7.90001C18.4 8.20001 18.5 8.60001 18.4 9.00001L18.2 10.9C18.1 11.5 17.7 11.9 17.2 12.1C17 13.4 16.4 14.8 15.4 15.7L15.7 16.9L19.3 17.8C19.6 17.9 19.7 18.1 19.7 18.4C19.6 18.7 19.4 18.8 19.1 18.8L15.1 18C14.9 18 14.8 17.8 14.7 17.6L14.3 15.9C14.3 15.7 14.3 15.5 14.5 15.4C15.5 14.5 16.1 13.1 16.2 11.8C16.2 11.5 16.4 11.3 16.7 11.3C17 11.3 17.1 11.1 17.2 10.9L17.3 9.00001C17.3 8.90001 17.3 8.80001 17.2 8.70001C17.1 8.60001 17 8.60001 16.9 8.60001C16.8 8.60001 16.6 8.50001 16.5 8.40001C16.4 8.30001 16.4 8.20001 16.4 8.00001L16.5 5.60001C16.5 5.50001 16.6 5.40001 16.6 5.30001L17.1 4.80001C17.4 4.50001 17.6 4.00001 17 3.10001C16.5 2.30001 15.6 1.90001 14.2 1.90001C13.3 1.90001 12.2 2.00001 11 2.70001C11 2.90001 10.9 2.90001 10.8 2.90001C7.3 2.90001 7 4.20001 7 5.70001C7 6.10001 7.2 7.50001 7.2 8.00001C7.2 8.10001 7.2 8.30001 7.1 8.40001C7.1 8.60001 6.9 8.70001 6.8 8.70001C6.6 8.70001 6.5 8.80001 6.4 8.80001C6.4 8.70001 6.4 8.80001 6.4 8.90001L6.6 10.7C6.6 10.9 6.8 11.1 7 11.1H7.1C7.4 11.1 7.6 11.3 7.6 11.6C7.8 12.9 8.4 14.2 9.3 15.1C9.4 15.2 9.5 15.4 9.4 15.6L9 17.5C9 17.7 8.8 17.8 8.6 17.9L4.7 18.9C2.8 19.4 1.4 21.2 1.4 23.1C1.5 23.3 1.3 23.5 1 23.5Z" fill="#6E3BA1"/>
<path d="M22.5 16.1C22.4 16.1 22.2 16 22.1 15.9C21.9 15.7 21.9 15.4 22.1 15.2C23.1 14.3 23.7 12.9 23.8 11.6C23.8 11.3 24 11.1 24.3 11.1C24.6 11.1 24.7 10.9 24.8 10.7L25.1 8.9C25.1 8.8 25.1 8.7 25 8.6C24.9 8.5 24.8 8.5 24.7 8.5C24.6 8.5 24.4 8.4 24.3 8.3C24.3 8.2 24.2 8.1 24.2 7.9L24.3 5.5C24.3 5.4 24.4 5.3 24.4 5.2L24.9 4.7C25.2 4.4 25.4 3.9 24.8 3C24.3 2.2 23.4 1.8 22 1.8C21.3 1.8 20.4 1.9 19.5 2.3C19.2 2.4 18.9 2.3 18.8 2.1C18.7 1.8 18.8 1.5 19 1.4C20.1 0.900003 21.1 0.800003 22 0.800003C23.6 0.800003 24.9 1.3 25.6 2.4C26.5 3.8 26.1 4.9 25.5 5.4L25.3 5.9L25.2 7.6C25.4 7.7 25.6 7.8 25.7 8C26 8.3 26.1 8.7 26 9.1L25.9 10.9C25.8 11.5 25.4 11.9 24.9 12.1C24.7 13.5 24 15 22.9 15.9C22.8 16 22.7 16.1 22.5 16.1Z" fill="#6E3BA1"/>
<path d="M23.5 17.3C23.2 17.3 23 17.5 23 17.8V18.2C20 18.2 17.5 20.7 17.5 23.7C17.5 26.7 19.9 29.2 23 29.2C25.9 29.2 28.3 26.8 28.5 23.8H29C29.2 23.8 29.5 23.5 29.5 23.3C29.5 20 26.9 17.3 23.5 17.3ZM24 18.3C26.4 18.6 28.2 20.4 28.4 22.7H24V18.3ZM23 28.2C20.5 28.2 18.6 26.3 18.6 23.8C18.6 21.3 20.5 19.4 23 19.4V23.3C23 23.6 23.2 23.8 23.5 23.8H27.4C27.4 26.3 25.5 28.2 23 28.2Z" fill="#6E3BA1"/>
</svg>
