<svg width="30" height="30" viewBox="0 0 30 30" fill="none" xmlns="http://www.w3.org/2000/svg">
<path d="M27.8998 17.8C27.8998 17 26.1998 13.9 25.2998 12.4C25.3998 12 25.4998 11 25.4998 9.59999C25.4998 7.09999 22.1998 0.799988 14.3998 0.799988C6.6998 0.799988 3.2998 6.59999 3.2998 10.8C3.2998 13.7 4.9998 16.7 6.3998 19.1C7.1998 20.5 7.9998 21.8 7.9998 22.5C7.9998 24 5.4998 26.9 4.5998 28C4.3998 28.2 4.3998 28.6 4.5998 28.8C4.6998 28.9 4.8998 29 4.9998 29C5.1998 29 5.2998 28.9 5.3998 28.8C5.7998 28.4 9.0998 24.8 9.0998 22.5C9.0998 21.5 8.29981 20.2 7.39981 18.5C6.09981 16.2 4.3998 13.4 4.3998 10.8C4.3998 7.89999 6.7998 1.99999 14.3998 1.99999C21.8998 1.99999 24.3998 7.99999 24.3998 9.59999C24.3998 11.4 24.1998 12.4 24.1998 12.4C24.1998 12.5 24.1998 12.7 24.2998 12.8C25.4998 14.8 26.7998 17.3 26.7998 17.8C26.6998 18 26.0998 18.3 25.4998 18.4C25.2998 18.4 25.1998 18.5 25.0998 18.7C24.9998 18.8 24.9998 19 25.0998 19.2L25.5998 20.6L25.2998 20.9C25.1998 21 25.0998 21.2 25.1998 21.4C25.0998 21.4 24.9998 21.5 24.9998 21.6C24.7998 21.7 24.5998 22 24.5998 22.5C24.5998 23 24.7998 23.3 24.8998 23.5C24.9998 23.7 25.0998 23.9 25.0998 24.3C25.0998 24.8 24.8998 25.1 22.6998 25.5C21.1998 25.8 17.4998 27.1 17.4998 28.4C17.4998 28.7 17.7998 29 18.0998 29C18.3998 29 18.6998 28.8 18.6998 28.5C18.8998 28.1 20.9998 27 22.8998 26.6C24.2998 26.4 26.2998 26 26.2998 24.3C26.2998 23.5 25.9998 23.1 25.8998 22.9C25.7998 22.7 25.7998 22.7 25.6998 22.6C25.9998 22.6 26.2998 22.4 26.3998 22.1C26.3998 22 26.3998 21.9 26.2998 21.8L26.7998 21.3C26.9998 21.1 26.9998 20.9 26.8998 20.7L26.4998 19.5C26.8998 19.2 27.8998 18.7 27.8998 17.8Z" fill="#6E3BA1"/>
<path d="M10.2996 11.7V9.89999L10.5996 9.59999C10.6996 9.59999 10.7996 9.69999 10.8996 9.69999C11.4996 9.69999 12.0996 9.19999 12.0996 8.49999C12.0996 7.79999 11.5996 7.29999 10.8996 7.29999C10.1996 7.29999 9.69961 7.79999 9.69961 8.49999C9.69961 8.59999 9.69961 8.69999 9.79961 8.79999L9.29961 9.19999C9.19961 9.29999 9.09961 9.49999 9.09961 9.59999V12C9.09961 12.2 9.19961 12.3 9.29961 12.4L12.5996 15.7V28.3C12.5996 28.6 12.8996 28.9 13.1996 28.9C13.4996 28.9 13.7996 28.6 13.7996 28.3V15.5C13.7996 15.3 13.6996 15.2 13.5996 15.1L10.2996 11.7Z" fill="#6E3BA1"/>
<path d="M21.3997 11.4H13.3997L12.3997 10.4C12.1997 10.2 11.7997 10.2 11.5997 10.4C11.3997 10.6 11.3997 11 11.5997 11.2L12.7997 12.4C12.8997 12.5 13.0997 12.6 13.1997 12.6H21.3997C21.6997 12.6 21.9997 12.3 21.9997 12C21.9997 11.7 21.6997 11.4 21.3997 11.4Z" fill="#6E3BA1"/>
<path d="M20.9996 7.99998L19.9996 8.99998H16.6996C16.3996 8.99998 16.0996 9.29998 16.0996 9.59998C16.0996 9.89998 16.3996 10.2 16.6996 10.2H20.1996C20.3996 10.2 20.4996 10.1 20.5996 9.99998L21.7996 8.79998C21.9996 8.59998 21.9996 8.19998 21.7996 7.99998C21.5996 7.79998 21.1996 7.79998 20.9996 7.99998Z" fill="#6E3BA1"/>
<path d="M15.5996 6.69999C15.3996 6.69999 15.2996 6.79999 15.1996 6.89999L13.9996 7.99999C13.7996 8.19999 13.7996 8.59999 13.9996 8.79999C14.0996 8.99999 14.1996 8.99999 14.3996 8.99999C14.5996 8.99999 14.6996 8.89999 14.7996 8.79999L15.7996 7.79999H17.8996C18.0996 7.79999 18.1996 7.69999 18.2996 7.59999L18.7996 7.09999C18.8996 7.09999 18.9996 7.19999 19.0996 7.19999C19.6996 7.19999 20.2996 6.69999 20.2996 5.99999C20.2996 5.29999 19.7996 4.79999 19.0996 4.79999C18.3996 4.79999 17.8996 5.29999 17.8996 5.99999C17.8996 6.09999 17.8996 6.19999 17.9996 6.29999L17.6996 6.59999H15.5996V6.69999Z" fill="#6E3BA1"/>
<path d="M7.9998 12.9V7.49999L9.9998 5.49999H11.8998L12.8998 6.49999C13.0998 6.69999 13.4998 6.69999 13.6998 6.49999C13.8998 6.29999 13.8998 5.89999 13.6998 5.69999L12.4998 4.49999C12.3998 4.39999 12.1998 4.29999 12.0998 4.29999H9.6998C9.4998 4.29999 9.3998 4.39999 9.2998 4.49999L6.9998 6.89999C6.7998 6.99999 6.7998 7.09999 6.7998 7.29999V13.2C6.7998 13.4 6.8998 13.5 6.9998 13.6L10.2998 16.9V28.4C10.2998 28.7 10.5998 29 10.8998 29C11.1998 29 11.4998 28.7 11.4998 28.4V16.6C11.4998 16.4 11.3998 16.3 11.2998 16.2L7.9998 12.9Z" fill="#6E3BA1"/>
<path d="M16.2998 15.9C16.3998 16 16.5998 16.1 16.6998 16.1H18.9998C19.1998 16.1 19.2998 16 19.3998 15.9L20.5998 14.7C20.7998 14.5 20.7998 14.1 20.5998 13.9C20.3998 13.7 19.9998 13.7 19.7998 13.9L18.7998 14.9H16.9998L15.9998 13.9C15.7998 13.7 15.3998 13.7 15.1998 13.9C14.9998 14.1 14.9998 14.5 15.1998 14.7L16.2998 15.9Z" fill="#6E3BA1"/>
<path d="M22.9998 15.1C22.7998 14.9 22.3998 14.9 22.1998 15.1L17.4998 19.8C17.3998 19.9 17.2998 20.1 17.2998 20.2V22.5C17.2998 22.8 17.5998 23.1 17.8998 23.1C18.1998 23.1 18.4998 22.8 18.4998 22.5V20.4L22.9998 15.9C23.1998 15.7 23.1998 15.3 22.9998 15.1Z" fill="#6E3BA1"/>
<path d="M17.9 24.8C17.9 24.2 17.4 23.6 16.7 23.6C16.6 23.6 16.5 23.6 16.4 23.7L16.1 23.4V19.2L17.1 18.2C17.3 18 17.3 17.6 17.1 17.4C16.9 17.2 16.5 17.2 16.3 17.4L15.1 18.6C15 18.7 15 18.8 15 19V23.7C15 23.9 15.1 24 15.2 24.1L15.7 24.6C15.7 24.7 15.6 24.8 15.6 24.9C15.6 25.5 16.1 26.1 16.8 26.1C17.5 26.1 17.9 25.5 17.9 24.8Z" fill="#6E3BA1"/>
<path d="M20.9996 19.7L19.7996 20.9C19.6996 21 19.5996 21.2 19.5996 21.3V23.6C19.5996 23.9 19.8996 24.2 20.1996 24.2C20.4996 24.2 20.7996 23.9 20.7996 23.6V21.5L21.7996 20.5C21.9996 20.3 21.9996 19.9 21.7996 19.7C21.5996 19.5 21.1996 19.5 20.9996 19.7Z" fill="#6E3BA1"/>
</svg>
