<svg width="30" height="30" viewBox="0 0 30 30" fill="none" xmlns="http://www.w3.org/2000/svg">
<path d="M15 6C14.7 6 14.5 6.2 14.5 6.5V15.5C14.5 15.7 14.6 15.8 14.7 15.9L18.7 18.9C18.8 19 18.9 19 19 19C19.2 19 19.3 18.9 19.4 18.8C19.6 18.6 19.5 18.3 19.3 18.1L15.5 15.3V6.5C15.5 6.2 15.3 6 15 6Z" fill="#6E3BA1"/>
<path d="M6.3998 13.9C6.5998 13.7 6.5998 13.4 6.3998 13.2C6.1998 13 5.8998 13 5.6998 13.2L4.0998 14.8C4.1998 8.8 8.9998 4 14.9998 4C19.5998 4 23.6998 6.9 25.2998 11.2C25.3998 11.5 25.6998 11.6 25.8998 11.5C26.1998 11.4 26.2998 11.1 26.1998 10.9C24.4998 6.2 19.9998 3 14.9998 3C8.4998 3 3.0998 8.3 3.0998 14.8L1.3998 13.1C1.1998 12.9 0.899805 12.9 0.699805 13.1C0.499805 13.3 0.499805 13.6 0.699805 13.8L3.1998 16.3C3.2998 16.4 3.3998 16.4 3.5998 16.4C3.7998 16.4 3.8998 16.4 3.9998 16.3L6.3998 13.9Z" fill="#6E3BA1"/>
<path d="M29.3997 16.1L26.8997 13.6C26.6997 13.4 26.3997 13.4 26.1997 13.6L23.6997 16.1C23.4997 16.3 23.4997 16.6 23.6997 16.8C23.8997 17 24.1997 17 24.3997 16.8L25.9997 15.2C25.7997 21.2 20.9997 26 14.9997 26C10.3997 26 6.29971 23.1 4.69971 18.8C4.59971 18.5 4.29971 18.4 4.09971 18.5C3.79971 18.6 3.69971 18.9 3.79971 19.1C5.49971 23.8 9.99971 27 14.9997 27C21.4997 27 26.8997 21.7 26.8997 15.2L28.5997 16.9C28.6997 17 28.8997 17 28.9997 17C29.0997 17 29.2997 17 29.3997 16.9C29.4997 16.7 29.4997 16.3 29.3997 16.1Z" fill="#6E3BA1"/>
</svg>
