<?xml version="1.0" encoding="UTF-8"?>
<svg width="50px" height="50px" viewBox="0 0 50 50" version="1.1" xmlns="http://www.w3.org/2000/svg" xmlns:xlink="http://www.w3.org/1999/xlink">
    <title>Solutions / Card / Circle / deliver / content@3x</title>
    <g id="Solutions-/-Card-/-Circle-/-deliver-/-content" stroke="none" stroke-width="1" fill="none" fill-rule="evenodd">
        <g id="Group-12">
            <path d="M0,25 C0,11.1927064 11.1927064,0 25,0 C31.6296835,0 37.9888141,2.63504911 42.6768825,7.32084394 C47.3672244,12.0111859 50,18.3703165 50,25 C50,38.8072936 38.8072936,50 25,50 C11.1927064,50 0,38.8072936 0,25" id="Fill-32" fill="#4B286D"></path>
            <g id="star-shield-3" transform="translate(11.000000, 10.000000)" fill="#FFFFFF" fill-rule="nonzero" stroke="#FFFFFF" stroke-width="0.25">
                <path d="M26.42875,3.77625 L13.92875,0.02625 C13.81125,-0.00875 13.6875,-0.00875 13.57,0.02625 L1.07,3.77625 C0.8075,3.855 0.625,4.09875 0.625,4.375 L0.625,18.125 C0.625,23.6525 9.0525,28.5675 13.565,29.9725 C13.62375,29.99125 13.68875,30 13.75,30 C13.81125,30 13.87625,29.99125 13.93375,29.9725 C18.4475,28.5675 26.875,23.6525 26.875,18.125 L26.875,4.375 C26.875,4.09875 26.695,3.855 26.42875,3.77625 Z M25.625,18.125 C25.625,22.51375 18.67125,27.12875 13.75,28.72 C8.82875,27.12875 1.875,22.51375 1.875,18.125 L1.875,4.84 L13.75,1.2775 L25.625,4.84 L25.625,18.125 Z M13.20375,4.0725 L10.235,9.415 L4.93125,10.00375 C4.69375,10.03125 4.49125,10.1925 4.41125,10.41875 C4.33,10.645 4.3875,10.8975 4.5575,11.0675 L8.69625,15.20625 L7.5125,21.1275 C7.465,21.36625 7.56,21.61125 7.75625,21.755 C7.95375,21.89875 8.215,21.91375 8.42875,21.79625 L13.75,18.84 L19.07125,21.79625 C19.16625,21.84875 19.27125,21.875 19.375,21.875 C19.505,21.875 19.63375,21.835 19.7425,21.755 C19.93875,21.61125 20.03375,21.36625 19.98625,21.1275 L18.8025,15.20625 L22.94125,11.0675 C23.11125,10.8975 23.1675,10.64625 23.08875,10.41875 C23.01,10.19125 22.80625,10.03 22.56875,10.00375 L17.26375,9.415 L14.29625,4.0725 C14.075,3.67625 13.425,3.67625 13.20375,4.0725 Z M16.32875,10.30375 C16.4275,10.48 16.60625,10.59875 16.80625,10.62125 L21.14,11.1025 L17.68375,14.55875 C17.53625,14.7075 17.47125,14.91875 17.5125,15.12375 L18.4975,20.0475 L14.05375,17.57875 C13.95875,17.52625 13.855,17.5 13.75,17.5 C13.645,17.5 13.54125,17.52625 13.44625,17.57875 L9.0025,20.0475 L9.9875,15.12375 C10.02875,14.91875 9.96375,14.70625 9.81625,14.55875 L6.36125,11.1025 L10.695,10.62125 C10.895,10.59875 11.07375,10.48125 11.1725,10.30375 L13.75,5.6625 L16.32875,10.30375 Z" id="Shape"></path>
            </g>
        </g>
    </g>
</svg>