<svg width="30" height="30" viewBox="0 0 30 30" fill="none" xmlns="http://www.w3.org/2000/svg">
<path d="M29.104 23.6209C28.284 21.9789 26.471 21.1439 24.692 21.5879L20.866 22.5449C20.696 21.0689 19.823 20.1979 18.076 19.7589L7.83901 17.4819C7.87101 17.2579 7.89601 17.0419 7.91301 16.8419C7.92901 16.6629 7.86301 16.4859 7.73201 16.3619C6.72001 15.4019 2.67501 15.0919 1.45901 15.0189C1.29301 15.0089 1.13601 15.0669 1.01901 15.1789C0.900008 15.2889 0.833008 15.4449 0.833008 15.6089V26.2479C0.833008 26.5739 1.09701 26.8379 1.42301 26.8379H4.96501C5.22001 26.8379 5.44601 26.6739 5.52501 26.4309C5.54101 26.3839 5.62101 26.1349 5.74301 25.7509L14.201 28.5739C15.192 28.9489 15.877 29.1659 16.647 29.1659C17.842 29.1659 19.245 28.6409 22.328 27.3789L28.821 24.4239C28.966 24.3569 29.079 24.2339 29.133 24.0839C29.186 23.9319 29.176 23.7639 29.104 23.6209ZM4.53401 25.6569H2.01201V16.2419C3.90901 16.3919 5.95701 16.7189 6.70201 17.0799C6.38801 19.6699 4.97201 24.2679 4.53401 25.6569V25.6569ZM21.858 26.2929C16.893 28.3309 16.722 28.2679 14.596 27.4609L6.09001 24.6209C6.57501 23.0119 7.25101 20.6269 7.63801 18.6489L17.805 20.9119C19.111 21.2379 19.638 21.7539 19.71 22.8339L18.577 23.1159C18.157 23.2229 17.709 23.2339 17.283 23.1479L12.162 22.1219C11.842 22.0569 11.532 22.2659 11.468 22.5869C11.404 22.9069 11.611 23.2169 11.931 23.2819L17.053 24.3079C17.318 24.3609 17.59 24.3869 17.86 24.3869C18.199 24.3869 18.539 24.3459 18.865 24.2629L20.448 23.8669H20.455L24.977 22.7339C26.013 22.4789 27.06 22.8379 27.71 23.6289L21.858 26.2929V26.2929ZM18.115 13.6549C18.226 13.7689 18.38 13.8349 18.54 13.8349C18.7 13.8349 18.854 13.7689 18.965 13.6549L24.506 7.8879C25.226 7.1409 25.623 6.1469 25.623 4.9809C25.623 2.9549 24.25 1.1949 22.433 0.886898C21.325 0.699898 20.21 1.0069 19.359 1.7279C19.034 2.0049 18.759 2.3259 18.541 2.6849C18.323 2.3259 18.048 2.0039 17.723 1.7279C16.873 1.0079 15.757 0.701898 14.65 0.886898C12.83 1.1949 11.457 2.9549 11.457 5.0909C11.457 6.1469 11.854 7.1409 12.574 7.8879L18.115 13.6549V13.6549ZM14.848 2.0519C14.998 2.0269 15.148 2.0139 15.295 2.0139C15.903 2.0139 16.481 2.2269 16.961 2.6309C17.589 3.1629 17.95 3.9549 17.95 4.8009C17.95 5.1279 18.214 5.3929 18.54 5.3929C18.866 5.3929 19.13 5.1279 19.13 4.8019C19.13 3.9549 19.49 3.1629 20.12 2.6319C20.715 2.1289 21.462 1.9239 22.233 2.0529C23.493 2.2649 24.443 3.5249 24.443 5.0909C24.443 5.8289 24.156 6.5489 23.656 7.0679L18.54 12.3919L13.424 7.0689C12.924 6.5489 12.638 5.8289 12.638 4.9809C12.638 3.5239 13.588 2.2649 14.848 2.0519V2.0519Z" fill="#6E3BA1"/>
</svg>
