<svg width="50" height="54" viewBox="0 0 50 54" fill="none" xmlns="http://www.w3.org/2000/svg">
<path d="M9.29902 17.6924C8.71563 17.6924 8.24414 18.164 8.24414 18.7473C8.24414 19.3296 8.71572 19.8021 9.29902 19.8021C9.88135 19.8021 10.3539 19.3296 10.3539 18.7473C10.3539 18.164 9.88135 17.6924 9.29902 17.6924Z" fill="#4B286D"/>
<path d="M9.29892 14.7285C7.08262 14.7285 5.27979 16.5313 5.27979 18.7477C5.27979 20.964 7.08262 22.7668 9.29892 22.7668C11.5152 22.7668 13.3181 20.964 13.3181 18.7477C13.3181 16.5313 11.5152 14.7285 9.29892 14.7285ZM9.29892 20.8681C8.129 20.8681 7.17861 19.9165 7.17861 18.7478C7.17861 17.5778 8.1291 16.6274 9.29892 16.6274C10.4678 16.6274 11.4192 17.5779 11.4192 18.7478C11.4192 19.9165 10.4678 20.8681 9.29892 20.8681Z" fill="#4B286D"/>
<path d="M39.126 17.5723C36.6174 15.032 33.2755 13.6333 29.7153 13.6333H27.0908C26.5074 13.6333 26.0359 14.1059 26.0359 14.6882C26.0359 15.2705 26.5075 15.7431 27.0908 15.7431H29.7154C32.7071 15.7431 35.5162 16.9192 37.625 19.0555C37.8307 19.2644 38.1029 19.3688 38.375 19.3688C38.643 19.3688 38.9109 19.2675 39.1166 19.0649C39.5311 18.6557 39.5354 17.9868 39.126 17.5723Z" fill="#4B286D"/>
<path d="M48.9451 25.8014H46.2805C45.7309 17.1406 38.5122 10.2627 29.7154 10.2627H25.48C23.5157 10.2627 21.6117 10.5971 19.8004 11.2585V9.00742C19.8004 7.73418 18.7645 6.69824 17.4912 6.69824C17.3921 6.69824 17.2929 6.70566 17.1863 6.71934C13.8286 7.10225 10.78 8.70674 8.5541 11.2512C4.3873 11.8662 0 16.8928 0 21.2137C0 23.2021 0.888184 24.7181 2.27861 25.8015H1.75957C1.17725 25.8015 0.704688 26.273 0.704688 26.8563V31.8365C0.704688 32.4188 1.17725 32.8914 1.75957 32.8914H12.7779L10.3591 35.3103C8.12695 34.9231 5.81357 35.6415 4.19639 37.2587C2.86719 38.5878 2.14355 40.3885 2.14355 42.2282C2.14355 42.8306 2.22158 43.4371 2.38086 44.0331C2.47793 44.3981 2.7627 44.6829 3.12773 44.78C3.72266 44.9393 4.3293 45.0163 4.93057 45.0163C6.77031 45.0163 8.571 44.2937 9.90127 42.9635C11.5174 41.3474 12.2357 39.034 11.8507 36.8019L15.7612 32.8913H39.0259C38.7463 34.6382 38.183 36.3271 37.3412 37.9337C36.0015 40.4918 34.0141 42.6597 31.5931 44.2019C29.2448 45.6987 26.5327 46.587 23.7521 46.7685C23.2277 46.8032 22.8101 47.2168 22.7688 47.74C22.7276 48.2633 23.0779 48.7358 23.5896 48.8509C24.944 49.1547 26.3049 49.3013 27.6509 49.3013C34.4719 49.3013 40.9162 45.5343 44.1821 39.2987C45.2297 37.2976 45.9048 35.1182 46.177 32.8913H48.945C49.5273 32.8913 49.9999 32.4187 49.9999 31.8364V26.8562C50 26.2729 49.5274 25.8014 48.9451 25.8014ZM8.40967 41.4719C7.32627 42.5553 5.79561 43.0627 4.29561 42.8654C4.09727 41.3653 4.60469 39.8337 5.68809 38.7503C6.77148 37.6669 8.30322 37.1605 9.80215 37.3578C9.99932 38.8578 9.49199 40.3885 8.40967 41.4719ZM16.737 30.7815H2.81445V27.9111L16.9227 27.9175L16.6663 28.8278C16.4828 29.4798 16.5102 30.157 16.737 30.7815ZM29.8356 30.7815H22.7457C22.7721 30.7099 23.5633 27.9175 23.5633 27.9175H30.0214L29.765 28.8278C29.5804 29.4798 29.6078 30.157 29.8356 30.7815ZM35.8433 30.7815C35.8696 30.7099 36.6619 27.9175 36.6619 27.9175H38.6905C38.9807 27.9175 39.218 28.1538 39.218 28.4449C39.218 28.4449 39.2254 30.7256 39.2232 30.7815H35.8433ZM44.2055 30.463C44.2055 30.4714 44.2044 30.4788 44.2044 30.4872C44.2329 33.1951 43.5788 35.903 42.313 38.3198C40.0207 42.6955 35.9646 45.701 31.3748 46.7653C31.8358 46.5237 32.2873 46.2621 32.7271 45.9815C35.4583 44.2409 37.6999 41.7968 39.2105 38.9127C40.5914 36.2744 41.3087 33.4398 41.3414 30.4872C41.3425 30.4281 41.3277 28.4449 41.3277 28.4449C41.3277 26.9902 40.1441 25.8077 38.6905 25.8077H37.258L37.4089 25.2719C37.853 23.6959 37.0429 22.0481 35.5228 21.4384C35.4615 21.4142 33.9752 20.8382 33.9752 20.8382C33.4351 20.6209 32.8201 20.8835 32.6038 21.4247C32.3865 21.9648 32.6491 22.5788 33.1903 22.7961C33.1903 22.7961 34.7864 23.4312 34.837 23.4428C35.2885 23.678 35.5185 24.1991 35.3782 24.6991L33.8845 29.9905C33.7537 30.4568 33.3243 30.7817 32.8412 30.7817C32.7421 30.7817 32.6429 30.7681 32.5448 30.7406C32.2663 30.6615 32.0343 30.479 31.8929 30.2259C31.7515 29.9727 31.7167 29.6794 31.7958 29.401L32.7663 25.9609C32.9245 25.4008 32.5985 24.8174 32.0374 24.6603C31.4762 24.502 30.8939 24.828 30.7356 25.3881L30.6175 25.8079H24.1594L24.3103 25.2721C24.7554 23.6961 23.9442 22.0483 22.4252 21.4386C22.363 21.4144 20.8767 20.8384 20.8767 20.8384C20.3365 20.6211 19.7226 20.8837 19.5053 21.4249C19.2891 21.965 19.5506 22.579 20.0918 22.7963C20.0918 22.7963 21.6889 23.4313 21.7396 23.443C22.1899 23.6782 22.421 24.1993 22.2797 24.6993L20.787 29.9907C20.6552 30.457 20.2269 30.7819 19.7437 30.7819C19.6446 30.7819 19.5454 30.7683 19.4474 30.7408C19.1678 30.6617 18.9368 30.4792 18.7954 30.2261C18.653 29.9729 18.6192 29.6796 18.6973 29.4012L19.6678 25.9611C19.826 25.401 19.5 24.8176 18.9389 24.6604C18.3776 24.5022 17.7953 24.8282 17.6371 25.3883L17.5189 25.8081L9.13467 25.8018C3.60381 25.6572 2.11016 22.8755 2.11016 21.2141C2.11016 19.6349 2.97832 17.716 4.43203 16.0799C5.88564 14.4458 7.65264 13.4089 9.15898 13.3065C9.44912 13.2865 9.71807 13.1483 9.90264 12.9236C11.8015 10.6092 14.4756 9.15029 17.4336 8.81484C17.441 8.81377 17.4473 8.81269 17.4536 8.81269C17.4758 8.80957 17.6909 8.89814 17.6909 9.00781V12.8487C17.6909 13.2116 17.8776 13.5492 18.1846 13.7422C18.4915 13.9353 18.8766 13.9574 19.2036 13.7991C21.1688 12.8528 23.2808 12.3729 25.4803 12.3729H29.7157C37.7055 12.3729 44.2058 18.8732 44.2058 26.863V30.463H44.2055ZM47.8902 30.7815H46.3121C46.3132 30.6887 46.3152 27.9111 46.3152 27.9111H47.8902V30.7815Z" fill="#4B286D"/>
<path d="M9.29902 17.6924C8.71563 17.6924 8.24414 18.164 8.24414 18.7473C8.24414 19.3296 8.71572 19.8021 9.29902 19.8021C9.88135 19.8021 10.3539 19.3296 10.3539 18.7473C10.3539 18.164 9.88135 17.6924 9.29902 17.6924Z" fill="#4B286D"/>
<path d="M9.29892 14.7285C7.08262 14.7285 5.27979 16.5313 5.27979 18.7477C5.27979 20.964 7.08262 22.7668 9.29892 22.7668C11.5152 22.7668 13.3181 20.964 13.3181 18.7477C13.3181 16.5313 11.5152 14.7285 9.29892 14.7285ZM9.29892 20.8681C8.129 20.8681 7.17861 19.9165 7.17861 18.7478C7.17861 17.5778 8.1291 16.6274 9.29892 16.6274C10.4678 16.6274 11.4192 17.5779 11.4192 18.7478C11.4192 19.9165 10.4678 20.8681 9.29892 20.8681Z" fill="#4B286D"/>
<path d="M39.126 17.5723C36.6174 15.032 33.2755 13.6333 29.7153 13.6333H27.0908C26.5074 13.6333 26.0359 14.1059 26.0359 14.6882C26.0359 15.2705 26.5075 15.7431 27.0908 15.7431H29.7154C32.7071 15.7431 35.5162 16.9192 37.625 19.0555C37.8307 19.2644 38.1029 19.3688 38.375 19.3688C38.643 19.3688 38.9109 19.2675 39.1166 19.0649C39.5311 18.6557 39.5354 17.9868 39.126 17.5723Z" fill="#4B286D"/>
<path d="M39.126 17.5723C36.6174 15.032 33.2755 13.6333 29.7153 13.6333H27.0908C26.5074 13.6333 26.0359 14.1059 26.0359 14.6882C26.0359 15.2705 26.5075 15.7431 27.0908 15.7431H29.7154C32.7071 15.7431 35.5162 16.9192 37.625 19.0555C37.8307 19.2644 38.1029 19.3688 38.375 19.3688C38.643 19.3688 38.9109 19.2675 39.1166 19.0649C39.5311 18.6557 39.5354 17.9868 39.126 17.5723Z" fill="#4B286D"/>
<path d="M9.29902 17.6924C8.71563 17.6924 8.24414 18.164 8.24414 18.7473C8.24414 19.3296 8.71572 19.8021 9.29902 19.8021C9.88135 19.8021 10.3539 19.3296 10.3539 18.7473C10.3539 18.164 9.88135 17.6924 9.29902 17.6924Z" fill="#4B286D"/>
<path d="M9.29902 17.6924C8.71563 17.6924 8.24414 18.164 8.24414 18.7473C8.24414 19.3296 8.71572 19.8021 9.29902 19.8021C9.88135 19.8021 10.3539 19.3296 10.3539 18.7473C10.3539 18.164 9.88135 17.6924 9.29902 17.6924Z" fill="#4B286D"/>
<path d="M9.29892 14.7285C7.08262 14.7285 5.27979 16.5313 5.27979 18.7477C5.27979 20.964 7.08262 22.7668 9.29892 22.7668C11.5152 22.7668 13.3181 20.964 13.3181 18.7477C13.3181 16.5313 11.5152 14.7285 9.29892 14.7285ZM9.29892 20.8681C8.129 20.8681 7.17861 19.9165 7.17861 18.7478C7.17861 17.5778 8.1291 16.6274 9.29892 16.6274C10.4678 16.6274 11.4192 17.5779 11.4192 18.7478C11.4192 19.9165 10.4678 20.8681 9.29892 20.8681Z" fill="#4B286D"/>
<path d="M9.29902 17.6924C8.71563 17.6924 8.24414 18.164 8.24414 18.7473C8.24414 19.3296 8.71572 19.8021 9.29902 19.8021C9.88135 19.8021 10.3539 19.3296 10.3539 18.7473C10.3539 18.164 9.88135 17.6924 9.29902 17.6924Z" fill="#4B286D"/>
</svg>
