<svg width="30" height="30" viewBox="0 0 30 30" fill="none" xmlns="http://www.w3.org/2000/svg">
<path d="M23.9723 11.6939C21.1393 11.6939 18.7773 9.33293 18.7773 6.49993C18.7773 3.66593 21.1393 1.30493 23.9723 1.30493C26.8053 1.30493 29.1663 3.66593 29.1663 6.49993C29.1663 9.33293 26.8063 11.6939 23.9723 11.6939ZM23.9723 2.24993C21.6113 2.24993 19.7223 4.13893 19.7223 6.49993C19.7223 8.85993 21.6113 10.7499 23.9723 10.7499C26.3333 10.7499 28.2223 8.85993 28.2223 6.49993C28.2223 4.13893 26.3333 2.24993 23.9723 2.24993Z" fill="#6E3BA1"/>
<path d="M23.9723 11.6939C22.4613 11.6939 21.6113 9.04993 21.6113 6.49993C21.6113 3.94993 22.4613 1.30493 23.9713 1.30493C25.4833 1.30493 26.3333 3.94993 26.3333 6.49993C26.3333 9.04993 25.4833 11.6939 23.9723 11.6939ZM23.9723 2.24993C23.4053 2.24993 22.5553 3.94993 22.5553 6.49993C22.5553 9.04993 23.4053 10.7499 23.9723 10.7499C24.5393 10.7499 25.3893 9.04993 25.3893 6.49993C25.3893 3.94993 24.5393 2.24993 23.9723 2.24993Z" fill="#6E3BA1"/>
<path d="M28.222 6.02685H19.627C19.344 6.02685 19.155 5.83885 19.155 5.55485C19.155 5.27185 19.345 5.08285 19.627 5.08285H28.222C28.505 5.08285 28.694 5.27185 28.694 5.55485C28.694 5.83885 28.505 6.02685 28.222 6.02685V6.02685ZM28.222 8.86085H19.911C19.627 8.86085 19.439 8.67085 19.439 8.38885C19.439 8.10485 19.627 7.91585 19.911 7.91585H28.221C28.505 7.91585 28.694 8.10585 28.694 8.38885C28.694 8.67185 28.505 8.86085 28.222 8.86085V8.86085ZM10.75 28.6928C9.14401 28.6928 7.91601 27.4648 7.91601 25.8598C7.91601 24.2538 9.14401 23.0258 10.75 23.0258C12.355 23.0258 13.583 24.2538 13.583 25.8598C13.583 27.4648 12.355 28.6928 10.75 28.6928ZM10.75 23.9708C9.71001 23.9708 8.86001 24.8208 8.86001 25.8598C8.86001 26.8988 9.71001 27.7488 10.75 27.7488C11.789 27.7488 12.639 26.8988 12.639 25.8588C12.639 24.8208 11.789 23.9708 10.749 23.9708H10.75ZM23.027 28.6928C21.422 28.6928 20.194 27.4648 20.194 25.8598C20.194 24.2538 21.422 23.0258 23.027 23.0258C24.633 23.0258 25.861 24.2538 25.861 25.8598C25.861 27.4648 24.633 28.6928 23.027 28.6928V28.6928ZM23.027 23.9708C21.989 23.9708 21.139 24.8208 21.139 25.8598C21.139 26.8988 21.989 27.7488 23.027 27.7488C24.067 27.7488 24.917 26.8988 24.917 25.8588C24.917 24.8208 24.067 23.9708 23.027 23.9708V23.9708ZM24.917 22.0818H11.317C9.42701 22.0818 7.72701 20.6648 7.35001 18.7758L4.42201 4.13885H1.30501C1.02301 4.13885 0.833008 3.94885 0.833008 3.66585C0.833008 3.38285 1.02201 3.19385 1.30501 3.19385H4.89501C5.08301 3.19385 5.27201 3.38285 5.36601 3.57185L8.29401 18.5888C8.57701 20.0048 9.80501 21.1388 11.316 21.1388H24.916C25.2 21.1388 25.389 21.3268 25.389 21.6108C25.389 21.8938 25.199 22.0828 24.916 22.0828L24.917 22.0818Z" fill="#6E3BA1"/>
<path d="M7.91601 19.2499C7.72701 19.2499 7.53901 19.0599 7.44401 18.8719L5.08301 7.53895C5.08301 7.44395 5.08301 7.25495 5.17701 7.16095C5.27201 7.06595 5.36701 6.97095 5.55501 6.97095H17.455C17.739 6.97095 17.927 7.16095 17.927 7.44395C17.927 7.72695 17.739 7.91595 17.455 7.91595H6.12301L8.29301 18.2109L25.482 16.039L26.521 12.2609C26.615 11.9769 26.804 11.8829 27.088 11.8829C27.371 11.9769 27.465 12.1659 27.465 12.4499L26.333 16.605C26.239 16.795 26.144 16.8889 25.955 16.9829L7.91601 19.2499C7.91601 19.2499 8.01101 19.2499 7.91601 19.2499Z" fill="#6E3BA1"/>
</svg>
