<svg width="50" height="54" viewBox="0 0 50 54" fill="none" xmlns="http://www.w3.org/2000/svg">
<path d="M25.9766 41.0859C25.9766 41.6253 25.5394 42.0625 25 42.0625C24.4606 42.0625 24.0234 41.6253 24.0234 41.0859C24.0234 40.5465 24.4606 40.1094 25 40.1094C25.5394 40.1094 25.9766 40.5465 25.9766 41.0859Z" fill="#4B286D"/>
<path d="M46.7773 32.2969C46.7773 29.0658 44.149 26.4375 40.918 26.4375C37.6869 26.4375 35.0586 29.0658 35.0586 32.2969C35.0586 35.5279 37.6869 38.1562 40.918 38.1562C44.149 38.1562 46.7773 35.5279 46.7773 32.2969ZM40.918 36.2031C38.7642 36.2031 37.0117 34.4507 37.0117 32.2969C37.0117 30.1431 38.7642 28.3906 40.918 28.3906C43.0717 28.3906 44.8242 30.1431 44.8242 32.2969C44.8242 34.4507 43.0717 36.2031 40.918 36.2031Z" fill="#4B286D"/>
<path d="M40.918 38.1562C38.4571 38.1562 36.0031 39.1778 34.3315 40.8342C32.1312 37.9426 28.7384 36.2031 25 36.2031C21.4199 36.2031 17.9508 37.8366 15.6689 40.8342C13.9969 39.1782 11.5433 38.1562 9.08203 38.1562C4.15916 38.1562 0 42.1811 0 46.9453V48.8984C0 49.4378 0.437164 49.875 0.976562 49.875H49.0234C49.5628 49.875 50 49.4378 50 48.8984V46.9453C50 42.1811 45.8408 38.1562 40.918 38.1562ZM1.95312 46.9453C1.95312 43.2397 5.21774 40.1094 9.08203 40.1094C11.1965 40.1094 13.2935 41.0463 14.5916 42.5355C13.7333 44.1934 13.2812 46.0412 13.2812 47.9219H1.95312V46.9453ZM25 38.1562C30.434 38.1562 34.7656 42.5653 34.7656 47.9219H15.2344C15.2344 42.4939 19.6545 38.1562 25 38.1562ZM48.0469 47.9219H36.7188C36.7188 46.0412 36.2667 44.1934 35.4084 42.5355C36.7065 41.0463 38.8035 40.1094 40.918 40.1094C44.7823 40.1094 48.0469 43.2397 48.0469 46.9453V47.9219Z" fill="#4B286D"/>
<path d="M14.9414 32.2969C14.9414 29.0658 12.3131 26.4375 9.08203 26.4375C5.85098 26.4375 3.22266 29.0658 3.22266 32.2969C3.22266 35.5279 5.85098 38.1562 9.08203 38.1562C12.3131 38.1562 14.9414 35.5279 14.9414 32.2969ZM9.08203 36.2031C6.92825 36.2031 5.17578 34.4507 5.17578 32.2969C5.17578 30.1431 6.92825 28.3906 9.08203 28.3906C11.2358 28.3906 12.9883 30.1431 12.9883 32.2969C12.9883 34.4507 11.2358 36.2031 9.08203 36.2031Z" fill="#4B286D"/>
<path d="M32.8125 28.3906C32.8125 24.0827 29.3079 20.5781 25 20.5781C20.6921 20.5781 17.1875 24.0827 17.1875 28.3906C17.1875 32.6986 20.6921 36.2031 25 36.2031C29.3079 36.2031 32.8125 32.6986 32.8125 28.3906ZM25 34.25C21.769 34.25 19.1406 31.6217 19.1406 28.3906C19.1406 25.1596 21.769 22.5312 25 22.5312C28.231 22.5312 30.8594 25.1596 30.8594 28.3906C30.8594 31.6217 28.231 34.25 25 34.25Z" fill="#4B286D"/>
<path d="M32.7285 8.6797C32.6136 8.32608 32.3081 8.06859 31.94 8.01518L27.7278 7.40369L25.8418 3.54779C25.6781 3.21248 25.3379 3 24.9648 3C24.5917 3 24.2514 3.21248 24.0874 3.54741L22.2018 7.40369L17.9896 8.0148C17.6215 8.06821 17.3159 8.32608 17.2011 8.6797C17.0863 9.03333 17.1821 9.42128 17.4483 9.68068L20.4985 12.6535L19.7787 16.8515C19.7158 17.2178 19.8665 17.5882 20.1674 17.8064C20.4665 18.0238 20.8648 18.0547 21.1959 17.8808L24.9648 15.899L28.7352 17.8808C29.0641 18.0539 29.4627 18.0249 29.7637 17.8064C30.0643 17.5878 30.215 17.2178 30.152 16.8512L29.4314 12.6535L32.4813 9.68068C32.7475 9.42128 32.8433 9.03333 32.7285 8.6797ZM27.6999 11.6132C27.4699 11.8375 27.3646 12.161 27.4192 12.4776L27.8918 15.2314L25.4191 13.9314C25.1345 13.7819 24.7947 13.7819 24.5101 13.9314L22.0382 15.2314L22.5104 12.4776C22.5646 12.1606 22.4593 11.8375 22.2293 11.6132L20.2288 9.66351L22.9926 9.26221C23.3123 9.21605 23.5881 9.01463 23.7296 8.72472L24.9648 6.19939L26.1996 8.72472C26.3415 9.01501 26.6173 9.21605 26.9366 9.26221L29.7007 9.66351L27.6999 11.6132Z" fill="#4B286D"/>
<path d="M47.3252 15.999C47.2104 15.6453 46.9048 15.3878 46.5367 15.3344L43.6829 14.9198L42.4069 12.3334C42.2425 12 41.9034 11.7891 41.5314 11.7891C41.5314 11.7891 41.5314 11.7891 41.531 11.7891C41.1595 11.7891 40.82 12 40.6556 12.3334L39.3788 14.9198L36.5246 15.3344C36.1569 15.3878 35.8513 15.6453 35.7365 15.999C35.6213 16.3526 35.7171 16.7405 35.9833 16.9999L38.0482 19.0137L37.5607 21.8557C37.4981 22.2219 37.6484 22.5919 37.9494 22.8105C38.25 23.0291 38.6487 23.0581 38.9775 22.8853L41.531 21.5436L44.0838 22.8853C44.4127 23.0581 44.8117 23.0291 45.1123 22.8105C45.4129 22.5923 45.5632 22.2219 45.5006 21.8557L45.0131 19.0137L47.0784 16.9999C47.3447 16.7405 47.44 16.3526 47.3252 15.999ZM43.2824 17.9738C43.052 18.1981 42.9471 18.5212 43.0016 18.8379L43.2412 20.2356L41.9858 19.576C41.7012 19.4265 41.3613 19.4265 41.0771 19.576L39.8205 20.2359L40.0605 18.8379C40.1147 18.5212 40.0097 18.1981 39.7797 17.9738L38.7635 16.9828L40.1677 16.7791C40.4858 16.7329 40.7609 16.533 40.9031 16.245L41.531 14.9728L42.1586 16.2446C42.3009 16.533 42.5759 16.7329 42.894 16.7791L44.2982 16.9828L43.2824 17.9738Z" fill="#4B286D"/>
<path d="M14.1221 15.999C14.0072 15.6453 13.7017 15.3878 13.3336 15.3344L10.4798 14.9198L9.20378 12.3334C9.03936 12 8.70024 11.7891 8.3283 11.7891C7.95637 11.7891 7.61686 12 7.45245 12.3334L6.17567 14.9198L3.32151 15.3344C2.95377 15.3878 2.64822 15.6453 2.53339 15.999C2.41819 16.3526 2.51394 16.7405 2.78021 16.9999L4.8451 19.0137L4.35797 21.8557C4.29502 22.2219 4.4457 22.5919 4.7463 22.8105C5.0469 23.0291 5.44554 23.0581 5.77474 22.8853L8.32792 21.5436L10.8807 22.8853C11.2118 23.0592 11.6101 23.0279 11.9092 22.8105C12.2098 22.5923 12.3604 22.2219 12.2975 21.8557L11.81 19.0137L13.8753 16.9999C14.1415 16.7405 14.2369 16.3526 14.1221 15.999ZM10.0789 17.9738C9.84884 18.1981 9.74394 18.5212 9.79811 18.8379L10.0381 20.2356L8.78225 19.576C8.49806 19.4265 8.15817 19.4265 7.87397 19.576L6.61703 20.2359L6.85697 18.8379C6.91152 18.5212 6.80624 18.1981 6.57621 17.9738L5.55998 16.9828L6.96455 16.7791C7.28231 16.7329 7.55735 16.533 7.69964 16.245L8.32754 14.9728L8.95506 16.2446C9.09735 16.533 9.37239 16.7329 9.69053 16.7791L11.0947 16.9828L10.0789 17.9738Z" fill="#4B286D"/>
<path d="M29.2793 41.3882C28.8284 41.0918 28.223 41.2173 27.927 41.6682C27.6306 42.1187 27.7561 42.7241 28.207 43.0205C29.1099 43.6137 29.8317 44.4407 30.294 45.4119C30.5252 45.8983 31.1073 46.1062 31.5952 45.8739C32.0823 45.6423 32.2891 45.0594 32.0575 44.5727C31.4418 43.2787 30.4809 42.1774 29.2793 41.3882Z" fill="#4B286D"/>
</svg>
