<svg width="30" height="30" viewBox="0 0 30 30" fill="none" xmlns="http://www.w3.org/2000/svg">
<path d="M29.596 14.4231C29.596 14.3654 29.596 14.3654 29.596 14.3077C29.596 14.25 29.5383 14.1923 29.4807 14.1346L26.4807 11.1346C26.3076 10.9615 25.9614 10.9615 25.7883 11.1346C25.673 11.25 25.6153 11.3654 25.6153 11.4808C25.6153 11.5962 25.673 11.7115 25.7883 11.8269L27.923 13.9615H24.1153C20.3653 13.9615 17.1922 16.0962 15.5768 19.2115V4.67308L17.7114 6.80769C17.7691 6.92308 17.8845 6.92308 17.9999 6.92308C18.1153 6.92308 18.2883 6.86538 18.346 6.80769C18.4614 6.69231 18.5191 6.57692 18.5191 6.46154C18.5191 6.34615 18.4614 6.23077 18.346 6.11538L15.346 3.11538C15.346 3.11538 15.2883 3.11538 15.2883 3.05769C15.2307 3 15.2307 3 15.173 3C15.1153 3 15.0576 3 15.0576 3H14.9999H14.9422C14.8845 3 14.8268 3 14.8268 3C14.7691 3 14.7691 3.05769 14.7114 3.05769C14.7114 3.05769 14.6537 3.05769 14.6537 3.11538L11.6537 6.11538C11.5383 6.23077 11.4807 6.34615 11.4807 6.46154C11.4807 6.57692 11.5383 6.69231 11.6537 6.80769C11.7691 6.92308 11.8845 6.98077 11.9999 6.92308C12.1153 6.92308 12.2883 6.86538 12.346 6.80769L14.4807 4.67308V19.2692C12.923 16.1538 9.69219 14.0192 5.94219 14.0192H2.1345L4.26912 11.8846C4.3845 11.7692 4.44219 11.6538 4.44219 11.5385C4.44219 11.4231 4.3845 11.3077 4.26912 11.1923C4.09604 11.0192 3.74989 11.0192 3.57681 11.1923L0.57681 14.1346C0.519118 14.1923 0.519118 14.25 0.461426 14.3077C0.461426 14.3654 0.461426 14.3654 0.461426 14.4231V14.4808C0.461426 14.5385 0.461426 14.5385 0.461426 14.5962V14.6538C0.461426 14.7115 0.519118 14.7692 0.57681 14.8269L3.57681 17.8846C3.74989 18.0577 4.09604 18.0577 4.26912 17.8846C4.44219 17.7115 4.44219 17.3654 4.26912 17.1923L2.1345 15H5.94219C10.4422 15 14.1345 18.4615 14.4807 22.9038V26.5962C14.4807 26.8846 14.7114 27.1154 14.9999 27.1154C15.2883 27.1154 15.5191 26.8846 15.5191 26.5962V22.9038C15.8653 18.4615 19.5576 15 24.0576 15H27.8653L25.7307 17.1346C25.5576 17.3077 25.5576 17.6538 25.7307 17.8269C25.9037 18 26.2499 18 26.423 17.8269L29.423 14.8269C29.4807 14.7692 29.4807 14.7115 29.5383 14.6538V14.5962C29.5383 14.5385 29.5383 14.5385 29.5383 14.4808C29.596 14.4808 29.596 14.4231 29.596 14.4231Z" fill="#6E3BA1"/>
</svg>
