<svg width="30" height="30" viewBox="0 0 30 30" fill="none" xmlns="http://www.w3.org/2000/svg">
<path d="M28.5938 23.1389L29.0268 22.8889L28.5938 23.1389C29.1205 24.051 29.1205 25.1342 28.5938 26.0464C28.0671 26.9585 27.129 27.5001 26.0757 27.5001H3.92279C2.86948 27.5001 1.93141 26.9585 1.40475 26.0464C0.878106 25.1342 0.878099 24.051 1.40476 23.1388L12.4812 3.95376C13.0078 3.04167 13.946 2.5 14.9993 2.5C16.0526 2.5 16.9907 3.04167 17.5173 3.95376L23.0556 13.5463L28.5938 23.1389Z" stroke="#6E3BA1"/>
<path fill-rule="evenodd" clip-rule="evenodd" d="M14.1444 10H16.0385V19.4704H14.1444V10ZM13.8281 22.6273C13.8281 21.931 14.3946 21.3645 15.0909 21.3645C15.7871 21.3645 16.3536 21.931 16.3536 22.6273C16.3536 23.3235 15.7871 23.89 15.0909 23.89C14.3946 23.89 13.8281 23.3235 13.8281 22.6273Z" fill="#6E3BA1"/>
</svg>
