<?xml version="1.0" encoding="utf-8"?>
<!-- Generator: Adobe Illustrator 28.0.0, SVG Export Plug-In . SVG Version: 6.00 Build 0)  -->
<svg version="1.1" id="Layer_1" xmlns="http://www.w3.org/2000/svg" xmlns:xlink="http://www.w3.org/1999/xlink" x="0px" y="0px"
	 viewBox="0 0 150 150" style="enable-background:new 0 0 150 150;" xml:space="preserve">
<style type="text/css">
	.st0{fill:#4B286D;}
</style>
<g>
	<g>
		<g>
			<g>
				<g>
					<g>
						<g>
							<g>
								<path class="st0" d="M76.1,150c-0.2,0-0.5-0.1-0.7-0.2l-64.3-35.9c-0.4-0.2-0.7-0.7-0.7-1.2L9.3,39.1c0-0.5,0.2-1,0.7-1.2
									L73.2,0.2c0.4-0.3,1-0.3,1.4,0l64.3,35.9c0.4,0.2,0.7,0.7,0.7,1.2l1.1,73.6c0,0.5-0.2,1-0.7,1.2l-63.2,37.7
									C76.5,149.9,76.3,150,76.1,150z M13.1,111.9L76,147l61.9-36.9l-1-72L74,3L12.1,39.9L13.1,111.9z"/>
							</g>
						</g>
					</g>
				</g>
			</g>
		</g>
	</g>
	<g>
		<g>
			<g>
				<g>
					<g>
						<g>
							<g>
								<g>
									<path class="st0" d="M75,76.4c-0.2,0-0.5-0.1-0.7-0.2L30.6,52.6c-0.4-0.2-0.7-0.7-0.7-1.2c0-0.5,0.2-1,0.7-1.2l42.3-26.1
										c0.4-0.3,0.9-0.3,1.4,0L118,47.7c0.4,0.2,0.7,0.7,0.7,1.2c0,0.5-0.2,1-0.7,1.2L75.7,76.2C75.5,76.3,75.3,76.4,75,76.4z
										 M34,51.3L75,73.4L114.6,49L73.6,26.9L34,51.3z"/>
								</g>
							</g>
						</g>
					</g>
				</g>
			</g>
		</g>
		<g>
			<g>
				<g>
					<g>
						<g>
							<g>
								<g>
									<path class="st0" d="M76.4,126.1c-0.2,0-0.5-0.1-0.7-0.2L32,102.3c-0.4-0.2-0.7-0.7-0.7-1.2l-1.4-49.7c0-0.5,0.2-1,0.7-1.2
										c0.4-0.3,0.9-0.3,1.4,0l43.7,23.6c0.4,0.2,0.7,0.7,0.7,1.2l1.4,49.7c0,0.5-0.2,1-0.7,1.2C76.9,126,76.7,126.1,76.4,126.1z
										 M34,100.2L75,122.3l-1.3-46.5L32.7,53.7L34,100.2z"/>
								</g>
							</g>
						</g>
					</g>
				</g>
			</g>
		</g>
		<g>
			<g>
				<g>
					<g>
						<g>
							<g>
								<g>
									<path class="st0" d="M76.4,126.1c-0.2,0-0.5-0.1-0.7-0.2c-0.4-0.2-0.7-0.7-0.7-1.2L73.6,75c0-0.5,0.2-1,0.7-1.2l42.3-26.1
										c0.4-0.3,0.9-0.3,1.4,0c0.4,0.2,0.7,0.7,0.7,1.2l1.4,49.7c0,0.5-0.2,1-0.7,1.2l-42.3,26.1C76.9,126,76.7,126.1,76.4,126.1z
										 M76.4,75.8l1.3,46.5l39.6-24.4L116,51.4L76.4,75.8z"/>
								</g>
							</g>
						</g>
					</g>
				</g>
			</g>
		</g>
	</g>
	<g>
		<g>
			<g>
				<g>
					<g>
						<g>
							<g>
								<path class="st0" d="M139.3,112.3c-0.2,0-0.5-0.1-0.7-0.2L74.3,76.2c-0.4-0.2-0.7-0.7-0.7-1.2L72.6,1.4
									c0-0.8,0.6-1.4,1.4-1.4c0.8,0,1.4,0.6,1.4,1.4l1,72.8l63.6,35.5c0.7,0.4,0.9,1.2,0.5,1.9C140.2,112,139.8,112.3,139.3,112.3
									z"/>
							</g>
						</g>
					</g>
				</g>
			</g>
		</g>
	</g>
	<g>
		<g>
			<g>
				<g>
					<g>
						<g>
							<g>
								<path class="st0" d="M11.8,114.1c-0.5,0-0.9-0.2-1.2-0.7c-0.4-0.7-0.2-1.5,0.5-1.9l63.2-37.7c0.7-0.4,1.5-0.2,1.9,0.5
									c0.4,0.7,0.2,1.5-0.5,1.9l-63.2,37.7C12.3,114,12,114.1,11.8,114.1z"/>
							</g>
						</g>
					</g>
				</g>
			</g>
		</g>
	</g>
</g>
</svg>
