<?xml version="1.0" encoding="UTF-8"?>
<svg id="Layer_1" data-name="Layer 1" xmlns="http://www.w3.org/2000/svg" viewBox="0 0 115.22 115.21">
  <defs>
    <style>
      .cls-1 {
        fill: #4b286d;
      }
    </style>
  </defs>
  <path class="cls-1" d="m63.47,109.22c-5.02.79-10.22,1.19-15.47,1.19-25.46,0-43.2-8.86-43.2-16.8v-14.49c7.7,7.21,23.93,12.09,43.2,12.09,2.53,0,5-.11,7.43-.27,1.32-.09,2.32-1.23,2.23-2.55s-1.15-2.33-2.56-2.24c-2.32.16-4.68.26-7.1.26-25.46,0-43.2-8.86-43.2-16.8v-14.49c7.7,7.21,23.93,12.09,43.2,12.09,7.28,0,14.3-.7,20.88-2.09,1.3-.28,2.13-1.55,1.85-2.85-.27-1.3-1.53-2.1-2.85-1.85-6.25,1.32-12.94,1.99-19.88,1.99-25.46,0-43.2-8.86-43.2-16.8v-14.49c7.7,7.21,23.93,12.09,43.2,12.09s35.51-4.88,43.2-12.09v14.49c0,3.1-2.56,5.7-4.7,7.34-1.05.81-1.25,2.31-.45,3.37.48.62,1.19.94,1.91.94.5,0,1.02-.16,1.45-.49.68-.51,1.21-1.07,1.79-1.61v.84c0,1.32,1.08,2.4,2.4,2.4s2.4-1.08,2.4-2.4V21.6C96.01,9.49,74.92,0,48,0S0,9.49,0,21.6v72.01c0,12.11,21.09,21.6,48,21.6,5.49,0,10.95-.42,16.21-1.24,1.31-.21,2.2-1.44,2-2.74s-1.43-2.18-2.74-2ZM48,4.8c25.46,0,43.2,8.86,43.2,16.8s-17.74,16.8-43.2,16.8S4.8,29.55,4.8,21.6c0-7.94,17.74-16.8,43.2-16.8Zm65.72,76.05c-.22-.63-.68-1.15-1.29-1.42-.61-.27-1.31-.28-1.92-.02-1.15.47-2.41.1-3-.93s-.3-2.31.7-3.06c.54-.4.88-1.01.95-1.68s-.14-1.33-.59-1.83c-3.92-4.45-8.96-7.4-14.59-8.52-.66-.14-1.35.02-1.9.42-.55.4-.89,1.01-.96,1.69-.12,1.24-1.12,2.17-2.31,2.17s-2.19-.93-2.31-2.17c-.07-.68-.42-1.29-.96-1.69-.55-.4-1.24-.57-1.9-.42-5.63,1.12-10.67,4.06-14.59,8.52-.44.5-.65,1.16-.59,1.83s.41,1.27.95,1.68c1,.75,1.29,2.04.7,3.06-.59,1.03-1.85,1.4-3,.93-.62-.26-1.32-.25-1.92.02-.61.27-1.08.79-1.29,1.42-1,2.96-1.49,5.72-1.49,8.43s.49,5.47,1.49,8.42c.22.63.68,1.15,1.29,1.42.6.28,1.31.28,1.92.02,1.15-.48,2.4-.09,3,.93.59,1.03.3,2.31-.7,3.06-.54.4-.88,1.01-.95,1.68-.07.67.14,1.33.59,1.83,3.92,4.45,8.96,7.4,14.59,8.52.66.14,1.35-.02,1.89-.42.55-.4.89-1.01.96-1.69.12-1.24,1.12-2.17,2.31-2.17s2.19.93,2.31,2.17c.07.68.42,1.29.96,1.69.42.31.92.47,1.43.47.15,0,.31-.01.48-.04,5.63-1.11,10.67-4.06,14.59-8.52.44-.5.65-1.16.59-1.83s-.41-1.27-.95-1.68c-.99-.75-1.29-2.04-.7-3.06.6-1.02,1.86-1.4,3-.93.61.26,1.31.25,1.92-.02.61-.27,1.08-.79,1.29-1.42,1-2.96,1.49-5.71,1.49-8.43s-.49-5.47-1.49-8.43Zm-3.96,13.31c-2.65-.17-5.08,1.21-6.41,3.52s-1.2,5.12.15,7.31c-2.43,2.3-5.29,3.98-8.39,4.94-1.2-2.31-3.59-3.85-6.31-3.85s-5.11,1.54-6.3,3.85c-3.11-.96-5.96-2.64-8.39-4.94,1.35-2.19,1.48-4.99.14-7.31s-3.8-3.69-6.41-3.52c-.43-1.7-.64-3.3-.64-4.88s.21-3.18.64-4.88c2.62.18,5.08-1.2,6.41-3.52,1.34-2.31,1.21-5.12-.14-7.31,2.43-2.3,5.28-3.98,8.39-4.94,1.2,2.31,3.59,3.85,6.31,3.85s5.11-1.54,6.31-3.85c3.11.96,5.95,2.64,8.39,4.94-1.35,2.19-1.48,4.99-.14,7.31,1.33,2.32,3.86,3.7,6.41,3.52.43,1.7.64,3.31.64,4.88,0,1.57-.21,3.18-.64,4.88Zm-20.96-16.88c-6.62,0-12,5.38-12,12s5.39,12,12,12,12-5.38,12-12-5.39-12-12-12Zm0,19.2c-3.97,0-7.2-3.23-7.2-7.2s3.23-7.2,7.2-7.2,7.2,3.23,7.2,7.2-3.23,7.2-7.2,7.2Z"/>
</svg>