<?xml version="1.0" encoding="UTF-8"?>
<svg width="103px" height="90px" viewBox="0 0 103 90" version="1.1" xmlns="http://www.w3.org/2000/svg" xmlns:xlink="http://www.w3.org/1999/xlink">
    <title>industry / icon-ecommerce@2x</title>
    <g id="industry-/-icon-ecommerce" stroke="none" stroke-width="1" fill="none" fill-rule="evenodd">
        <path d="M41.1428571,64.2857143 C45.4628571,64.2857143 48.8571429,67.68 48.8571429,72 C48.8571429,76.32 45.4628571,79.7142857 41.1428571,79.7142857 C36.8228571,79.7142857 33.4285714,76.32 33.4285714,72 C33.4285714,67.68 36.8228571,64.2857143 41.1428571,64.2857143 Z M70.7142857,64.2857143 C75.0342857,64.2857143 78.4285714,67.68 78.4285714,72 C78.4285714,76.32 75.0342857,79.7142857 70.7142857,79.7142857 C66.3942857,79.7142857 63,76.32 63,72 C63,67.68 66.3942857,64.2857143 70.7142857,64.2857143 Z M41.1428571,67.3714286 C38.6742857,67.3714286 36.5142857,69.5314286 36.5142857,72 C36.5142857,74.4685714 38.6742857,76.6285714 41.1428571,76.6285714 C43.6114286,76.6285714 45.7714286,74.4685714 45.7714286,72 C45.7714286,69.5314286 43.6114286,67.3714286 41.1428571,67.3714286 Z M70.7142857,67.3714286 C68.2457143,67.3714286 66.0857143,69.5314286 66.0857143,72 C66.0857143,74.4685714 68.2457143,76.6285714 70.7142857,76.6285714 C73.1828571,76.6285714 75.3428571,74.4685714 75.3428571,72 C75.3428571,69.5314286 73.1828571,67.3714286 70.7142857,67.3714286 Z M26.0285714,12.8571429 C26.6342857,12.8571429 27.5428571,13.4678571 27.5428571,14.0785714 L27.5428571,14.0785714 L29.0571429,22.0178571 L56.3142857,22.0178571 C57.2228571,22.0178571 57.8285714,22.6285714 57.8285714,23.5446429 C57.8285714,24.4607143 57.2228571,25.0714286 56.3142857,25.0714286 L56.3142857,25.0714286 L29.6628571,25.0714286 L35.1142857,52.5535714 L79.3314286,46.7517857 L80.5428571,38.8125 C80.8457143,37.8964286 81.4514286,37.5910714 82.36,37.5910714 C83.2685714,37.8964286 83.5714286,38.5071429 83.5714286,38.8125 L83.5714286,38.8125 L82.0571429,47.9732143 C82.0571429,48.5839286 81.4514286,49.1946429 80.8457143,49.1946429 L80.8457143,49.1946429 L36.6285714,55.3017857 C37.84,57.4392857 40.2628571,58.6607143 42.6857143,58.6607143 L42.6857143,58.6607143 L77.2114286,58.6607143 C78.12,58.6607143 78.7257143,59.2714286 78.7257143,60.1875 C78.7257143,61.1035714 78.12,61.7142857 77.2114286,61.7142857 L77.2114286,61.7142857 L42.3828571,61.7142857 C37.5371429,61.7142857 32.9942857,58.05 32.0857143,53.1642857 L32.0857143,53.1642857 L24.8171429,15.9107143 L16.9428571,15.9107143 C16.0342857,15.9107143 15.4285714,15.3 15.4285714,14.3839286 C15.4285714,13.4678571 16.0342857,12.8571429 16.9428571,12.8571429 L16.9428571,12.8571429 Z M73.9285714,10.2857143 C81.4285714,10.2857143 87.4285714,16.2857143 87.4285714,23.7857143 C87.4285714,31.2857143 81.4285714,37.2857143 73.9285714,37.2857143 C66.4285714,37.2857143 60.4285714,31.2857143 60.4285714,23.7857143 C60.4285714,16.2857143 66.4285714,10.2857143 73.9285714,10.2857143 Z M76.6285714,28.2857143 L71.2285714,28.2857143 C71.8285714,32.1857143 73.3285714,34.2857143 73.9285714,34.2857143 C74.5285714,34.2857143 76.0285714,32.1857143 76.6285714,28.2857143 L76.6285714,28.2857143 Z M68.5285714,28.2857143 L64.6285714,28.2857143 C65.5285714,30.3857143 67.3285714,32.1857143 69.7285714,33.3857143 C69.1285714,31.8857143 68.8285714,30.0857143 68.5285714,28.2857143 L68.5285714,28.2857143 Z M83.2285714,28.2857143 L79.3285714,28.2857143 C79.3285714,30.0857143 78.7285714,31.8857143 78.1285714,33.3857143 C80.5285714,32.1857143 82.3285714,30.3857143 83.2285714,28.2857143 L83.2285714,28.2857143 Z M68.2285714,22.2857143 L63.7285714,22.2857143 C63.4285714,22.8857143 63.4285714,23.1857143 63.4285714,23.7857143 C63.4285714,24.3857143 63.7285714,24.6857143 63.7285714,25.2857143 L63.7285714,25.2857143 L68.2285714,25.2857143 L68.2285714,25.2857143 L68.2285714,22.2857143 Z M76.9285714,22.2857143 L70.9285714,22.2857143 L70.9285714,22.2857143 L70.9285714,25.2857143 L76.9285714,25.2857143 L76.9285714,25.2857143 L76.9285714,22.2857143 Z M84.4285714,22.2857143 L79.9285714,22.2857143 L79.9285714,22.2857143 L79.9285714,25.2857143 L84.1285714,25.2857143 C84.4285714,24.6857143 84.4285714,24.3857143 84.4285714,23.7857143 L84.4285714,23.7857143 L84.4285714,22.2857143 Z M78.1285714,14.1857143 C78.7285714,15.6857143 79.0285714,17.4857143 79.3285714,19.2857143 L79.3285714,19.2857143 L83.2285714,19.2857143 C82.3285714,17.1857143 80.5285714,15.3857143 78.1285714,14.1857143 Z M73.9285714,13.2857143 C73.3285714,13.2857143 71.8285714,15.3857143 71.2285714,19.2857143 L71.2285714,19.2857143 L76.6285714,19.2857143 C76.0285714,15.3857143 74.5285714,13.2857143 73.9285714,13.2857143 Z M69.4285714,14.1857143 C67.3285714,15.3857143 65.5285714,17.1857143 64.3285714,19.2857143 L64.3285714,19.2857143 L68.2285714,19.2857143 C68.5285714,17.4857143 68.8285714,15.6857143 69.4285714,14.1857143 Z" id="Combined-Shape" fill="#248700" fill-rule="nonzero"></path>
    </g>
</svg>