<?xml version="1.0" encoding="UTF-8"?>
<svg width="103px" height="90px" viewBox="0 0 103 90" version="1.1" xmlns="http://www.w3.org/2000/svg" xmlns:xlink="http://www.w3.org/1999/xlink">
    <title>industry / icon-communications@2x</title>
    <g id="industry-/-icon-communications" stroke="none" stroke-width="1" fill="none" fill-rule="evenodd">
        <path d="M51.4285714,46.2342857 C50.0564571,46.2342857 48.9428571,47.3402057 48.9428571,48.7028571 C48.9428571,50.0655086 50.0564571,51.1714286 51.4285714,51.1714286 C52.8006857,51.1714286 53.9142857,50.0655086 53.9142857,48.7028571 C53.9142857,47.3402057 52.8006857,46.2342857 51.4285714,46.2342857 Z M44.3964857,44.1903086 C43.9117714,44.67168 43.9117714,45.4542171 44.3964857,45.9355886 C44.8812,46.41696 45.6691714,46.41696 46.1538857,45.9355886 C49.0621714,43.04736 53.7924857,43.04736 56.7007714,45.9355886 C56.9443714,46.17504 57.2625429,46.296 57.5807143,46.296 C57.8988857,46.296 58.2170571,46.1775086 58.4581714,45.9355886 C58.9428857,45.4542171 58.9428857,44.67168 58.4581714,44.1903086 C54.5829429,40.3368686 48.2742,40.3368686 44.3964857,44.1903086 Z M51.4285714,31.4228571 C46.1166,31.4228571 41.1228,33.4767086 37.3668857,37.20672 C36.8821714,37.6880914 36.8821714,38.4706286 37.3668857,38.952 C37.8516,39.4333714 38.6395714,39.4333714 39.1242857,38.952 C42.4128857,35.6885486 46.7802857,33.8914286 51.4285714,33.8914286 C56.0768571,33.8914286 60.4442571,35.6885486 63.7303714,38.9544686 C63.9739714,39.19392 64.2921429,39.31488 64.6103143,39.31488 C64.9284857,39.31488 65.2466571,39.19392 65.4902571,38.952 C65.9749714,38.4706286 65.9749714,37.6880914 65.4902571,37.20672 C61.7343429,33.4767086 56.7405429,31.4228571 51.4285714,31.4228571 Z M51.4285714,36.36 C47.4439714,36.36 43.7004857,37.9028571 40.8816857,40.6997486 C40.3969714,41.18112 40.3969714,41.9636571 40.8816857,42.4450286 C41.3664,42.9264 42.1543714,42.9264 42.6390857,42.4450286 C44.9880857,40.1122286 48.1101429,38.8285714 51.4285714,38.8285714 C54.747,38.8285714 57.8690571,40.1122286 60.2155714,42.4450286 C60.4591714,42.68448 60.7773429,42.80544 61.0955143,42.80544 C61.4136857,42.80544 61.7318571,42.6869486 61.9754571,42.4450286 C62.4601714,41.9636571 62.4601714,41.18112 61.9754571,40.6997486 C59.1566571,37.9028571 55.4131714,36.36 51.4285714,36.36 Z M84.9857143,14.1428571 L17.8714286,14.1428571 C15.8157429,14.1428571 14.1428571,15.8042057 14.1428571,17.8457143 L14.1428571,62.28 C14.1428571,64.3215086 15.8157429,65.9828571 17.8714286,65.9828571 L46.4571429,65.9828571 L46.4571429,68.7229714 L27.5135143,73.4256 C26.8473429,73.5909943 26.4421714,74.2599771 26.6087143,74.9215543 C26.7727714,75.5831314 27.4439143,75.9756343 28.1150571,75.8201143 L47.8516286,70.92 L55.0030286,70.92 L74.7396,75.8201143 C74.8415143,75.8448 74.9434286,75.8571429 75.0428571,75.8571429 C75.6021429,75.8571429 76.1067429,75.4843886 76.2484286,74.9215543 C76.4149714,74.2624457 76.0098,73.5909943 75.3436286,73.4256 L56.4,68.7229714 L56.4,65.9828571 L84.9857143,65.9828571 C87.0414,65.9828571 88.7142857,64.3215086 88.7142857,62.28 L88.7142857,17.8457143 C88.7142857,15.8042057 87.0414,14.1428571 84.9857143,14.1428571 Z M53.9142857,68.4514286 L48.9428571,68.4514286 L48.9428571,65.9828571 L53.9142857,65.9828571 L53.9142857,68.4514286 Z M86.2285714,62.28 C86.2285714,62.9588571 85.6717714,63.5142857 84.9857143,63.5142857 L17.8714286,63.5142857 C17.1853714,63.5142857 16.6285714,62.9588571 16.6285714,62.28 L16.6285714,17.8457143 C16.6285714,17.1643886 17.1853714,16.6114286 17.8714286,16.6114286 L84.9857143,16.6114286 C85.6717714,16.6114286 86.2285714,17.1643886 86.2285714,17.8457143 L86.2285714,62.28 Z" id="Shape" fill="#248700" fill-rule="nonzero"></path>
    </g>
</svg>