<?xml version="1.0" encoding="UTF-8"?>
<svg width="103px" height="90px" viewBox="0 0 103 90" version="1.1" xmlns="http://www.w3.org/2000/svg" xmlns:xlink="http://www.w3.org/1999/xlink">
    <title>industry / icon-healthcare@2x</title>
    <g id="industry-/-icon-healthcare" stroke="none" stroke-width="1" fill="none" fill-rule="evenodd">
        <path d="M32.2662857,49.7045455 L51.4083214,71.8042208 L66.2342143,54.1081169 C66.7520357,53.4915584 67.6690714,53.4214286 68.2736786,53.9357143 C68.8840714,54.4587662 68.9592857,55.3792208 68.4443571,55.9957792 L52.5336429,74.9892857 C52.2588214,75.3165584 51.8914286,75.4743506 51.4285714,75.5064935 C51.0091071,75.5064935 50.6156786,75.3253247 50.3408571,75.0068182 L30.0908571,51.6301948 C29.5614643,51.0224026 29.6251071,50.1019481 30.2268214,49.5672078 C30.82275,49.0353896 31.7368929,49.0967532 32.2662857,49.7045455 Z M63.015205,28.1103896 C63.6111056,28.1135894 64.1779379,28.4613137 64.4075776,29.0281919 L74.6832298,54.8591375 L79.1481242,43.6413773 C79.3661366,43.0861873 79.9039006,42.7238528 80.4968944,42.7238528 L83.4037267,42.7238528 C84.2060124,42.7238528 84.8571429,43.3783926 84.8571429,44.1848791 C84.8571429,44.9913657 84.2060124,45.6459055 83.4037267,45.6459055 L81.4823106,45.6459055 L76.032,59.3386443 C75.5959752,60.4490243 73.7733913,60.4490243 73.3344596,59.3386443 L63.1808944,33.8232803 L58.6229814,47.5715382 C58.4224099,48.1617928 57.867205,48.5650361 57.242236,48.5650361 L55.4719752,48.5650361 L52.8412919,59.1457888 C52.6872298,59.7594199 52.1581863,60.2064939 51.5303106,60.2503247 C51.4925217,60.2532468 51.4605466,60.2532468 51.4285714,60.2532468 C50.8384845,60.2532468 50.3007205,59.8909122 50.0798012,59.3357222 L39.3768447,32.4440715 L29.3075776,45.0965596 C29.0343354,45.4413618 28.6157516,45.6429834 28.173913,45.6429834 L19.4534161,45.6429834 C18.6511304,45.6429834 18,44.9884436 18,44.1819571 C18,43.3754705 18.6511304,42.7209307 19.4534161,42.7209307 L27.4762733,42.7209307 L38.6675776,28.6570912 C38.990236,28.2509259 39.5018385,28.0522263 40.0163478,28.1252776 C40.5279503,28.201251 40.9610683,28.5460532 41.1529193,29.0281919 L51.1117267,54.052651 L52.9284969,46.7475193 C53.0854658,46.0988236 53.6697391,45.6429834 54.3354037,45.6429834 L56.1957764,45.6429834 L61.6780621,29.1100094 C61.869913,28.5285209 62.4047702,28.1311217 63.015205,28.1103896 Z M67.3392857,14.1428571 C76.91175,14.1428571 84.6964286,22.0061688 84.6964286,31.6753247 C84.6964286,34.4688312 84.0513214,37.1483766 82.7871429,39.6467532 C82.5296786,40.1522727 82.0234286,40.4415584 81.4998214,40.4415584 C81.2770714,40.4415584 81.0514286,40.388961 80.8373571,40.2808442 C80.1286071,39.9126623 79.8451071,39.0331169 80.2096071,38.3142857 C81.2655,36.2337662 81.8035714,33.9983766 81.8035714,31.6753247 C81.8035714,23.6191558 75.3148929,17.0649351 67.3392857,17.0649351 C59.3636786,17.0649351 52.875,23.6191558 52.875,31.6753247 C52.875,32.4818182 52.227,33.1363636 51.4285714,33.1363636 C50.6301429,33.1363636 49.9821429,32.4818182 49.9821429,31.6753247 C49.9821429,23.6191558 43.4934643,17.0649351 35.5178571,17.0649351 C27.54225,17.0649351 21.0535714,23.6191558 21.0535714,31.6753247 C21.0535714,33.9983766 21.5916429,36.2337662 22.6475357,38.3142857 C23.0120357,39.0331169 22.7285357,39.9126623 22.0197857,40.2808442 C21.3110357,40.6519481 20.4373929,40.3685065 20.07,39.6467532 C18.8058214,37.1483766 18.1607143,34.4688312 18.1607143,31.6753247 C18.1607143,22.0061688 25.9453929,14.1428571 35.5178571,14.1428571 C42.6227143,14.1428571 48.7468929,18.4792208 51.4285714,24.6711039 C54.11025,18.4792208 60.2344286,14.1428571 67.3392857,14.1428571 Z" id="Combined-Shape" fill="#248700" fill-rule="nonzero"></path>
    </g>
</svg>