<svg width="29" height="24" viewBox="0 0 29 24" fill="none" xmlns="http://www.w3.org/2000/svg">
<g id="Icon_Megaphone">
<path d="M0.131972 13.304C-0.41765 11.2528 0.799633 9.14435 2.85085 8.59473L6.56491 7.59956L8.8396 16.0888L5.12554 17.084C3.07433 17.6336 0.96593 16.4163 0.416309 14.3651L0.131972 13.304Z" fill="white"/>
<path d="M7.62606 7.31522L14.3165 3.60114C14.9413 3.25424 15.7259 3.58696 15.9108 4.27731L18.5945 14.293C18.7795 14.9834 18.2665 15.6638 17.5518 15.6758L9.90076 15.8045L7.62606 7.31522Z" fill="white"/>
<path d="M16.6078 2.63387C16.4508 2.04781 16.7986 1.44541 17.3846 1.28838C17.9707 1.13134 18.5731 1.47914 18.7301 2.0652L22.1422 14.7991C22.2992 15.3852 21.9514 15.9876 21.3654 16.1446C20.7793 16.3016 20.1769 15.9538 20.0199 15.3678L16.6078 2.63387Z" fill="white"/>
<path d="M22.4874 7.59819C22.3696 7.15864 22.6305 6.70684 23.07 6.58907L26.7841 5.59389C27.2236 5.47611 27.6754 5.73696 27.7932 6.1765C27.911 6.61605 27.6501 7.06785 27.2106 7.18563L23.4965 8.1808C23.057 8.29858 22.6052 8.03773 22.4874 7.59819Z" fill="white"/>
<path d="M21.5109 3.34862C21.1891 3.02685 21.1891 2.50515 21.5109 2.18338L23.4529 0.241328C23.7747 -0.0804426 24.2964 -0.0804426 24.6182 0.241328C24.9399 0.563098 24.9399 1.08479 24.6182 1.40656L22.6761 3.34862C22.3543 3.67039 21.8327 3.67039 21.5109 3.34862Z" fill="white"/>
<path d="M23.9941 11.6296C23.8763 12.0691 24.1372 12.5209 24.5767 12.6387L27.2296 13.3495C27.6692 13.4673 28.121 13.2065 28.2387 12.7669C28.3565 12.3274 28.0957 11.8756 27.6561 11.7578L25.0032 11.047C24.5637 10.9292 24.1119 11.19 23.9941 11.6296Z" fill="white"/>
<path d="M9.12393 17.15L5.94046 18.003L7.21997 22.7782C7.45553 23.6573 8.35912 24.179 9.23822 23.9434C10.1173 23.7079 10.639 22.8043 10.4034 21.9252L10.1191 20.864L11.7109 20.4375C12.883 20.1235 13.5786 18.9187 13.2645 17.7465L12.9802 16.6854L11.2463 16.5813L11.5306 17.6425C11.6876 18.2285 11.3398 18.8309 10.7538 18.988L9.69261 19.2723L9.12393 17.15Z" fill="white"/>
</g>
</svg>
