<?xml version="1.0" encoding="UTF-8"?>
<svg width="103px" height="90px" viewBox="0 0 103 90" version="1.1" xmlns="http://www.w3.org/2000/svg" xmlns:xlink="http://www.w3.org/1999/xlink">
    <title>industry / icon-tech@2x</title>
    <g id="industry-/-icon-tech" stroke="none" stroke-width="1" fill="none" fill-rule="evenodd">
        <g id="smart-devices.3" transform="translate(17.000000, 11.000000)" fill="#248700" fill-rule="nonzero">
            <path d="M25.728,17.8666667 L25.7056667,17.8666667 C25.7012,17.8666667 25.6989667,17.8689 25.6945,17.8689 C25.6900333,17.8689 25.6878,17.8666667 25.6833333,17.8666667 C25.0669333,17.8666667 24.5666667,18.3669333 24.5666667,18.9833333 C24.5666667,19.5997333 25.0669333,20.1 25.6833333,20.1 C25.6922667,20.1 25.6967333,20.0955333 25.7056667,20.0955333 C25.7146,20.0955333 25.7190667,20.1 25.728,20.1 C26.3444,20.1 26.8446667,19.5997333 26.8446667,18.9833333 C26.8446667,18.3669333 26.3444,17.8666667 25.728,17.8666667 Z M18.9833333,17.8666667 L14.5166667,17.8666667 C13.9002667,17.8666667 13.4,18.3669333 13.4,18.9833333 C13.4,19.5997333 13.9002667,20.1 14.5166667,20.1 L18.9833333,20.1 C19.5997333,20.1 20.1,19.5997333 20.1,18.9833333 C20.1,18.3669333 19.5997333,17.8666667 18.9833333,17.8666667 Z M16.75,62.5333333 C17.9828,62.5333333 18.9833333,61.5328 18.9833333,60.3 C18.9833333,59.0672 17.9828,58.0666667 16.75,58.0666667 C15.5172,58.0666667 14.5166667,59.0672 14.5166667,60.3 C14.5166667,61.5328 15.5172,62.5333333 16.75,62.5333333 Z M61.4166667,0 L23.45,0 C20.3724667,0 17.8666667,2.50356667 17.8666667,5.58333333 L17.8666667,10.05 C17.8666667,10.6664 18.3669333,11.1666667 18.9833333,11.1666667 C19.5997333,11.1666667 20.1,10.6664 20.1,10.05 L20.1,5.58333333 C20.1,3.73636667 21.6030333,2.23333333 23.45,2.23333333 L61.4166667,2.23333333 C63.2636333,2.23333333 64.7666667,3.73636667 64.7666667,5.58333333 L64.7666667,61.4166667 C64.7666667,63.2636333 63.2636333,64.7666667 61.4166667,64.7666667 L33.4084333,64.7666667 C32.7920333,64.7666667 32.2917667,65.2669333 32.2917667,65.8833333 C32.2917667,66.4997333 32.7920333,67 33.4084333,67 L61.4166667,67 C64.4942,67 67,64.4964333 67,61.4166667 L67,5.58333333 C67,2.50356667 64.4942,0 61.4166667,0 Z M40.2,61.4166667 C40.2,62.6494667 41.2005333,63.65 42.4333333,63.65 C43.6661333,63.65 44.6666667,62.6494667 44.6666667,61.4166667 C44.6666667,60.1838667 43.6661333,59.1833333 42.4333333,59.1833333 C41.2005333,59.1833333 40.2,60.1838667 40.2,61.4166667 Z M62.5333333,56.95 L62.5333333,5.58333333 C62.5333333,4.96693333 62.0330667,4.46666667 61.4166667,4.46666667 L23.45,4.46666667 C22.8336,4.46666667 22.3333333,4.96693333 22.3333333,5.58333333 L22.3333333,10.05 C22.3333333,10.6664 22.8336,11.1666667 23.45,11.1666667 C24.0664,11.1666667 24.5666667,10.6664 24.5666667,10.05 L24.5666667,6.7 L60.3,6.7 L60.3,55.8333333 L36.85,55.8333333 C36.2336,55.8333333 35.7333333,56.3336 35.7333333,56.95 C35.7333333,57.5664 36.2336,58.0666667 36.85,58.0666667 L61.4166667,58.0666667 C62.0330667,58.0666667 62.5333333,57.5664 62.5333333,56.95 Z M33.5,23.45 C33.5,17.9091 28.9909,13.4 23.45,13.4 L10.05,13.4 C4.5091,13.4 0,17.9091 0,23.45 L0,56.95 C0,62.4909 4.5091,67 10.05,67 L23.45,67 C28.9909,67 33.5,62.4909 33.5,56.95 L33.5,23.45 Z M31.2666667,56.95 C31.2666667,61.2603333 27.7603333,64.7666667 23.45,64.7666667 L10.05,64.7666667 C5.73966667,64.7666667 2.23333333,61.2603333 2.23333333,56.95 L2.23333333,55.8333333 L31.2666667,55.8333333 L31.2666667,56.95 Z M31.2666667,53.6 L2.23333333,53.6 L2.23333333,23.45 C2.23333333,19.1396667 5.73966667,15.6333333 10.05,15.6333333 L23.45,15.6333333 C27.7603333,15.6333333 31.2666667,19.1396667 31.2666667,23.45 L31.2666667,53.6 Z" id="Shape"></path>
        </g>
    </g>
</svg>