<svg width="30" height="30" viewBox="0 0 30 30" fill="none" xmlns="http://www.w3.org/2000/svg">
<path d="M18.4425 20.4275L14.9987 19.5675L14.7438 18.5462C15.6563 17.6137 16.2862 16.3637 16.4962 15.0738C17.0325 14.8813 17.4387 14.4 17.5137 13.8063L17.745 11.9588C17.8 11.5213 17.665 11.0813 17.3763 10.75C17.2338 10.5863 17.06 10.4563 16.8675 10.3663L16.945 8.80375L17.2487 8.49875C17.81 7.9025 18.2762 6.88375 17.3162 5.41875C16.5912 4.31125 15.3688 3.75 13.68 3.75C13.0288 3.75 11.535 3.75 10.1275 4.6775C6.07 4.77875 5.54375 6.785 5.54375 8.5325C5.54375 8.93 5.63125 9.7625 5.6975 10.3363C5.4825 10.4263 5.28875 10.5625 5.13125 10.7413C4.83625 11.0738 4.7 11.5175 4.755 11.9588L4.98625 13.8063C5.065 14.4413 5.52375 14.9475 6.115 15.1087C6.32375 16.345 6.92125 17.5513 7.7775 18.4625L7.50125 19.5675L4.0575 20.4275C1.6675 21.0237 0 23.1613 0 25.625C0 25.7913 0.065 25.9513 0.1825 26.0675C0.3 26.1838 0.46 26.25 0.625 26.25L21.875 26.2475C22.22 26.2475 22.5 25.9675 22.5 25.6225C22.5 23.1612 20.8325 21.0237 18.4425 20.4275ZM1.2975 24.9975C1.54375 23.3825 2.73375 22.0463 4.36125 21.64L8.16875 20.6888C8.3925 20.6325 8.56875 20.4575 8.62375 20.2338L9.07625 18.4213C9.1325 18.2013 9.0625 17.9688 8.8975 17.8138C7.99375 16.9663 7.395 15.7225 7.29625 14.4887C7.27 14.1637 6.99875 13.9137 6.6725 13.9137H6.5225C6.3725 13.9137 6.245 13.8012 6.22625 13.6525L5.995 11.805C5.98 11.6888 6.03375 11.6075 6.0675 11.57C6.10125 11.5325 6.175 11.4688 6.3875 11.4688C6.5675 11.4688 6.7375 11.3925 6.85625 11.2575C6.975 11.1237 7.03 10.9437 7.0075 10.7662C6.94875 10.2962 6.79375 8.9775 6.79375 8.535C6.79375 7.3875 6.79375 5.96125 10.3325 5.92625C10.46 5.925 10.5863 5.885 10.69 5.81C11.685 5.09875 12.76 5.0025 13.6812 5.0025C14.9212 5.0025 15.7925 5.37375 16.2713 6.10625C16.8188 6.9425 16.6125 7.35375 16.3513 7.63125L15.89 8.09375C15.78 8.20375 15.715 8.35 15.7075 8.505L15.595 10.8175C15.5875 10.9875 15.6488 11.1525 15.765 11.2762C15.88 11.4 16.0425 11.4713 16.2125 11.4725C16.33 11.4738 16.4025 11.5375 16.435 11.575C16.4675 11.6125 16.52 11.6912 16.5062 11.8062L16.275 13.6538C16.2563 13.8025 16.1287 13.915 15.9337 13.915C15.6075 13.915 15.3363 14.165 15.31 14.49C15.2088 15.7625 14.5825 17.03 13.6325 17.8813C13.46 18.035 13.3875 18.2725 13.4438 18.4975L13.8775 20.2338C13.9338 20.4575 14.1087 20.6338 14.3325 20.6888L18.14 21.64C19.765 22.0463 20.955 23.3838 21.2025 25L1.2975 24.9975ZM25.9437 20.4262L22.5 19.5662L22.36 19.0138C24.7175 18.5913 25.9413 17.88 25.9963 17.8475C26.1725 17.7437 26.2825 17.5562 26.2975 17.3525C26.3125 17.1487 26.2213 16.9463 26.0625 16.8175C26.0463 16.805 24.4563 15.465 24.4563 10.8438C24.4563 6.75 23.4687 4.675 21.5212 4.675H21.3125C20.6425 4.04375 20.095 3.7725 18.8838 3.755H18.875C18.6425 3.755 18.4338 3.89 18.3263 4.09625C18.2175 4.305 18.2388 4.565 18.3763 4.75625C18.5163 4.95375 18.7488 5.0425 18.9688 5.00625C19.8625 5.03125 20.0875 5.2125 20.6163 5.74125C20.7338 5.8575 20.8925 5.92375 21.0588 5.92375H21.5212C22.5925 5.92375 23.2063 7.7175 23.2063 10.8425C23.2063 14.33 24.0388 16.19 24.66 17.0913C24.0275 17.3413 22.9687 17.6787 21.5025 17.885C21.3275 17.9087 21.17 18.0075 21.0713 18.1537C20.9725 18.3012 20.94 18.4825 20.9838 18.655L21.3775 20.2338C21.4337 20.4575 21.6087 20.6338 21.8325 20.6888L25.64 21.64C27.265 22.0463 28.455 23.3838 28.7025 25H24.375V26.25L29.375 26.2475C29.72 26.2475 30 25.9675 30 25.6225C30 23.1612 28.3325 21.0237 25.9437 20.4262Z" fill="#6E3BA1"/>
</svg>
