<svg width="175" height="100" viewBox="0 0 175 100" fill="none" xmlns="http://www.w3.org/2000/svg">
<path d="M24.122 25C19.759 25 16.319 26.6347 13.2146 29.7365V26.1737H0V74H13.1727V45.8743C13.1727 41.2635 16.9063 37.5749 21.479 37.5749C26.0517 37.5749 29.8273 41.3054 29.8273 45.8743V74H43V46.1677C43 33.509 35.4068 25 24.122 25Z" fill="white"/>
<path d="M79.8564 26V54.1257C79.7725 58.7365 75.9932 62.3832 71.374 62.2994C66.8809 62.2156 63.2695 58.6108 63.1855 54.1257V26H50V53.5808C50 66.6168 58.3984 75 71.374 75C84.1396 75 93 66.1976 93 53.5808V26H79.8564Z" fill="white"/>
<path fill-rule="evenodd" clip-rule="evenodd" d="M132.325 32.3247C142.091 22.5584 157.909 22.5584 167.675 32.3247C177.442 42.091 177.442 57.909 167.675 67.6753C157.909 77.4416 142.091 77.4416 132.325 67.6753C122.558 57.909 122.558 42.091 132.325 32.3247ZM151.649 60.0793L160.038 51.6903C160.121 51.6068 160.163 51.5651 160.246 51.4399C163.418 48.1845 163.335 42.9257 160.038 39.7538C156.782 36.5818 151.523 36.6653 148.351 39.9624L139.962 48.3514C136.874 51.5651 136.874 56.6569 139.962 59.8706C143.134 63.1678 148.351 63.2513 151.649 60.0793Z" fill="white"/>
<path d="M123 25H122.418C109.775 25 101 33.8024 101 46.4192V74H114.017V45.9162C114.017 41.3054 117.843 37.6168 122.376 37.6168H122.958L123 25Z" fill="white"/>
</svg>
