<svg xmlns="http://www.w3.org/2000/svg" width="77" height="68" viewBox="0 0 77 68">
    <g fill="none" fill-rule="evenodd">
        <g fill="#248700" fill-rule="nonzero">
            <g>
                <g>
                    <g>
                        <g>
                            <path d="M61.08 18.624H49.255v-4.992c0-2.752-2.224-4.992-4.959-4.992h-11.9c-2.736 0-4.96 2.24-4.96 4.992v4.992H15.615c-3.324 0-6.027 2.724-6.027 6.07V52.49c0 3.346 2.703 6.07 6.027 6.07H61.08c3.324 0 6.028-2.724 6.028-6.068V24.694c0-3.346-2.704-6.07-6.028-6.07zM29.42 13.632c0-1.651 1.335-2.995 2.975-2.995h11.901c1.64 0 2.975 1.344 2.975 2.995v4.992H45.29v-4.992c0-.551-.444-.998-.992-.998h-11.9c-.548 0-.992.447-.992.998v4.992H29.42v-4.992zm13.884.998v3.994h-9.917V14.63h9.917zM11.57 24.694c0-2.246 1.815-4.073 4.044-4.073h1.805c-.438 3.049-2.82 5.447-5.849 5.888v-1.815zm4.044 31.871c-2.229 0-4.044-1.827-4.044-4.073v-1.817c3.03.44 5.413 2.841 5.851 5.89h-1.807zm5.873 0h-2.082c-.462-4.15-3.713-7.422-7.835-7.887V28.506c4.12-.467 7.37-3.738 7.833-7.885h2.084v15.974h-.991c-.548 0-.992.447-.992.999v3.993c0 .551.444.999.992.999h.991v13.98zm0-17.973c0 .551.445.998.992.998.548 0 .992-.447.992-.998v1.997h-1.984v-1.997zm31.736 17.973H23.47v-13.98h.992c.547 0 .991-.447.991-.998v-3.993c0-.552-.444-.999-.991-.999h-.992V20.621h29.752v15.974h-.992c-.548 0-.992.447-.992.999v3.993c0 .551.444.999.992.999h.992v13.98zm0-17.973c0 .551.444.998.991.998.548 0 .992-.447.992-.998v1.997h-1.983v-1.997zm11.9 13.9c0 2.246-1.815 4.073-4.044 4.073h-1.807c.439-3.05 2.82-5.45 5.851-5.89v1.817zm0-3.814c-4.121.467-7.37 3.74-7.834 7.887h-2.083v-13.98h.992c.547 0 .992-.447.992-.998v-3.993c0-.552-.445-.999-.992-.999h-.992V20.621h2.085c.464 4.147 3.713 7.42 7.832 7.885v20.172zm0-22.169c-3.028-.44-5.41-2.84-5.849-5.888h1.805c2.23 0 4.044 1.827 4.044 4.073v1.815zm-29.751 6.093c-2.188 0-3.967 1.79-3.967 3.993s1.779 3.994 3.967 3.994c2.187 0 3.966-1.791 3.966-3.994 0-2.202-1.779-3.993-3.966-3.993zm0 5.99c-1.095 0-1.984-.897-1.984-1.997s.889-1.997 1.984-1.997c1.094 0 1.983.897 1.983 1.997s-.889 1.997-1.983 1.997zm8.925-1.997c.427 0 .805-.275.94-.683l.992-2.995c.067-.204.067-.425 0-.63l-.992-2.996c-.27-.815-1.61-.815-1.882 0l-.992 2.995c-.067.204-.067.425 0 .631l.992 2.995c.137.408.516.683.942.683zm1.329 9.639l-4.37-1.592c-.507-.19-1.083.08-1.269.6l-1.58 4.398c-.19.52.079 1.09.594 1.278l4.37 1.592c.11.042.224.06.337.06.405 0 .787-.252.932-.66l1.581-4.398c.188-.52-.08-1.09-.595-1.278zm-2.511 4.06l-2.505-.913.904-2.522 2.505.912-.904 2.522z" transform="translate(-916 -193) translate(130 120) translate(492 55) translate(261 .8) translate(33 18)"/>
                        </g>
                    </g>
                </g>
            </g>
        </g>
    </g>
</svg>
