<svg width="315" height="100" viewBox="0 0 315 100" fill="none" xmlns="http://www.w3.org/2000/svg">
<path fill-rule="evenodd" clip-rule="evenodd" d="M12.8869 38.9486C12.6854 38.0612 12.7257 37.0932 12.8466 36.6091C13.169 35.1974 14.1361 33.584 16.9567 33.584C19.5758 33.584 21.107 35.1974 21.107 37.6579V40.441H32.2686V37.2948C32.2686 27.5337 23.4844 26.0009 17.1582 26.0009C9.22011 25.9606 2.69238 28.6227 1.52383 35.9234C1.20147 37.9402 1.16118 39.715 1.60442 41.9738C2.71101 47.2123 8.39451 50.3251 13.4932 53.1176C17.3062 55.2059 20.7921 57.1151 21.792 59.6003C22.2353 60.6894 22.1144 62.0608 21.8726 62.9078C21.51 64.4002 20.5026 65.933 17.4805 65.933C14.7002 65.933 13.0078 64.3196 13.0078 61.8591V57.5432H1V60.9717C1 71.0152 8.85746 74 17.279 74C25.3783 74 32.0269 71.2572 33.1148 63.7145C33.6387 59.8423 33.2357 57.3415 33.0745 56.3735C31.9874 51.002 25.9216 47.7968 20.707 45.0414C16.8372 42.9966 13.4362 41.1995 12.8869 38.9486ZM158.633 39.0696C158.431 38.1822 158.471 37.2545 158.592 36.7705C158.915 35.3184 159.882 33.7857 162.662 33.7857C165.241 33.7857 166.772 35.3991 166.772 37.8192V40.562H177.813V37.4159C177.813 27.7354 169.15 26.243 162.904 26.243C155.006 26.243 148.559 28.8648 147.39 36.1251C147.068 38.1016 146.988 39.8763 147.511 42.0948C148.619 47.2901 154.255 50.3705 159.303 53.1294C163.074 55.1898 166.516 57.0709 167.497 59.5196C167.9 60.6087 167.78 61.9801 167.578 62.7868C167.215 64.2792 166.248 65.7716 163.267 65.7716C160.486 65.7716 158.794 64.1582 158.794 61.7381V57.4222H146.826V60.891C146.826 70.8135 154.603 73.7984 162.944 73.7984C170.963 73.7984 177.571 71.0556 178.619 63.6339C179.143 59.802 178.74 57.3012 178.538 56.3735C177.472 51.0127 171.457 47.815 166.303 45.0749C162.498 43.0524 159.163 41.2792 158.633 39.0696ZM249.819 27.4127L260.377 63.5128L259.732 27.4127H270.813V71.7816H254.856L243.533 34.5117L244.178 71.7816H233.178V27.4127H249.819ZM48.9506 27.4127L40.6499 72.2656H52.7383L58.984 30.7605L65.0685 72.2656H77.0763L68.8965 27.4127H48.9506ZM111.004 62.4641L116.646 27.4127H134.899L135.906 72.2656H124.664L124.342 30.7605L116.646 72.2656H105.283L97.5863 30.7605L97.2639 72.2656H86.062L87.0291 27.4127H105.323L111.004 62.4641ZM220.767 27.4127H209.444V60.6087C209.444 61.1734 209.444 61.8188 209.364 62.3028C209.122 63.4322 208.195 65.57 205.052 65.57C201.949 65.57 200.982 63.4322 200.781 62.3028C200.66 61.8188 200.66 61.1734 200.66 60.6087V27.4127H189.337V59.56C189.337 60.407 189.377 62.1011 189.418 62.5448C190.183 70.9346 196.792 73.637 205.052 73.637C213.312 73.637 219.881 70.9346 220.686 62.5448C220.767 62.1011 220.848 60.407 220.767 59.56V27.4127ZM298.576 53.6307V47.0963H314.412V59.1566C314.412 59.9633 314.371 60.6087 314.251 62.1011C313.485 70.2892 306.474 73.1933 298.495 73.1933C290.557 73.1933 283.465 70.2892 282.74 62.1011C282.619 60.6087 282.579 59.9633 282.579 59.1566V40.2797C282.579 39.5416 282.701 38.4053 282.786 37.6181C282.799 37.502 282.81 37.3934 282.821 37.2948C283.788 28.9051 290.598 26.2026 298.536 26.2026C306.474 26.2026 313.404 28.8648 314.251 37.2545C314.371 38.7066 314.331 40.2393 314.331 40.2393V41.6914H303.049V39.1906C303.049 39.1906 303.049 38.1016 302.928 37.4562C302.726 36.4478 301.88 34.189 298.455 34.189C295.191 34.189 294.224 36.3671 293.982 37.4562C293.821 38.0612 293.781 38.8679 293.781 39.594V60.1247C293.781 60.6894 293.821 61.3347 293.902 61.8188C294.103 63.0288 295.232 65.0859 298.455 65.0859C301.719 65.0859 302.847 63.0288 303.049 61.8188C303.17 61.3347 303.17 60.6894 303.17 60.1247V53.6307H298.576Z" fill="white"/>
</svg>
