<svg width="103" height="90" viewBox="0 0 103 90" fill="none" xmlns="http://www.w3.org/2000/svg">
<path fill-rule="evenodd" clip-rule="evenodd" d="M35.6833 59.5999H17.5915C16.9199 59.5999 16.3748 59.0646 16.3748 58.3832C16.3748 57.7262 16.9199 57.1666 17.5915 57.1666H32.5151L26.0863 51.3752C25.1202 50.4019 23.8525 49.8666 22.5604 49.8666H17.4333C16.7617 49.8666 16.2167 49.3312 16.2167 48.6499C16.2167 47.9929 16.7617 47.4332 17.4333 47.4332H22.5604C24.4997 47.4332 26.3977 48.2362 27.7677 49.6232L36.4961 57.4829C36.8708 57.8236 36.9998 58.3589 36.8197 58.8212C36.6396 59.3079 36.187 59.5999 35.6833 59.5999" fill="#248700"/>
<path fill-rule="evenodd" clip-rule="evenodd" d="M85.4085 59.5999H67.3167C66.813 59.5999 66.3604 59.3079 66.1803 58.8212C66.0002 58.3589 66.1292 57.8236 66.5039 57.4829L75.2858 49.5746C76.6023 48.2362 78.5003 47.4332 80.4396 47.4332H85.5667C86.2383 47.4332 86.7833 47.9929 86.7833 48.6499C86.7833 49.3312 86.2383 49.8666 85.5667 49.8666H80.4396C79.1475 49.8666 77.8798 50.4019 76.9648 51.3266L70.4849 57.1666H85.4085C86.0801 57.1666 86.6252 57.7262 86.6252 58.3832C86.6252 59.0646 86.0801 59.5999 85.4085 59.5999" fill="#248700"/>
<path fill-rule="evenodd" clip-rule="evenodd" d="M38.3503 64.4666H64.6498L70.5141 62.1306C70.6601 62.0576 70.8134 62.0333 70.9667 62.0333H84.5764C84.9097 60.2813 85.5667 56.2663 85.5667 51.643C85.5667 45.803 83.9802 42.6153 80.0893 40.5956C76.3176 38.649 66.9663 37.7 51.5001 37.7C36.0338 37.7 26.6825 38.649 22.9108 40.5956C19.0199 42.6153 17.4334 45.803 17.4334 51.643C17.4334 56.2906 18.088 60.2813 18.4238 62.0333H32.0334C32.1867 62.0333 32.34 62.0576 32.486 62.1306L38.3503 64.4666V64.4666ZM64.8833 66.8999H38.1167C37.9634 66.8999 37.8101 66.8756 37.6641 66.8269L31.7997 64.4666H17.4333C16.8688 64.4666 16.3773 64.0773 16.2483 63.5419C16.1972 63.3229 15 58.1399 15 51.6429C15 44.8296 17.0318 40.8876 21.7963 38.4299C25.9768 36.2886 35.4157 35.2666 51.5 35.2666C67.5843 35.2666 77.0232 36.2886 81.2061 38.4299C85.9682 40.8876 88 44.8296 88 51.6429C88 58.1399 86.8028 63.3229 86.7517 63.5419C86.6227 64.0773 86.1312 64.4666 85.5667 64.4666H71.2003L65.3359 66.8269C65.1899 66.8756 65.0366 66.8999 64.8833 66.8999V66.8999Z" fill="#248700"/>
<path fill-rule="evenodd" clip-rule="evenodd" d="M43.4871 57.1667H59.5131L66.8131 49.8667H36.1871L43.4871 57.1667V57.1667ZM60.0167 59.5999H42.9834C42.6597 59.5999 42.3507 59.4782 42.122 59.2592L32.3886 49.5259C32.0407 49.1609 31.936 48.6499 32.1258 48.1876C32.3132 47.7496 32.7585 47.4332 33.25 47.4332H69.75C70.2416 47.4332 70.6869 47.7496 70.8742 48.1876C71.064 48.6499 70.9594 49.1609 70.6114 49.5259L60.8781 59.2592C60.6494 59.4782 60.3403 59.5999 60.0167 59.5999V59.5999Z" fill="#248700"/>
<path fill-rule="evenodd" clip-rule="evenodd" d="M80.6465 40.0117C80.1745 40.0117 80.042 40.3938 79.8449 39.9315C76.3214 31.7311 71.7211 21.9807 70.648 21.056C69.0225 19.6447 62.9465 18.2334 53.0331 18.2334H49.9671C40.0537 18.2334 33.9776 19.6447 32.3497 21.056C31.2791 21.9807 26.6762 31.7311 23.1527 39.9315C22.8899 40.5641 22.1697 40.8561 21.5565 40.5885C20.9384 40.3208 20.6537 39.5908 20.9189 38.9825C22.1526 36.1111 28.7338 20.9587 30.7632 19.2067C33.2379 17.0897 40.4162 15.8 49.9671 15.8H53.0331C62.5839 15.8 69.7622 17.0897 72.2369 19.2067C74.2663 20.9587 80.845 36.1111 82.0811 38.9825C82.3439 39.5908 81.744 39.6467 81.1259 39.9144C80.9702 39.963 80.8071 40.0117 80.6465 40.0117Z" fill="#248700"/>
<path fill-rule="evenodd" clip-rule="evenodd" d="M81.2816 74.2H72.8184C70.4557 74.2 68.5333 72.2777 68.5333 69.893V64.4667C68.5333 63.8097 69.0784 63.25 69.75 63.25C70.4216 63.25 70.9667 63.8097 70.9667 64.4667V69.893C70.9667 70.915 71.7964 71.7667 72.8184 71.7667H81.2816C82.3036 71.7667 83.1333 70.915 83.1333 69.893V63.25C83.1333 62.593 83.6784 62.0333 84.35 62.0333C85.0216 62.0333 85.5667 62.593 85.5667 63.25V69.893C85.5667 72.2777 83.6443 74.2 81.2816 74.2" fill="#248700"/>
<path fill-rule="evenodd" clip-rule="evenodd" d="M30.1816 74.1999H21.7185C19.3557 74.1999 17.4334 72.2775 17.4334 69.8929V64.4665C17.4334 63.8095 17.9785 63.2499 18.6501 63.2499C19.3217 63.2499 19.8667 63.8095 19.8667 64.4665V69.8929C19.8667 70.9149 20.6965 71.7665 21.7185 71.7665H30.1816C31.2036 71.7665 32.0334 70.9149 32.0334 69.8929V64.4665C32.0334 63.8095 32.5785 63.2499 33.2501 63.2499C33.9217 63.2499 34.4667 63.8095 34.4667 64.4665V69.8929C34.4667 72.2775 32.5444 74.1999 30.1816 74.1999" fill="#248700"/>
</svg>
