<svg width="30" height="30" viewBox="0 0 30 30" fill="none" xmlns="http://www.w3.org/2000/svg">
<path d="M17.5 23.5H12.5C10.2 23.5 9.5 19.5 9.2 18.2C9.2 18 9 18 8.9 17.9C6.9 16.1 5.6 13.5 5.5 11.1C5.5 10.8 5.5 10.6 5.5 10.3V10.2C5.5 10.1 5.5 10.1 5.5 10C5.5 4.8 9.8 0.5 15 0.5C20.2 0.5 24.5 4.8 24.5 10C24.5 10.1 24.5 10.3 24.5 10.4V10.5V10.6C24.5 10.7 24.5 10.9 24.5 11C24.5 13.5 23.3 15.8 21 17.8C20.9 17.9 20.8 18.1 20.7 18.2C20.5 19.5 19.8 23.5 17.5 23.5ZM15 1.6C10.3 1.6 6.5 5.4 6.5 10.1V10.4C6.5 10.7 6.5 10.9 6.5 11.1C6.6 13.3 7.8 15.5 9.6 17.1C9.9 17.4 10.1 17.7 10.2 18.1C10.9 22 11.9 22.6 12.5 22.6H17.5C18 22.6 19.1 22 19.8 18.1C19.9 17.7 20.1 17.4 20.4 17.1C22.5 15.3 23.5 13.3 23.5 11.1C23.5 11 23.5 10.9 23.5 10.8V10.6V10.4C23.5 10.3 23.5 10.2 23.5 10.1C23.5 5.4 19.7 1.6 15 1.6Z" fill="#6E3BA1"/>
<path d="M18 25.5H12C11.7 25.5 11.5 25.3 11.5 25C11.5 24.7 11.7 24.5 12 24.5H18C18.3 24.5 18.5 24.7 18.5 25C18.5 25.3 18.3 25.5 18 25.5Z" fill="#6E3BA1"/>
<path d="M17 27.5H13C12.7 27.5 12.5 27.3 12.5 27C12.5 26.7 12.7 26.5 13 26.5H17C17.3 26.5 17.5 26.7 17.5 27C17.5 27.3 17.3 27.5 17 27.5Z" fill="#6E3BA1"/>
<path d="M16 29.5H14C13.7 29.5 13.5 29.3 13.5 29C13.5 28.7 13.7 28.5 14 28.5H16C16.3 28.5 16.5 28.7 16.5 29C16.5 29.3 16.3 29.5 16 29.5Z" fill="#6E3BA1"/>
<path d="M16.1999 17.5C16.0999 17.5 15.9999 17.5 15.8999 17.4C15.7999 17.3 15.6999 17.2 15.6999 17C15.6999 16.6 15.2999 16.4 14.9999 16.4C14.6999 16.4 14.3999 16.5 14.2999 16.9C14.2999 17 14.1999 17.2 14.0999 17.3C13.9999 17.4 13.7999 17.4 13.6999 17.4C12.2999 17.1 11.0999 16.4 10.0999 15.3C9.9999 15.3 9.9999 15.2 9.9999 15C9.9999 14.9 10.0999 14.7 10.1999 14.7C10.4999 14.5 10.5999 14.1 10.3999 13.8C10.1999 13.5 9.8999 13.4 9.4999 13.5C9.3999 13.6 9.1999 13.6 9.0999 13.5C8.9999 13.4 8.8999 13.3 8.7999 13.2C8.5999 12.5 8.3999 11.8 8.3999 11.1C8.3999 10.4 8.4999 9.70001 8.7999 9.00001C8.7999 8.90001 8.8999 8.80001 9.0999 8.70001C9.1999 8.60001 9.3999 8.60001 9.4999 8.70001C9.7999 8.80001 10.1999 8.70001 10.3999 8.40001C10.5999 8.10001 10.4999 7.70001 10.1999 7.50001C10.0999 7.30001 9.9999 7.20001 9.9999 7.10001C9.9999 7.00001 9.9999 6.80001 10.0999 6.70001C11.0999 5.60001 12.2999 4.80001 13.6999 4.60001C13.7999 4.60001 13.9999 4.60001 14.0999 4.70001C14.1999 4.80001 14.2999 4.90001 14.2999 5.10001C14.2999 5.50001 14.6999 5.70001 14.9999 5.70001C15.2999 5.70001 15.5999 5.60001 15.6999 5.20001C15.6999 5.10001 15.7999 4.90001 15.8999 4.80001C15.9999 4.70001 16.1999 4.70001 16.2999 4.70001C17.6999 5.00001 18.8999 5.70001 19.8999 6.80001C19.9999 6.80001 19.9999 6.90001 19.9999 7.10001C19.9999 7.20001 19.8999 7.40001 19.7999 7.40001C19.4999 7.60001 19.3999 8.00001 19.5999 8.30001C19.7999 8.60001 20.0999 8.70001 20.4999 8.60001C20.5999 8.50001 20.7999 8.50001 20.8999 8.60001C20.9999 8.70001 21.0999 8.80001 21.1999 8.90001C21.3999 9.60001 21.5999 10.3 21.5999 11C21.5999 11.7 21.4999 12.4 21.1999 13.1C21.1999 13.2 21.0999 13.3 20.8999 13.4C20.7999 13.5 20.5999 13.5 20.4999 13.4C20.1999 13.3 19.7999 13.4 19.5999 13.7C19.3999 14 19.4999 14.4 19.7999 14.6C19.8999 14.7 19.9999 14.8 19.9999 14.9C19.9999 15 19.9999 15.2 19.8999 15.3C18.8999 16.4 17.6999 17.2 16.2999 17.4C16.1999 17.5 16.1999 17.5 16.1999 17.5ZM14.9999 15.5C15.6999 15.5 16.2999 15.9 16.4999 16.4C17.3999 16.1 18.0999 15.7 18.7999 15C18.3999 14.5 18.3999 13.8 18.6999 13.2C18.9999 12.6 19.6999 12.3 20.2999 12.4C20.3999 11.9 20.4999 11.5 20.4999 11C20.4999 10.5 20.3999 10.1 20.2999 9.60001C19.6999 9.60001 18.9999 9.30001 18.6999 8.80001C18.3999 8.20001 18.3999 7.50001 18.7999 7.00001C18.0999 6.30001 17.3999 5.90001 16.4999 5.60001C16.1999 6.10001 15.6999 6.50001 14.9999 6.50001C14.2999 6.50001 13.6999 6.10001 13.4999 5.60001C12.5999 5.90001 11.8999 6.30001 11.1999 7.00001C11.5999 7.50001 11.5999 8.20001 11.2999 8.80001C10.9999 9.40001 10.2999 9.70001 9.6999 9.60001C9.5999 10.1 9.4999 10.5 9.4999 11C9.4999 11.5 9.5999 11.9 9.6999 12.4C10.2999 12.4 10.9999 12.7 11.2999 13.2C11.5999 13.8 11.5999 14.5 11.1999 15C11.8999 15.7 12.5999 16.1 13.4999 16.4C13.6999 15.9 14.2999 15.5 14.9999 15.5Z" fill="#6E3BA1"/>
<path d="M15 14.5C13.1 14.5 11.5 12.9 11.5 11C11.5 9.1 13.1 7.5 15 7.5C16.9 7.5 18.5 9.1 18.5 11C18.5 12.9 16.9 14.5 15 14.5ZM15 8.5C13.6 8.5 12.5 9.6 12.5 11C12.5 12.4 13.6 13.5 15 13.5C16.4 13.5 17.5 12.4 17.5 11C17.5 9.6 16.4 8.5 15 8.5Z" fill="#6E3BA1"/>
</svg>
