<svg width="30" height="30" viewBox="0 0 30 30" fill="none" xmlns="http://www.w3.org/2000/svg">
<path d="M28.4 26.7L26.4 22.8C26.1 22.3 25.6 21.9 25 21.9H24.2L18.1 15.8L21.7 12.1C22.2 12.2 22.6 12.3 23 12.3C24.6 12.3 26.1 11.7 27 10.7C28 9.59999 28.4 8.29999 28.3 6.69999C28.3 6.49999 28.2 6.39999 28.1 6.29999C27.9 6.19999 27.7 6.19999 27.7 6.29999L24.6 8.19999C23.5 7.79999 22.9 6.79999 22.8 5.59999L26.3 3.39999C26.4 3.29999 26.5 3.19999 26.5 2.99999C26.5 2.89999 26.4 2.69999 26.3 2.59999C25.3 1.79999 24.1 1.29999 22.9 1.29999C22.8 1.29999 22.8 1.29999 22.8 1.29999C21.5 1.29999 20.1 1.89999 19 2.99999C17.7 4.29999 17.1 5.59999 17.2 6.99999C17.2 7.69999 16.8 8.59999 16.2 9.19999L15 10.4C15 10.3 14.9 10.2 14.9 10.2C14.6 9.59999 14.3 8.89999 13.6 8.19999L7.6 2.19999C7 1.89999 6.2 1.49999 5.4 1.49999C4.6 1.49999 3.8 1.79999 3.2 2.39999L2.4 3.09999C1.9 3.79999 1.5 4.59999 1.5 5.39999C1.5 6.19999 1.9 6.99999 2.4 7.59999L8.5 13.6C9.1 14.3 9.8 14.7 10.5 14.9C10.6 14.9 10.8 15 10.9 15.1L9.4 16.7C8.8 17.3 8 17.6 7 17.6C3.9 17.6 1.6 19.8 1.6 22.8C1.6 23 1.6 23.2 1.6 23.4V23.5C1.6 23.7 1.7 23.8 1.9 23.9C2.1 24 2.3 24 2.3 23.9L6 21.7C7.1 22.1 7.7 23.1 7.8 24.3L3.9 26.6C3.8 26.7 3.7 26.8 3.7 27C3.7 27.1 3.8 27.3 3.9 27.4C4.9 28.1 6 28.5 7.1 28.5C8.4 28.5 9.8 27.9 11.1 26.7C12.3 25.4 12.9 24.1 12.8 22.7C12.8 21.9 13.2 21 13.8 20.4L16 18.2L22 24.2V25C22 25.6 22.4 26.2 22.9 26.4L26.8 28.4C26.8 28.5 26.9 28.5 27 28.5C27.2 28.5 27.3 28.4 27.4 28.4L28.6 27.2C28.5 27 28.5 26.9 28.4 26.7ZM16.9 10.2C17.7 9.39999 18.2 8.29999 18.2 7.19999C18.2 6.09999 18.6 4.99999 19.7 3.89999C20.6 2.99999 21.7 2.49999 22.8 2.49999C22.9 2.49999 22.9 2.49999 22.9 2.49999C23.7 2.49999 24.5 2.79999 25.1 3.09999L22 4.89999C21.9 4.99999 21.8 5.09999 21.8 5.29999C21.8 6.79999 22.6 8.29999 24 8.99999L24.3 9.09999C24.5 9.19999 24.7 9.19999 24.7 9.09999L27.4 7.49999C27.3 8.49999 27 9.39999 26.3 9.99999C25.5 10.9 24.3 11.3 23 11.3C22.6 11.3 22.2 11.3 21.7 11.1C21.5 11 21.3 11.1 21.3 11.2L18.5 14.1V14C18.5 13.9 18.5 13.9 18.5 13.8C18.5 13.4 18.4 13.2 18.1 12.9C17.5 12.2 16.8 11.8 16.1 11.6C16 11.6 15.8 11.5 15.7 11.4L16.9 10.2ZM9 13L3 6.99999C2.7 6.59999 2.4 5.99999 2.4 5.39999C2.4 4.79999 2.7 4.19999 3 3.79999L3.7 3.09999C4.1 2.69999 4.7 2.49999 5.3 2.49999C6 2.39999 6.5 2.69999 7 3.09999L12.9 9.09999C13.5 9.69999 13.9 10.3 14.1 10.8C14.4 11.6 15 12.2 15.8 12.5C16.3 12.7 16.9 13 17.5 13.7C17.6 13.8 17.6 13.8 17.6 13.9C17.6 14 17.6 14 17.5 14.1L16.6 15C16.6 15.1 16.6 15.2 16.5 15.2L14 17.7C13.9 17.8 13.8 17.7 13.7 17.6C13.1 17 12.7 16.4 12.5 15.9C12.4 15.5 12.1 15.1 11.9 14.8C11.8 14.8 11.6 14.7 11.5 14.7C11.3 14.5 11 14.3 10.7 14.2C10.1 14 9.7 13.7 9 13ZM13 19.8C12.2 20.6 11.7 21.7 11.7 22.8C11.7 24 11.3 25 10.2 26.1C9.3 27.1 8.2 27.6 7.1 27.6C6.4 27.6 5.7 27.4 5 27.1L8.4 25C8.5 24.9 8.6 24.8 8.6 24.6C8.6 23.1 7.8 21.6 6.4 20.9L6.1 20.8C5.9 20.7 5.7 20.7 5.7 20.8L2.4 22.8C2.4 20.4 4.4 18.6 6.9 18.6C8.2 18.6 9.2 18.2 10 17.3L11.5 15.7C11.6 15.8 11.6 15.9 11.6 16C11.8 16.7 12.2 17.3 12.9 18.1C13.2 18.4 13.4 18.5 13.8 18.5H13.9H14C14.1 18.5 14.1 18.5 14.1 18.5C14.2 18.5 14.2 18.5 14.3 18.5L13 19.8ZM26.7 27.5L23.1 25.7C22.9 25.6 22.7 25.3 22.7 25.1V24.1C22.7 23.9 22.7 23.8 22.6 23.7L16.4 17.5C16.4 17.4 16.4 17.3 16.3 17.2L16 16.8L16.9 15.9L17.1 16.1H17.2L23.6 22.6C23.7 22.6 23.9 22.7 24 22.7H25C25.3 22.7 25.5 22.8 25.6 23.1L27.4 26.7L26.7 27.5Z" fill="#6E3BA1"/>
</svg>
