<svg width="30" height="30" viewBox="0 0 30 30" fill="none" xmlns="http://www.w3.org/2000/svg">
<path d="M6.2001 13.9C6.4001 13.7 6.4001 13.4 6.2001 13.2C6.0001 13 5.7001 13 5.5001 13.2L3.9001 14.8C4.0001 8.69999 8.9001 3.89999 14.9001 3.89999C19.6001 3.89999 23.7001 6.79999 25.3001 11.2C25.4001 11.5 25.7001 11.6 25.9001 11.5C26.2001 11.4 26.3001 11.1 26.2001 10.9C24.5001 6.09999 19.9001 2.89999 14.9001 2.89999C8.3001 2.89999 2.9001 8.29999 2.9001 14.8L1.2001 13.1C1.0001 12.9 0.700098 12.9 0.500098 13.1C0.300098 13.3 0.300098 13.6 0.500098 13.8L2.9001 16.3C3.0001 16.4 3.1001 16.4 3.3001 16.4C3.5001 16.4 3.6001 16.4 3.7001 16.3L6.2001 13.9Z" fill="#6E3BA1"/>
<path d="M29.5 16.1L26.9 13.6C26.7 13.4 26.4 13.4 26.2 13.6L23.7 16.1C23.5 16.3 23.5 16.6 23.7 16.8C23.9 17 24.2 17 24.4 16.8L26 15.2C25.8 21.3 20.9 26.1 14.9 26.1C10.2 26.1 6.1 23.2 4.5 18.8C4.4 18.5 4.1 18.4 3.9 18.5C3.6 18.6 3.5 18.9 3.6 19.1C5.3 23.9 9.9 27.1 14.9 27.1C21.5 27.1 26.9 21.7 26.9 15.2L28.6 16.9C28.7 17 28.9 17 29 17C29.1 17 29.3 17 29.4 16.9C29.6 16.7 29.6 16.3 29.5 16.1Z" fill="#6E3BA1"/>
<path d="M23.0998 14C22.9998 13.6 22.7998 13.2 22.3998 12.9C21.9998 12.7 21.5998 12.6 21.1998 12.8C20.9998 12.9 20.6998 12.8 20.4998 12.5C20.2998 12.1 20.0998 11.8 19.8998 11.4C19.6998 11.2 19.7998 10.9 19.9998 10.7C20.2998 10.4 20.4998 10 20.4998 9.60001C20.4998 9.20001 20.2998 8.70001 19.8998 8.50001C19.3998 8.10001 18.7998 7.70001 18.0998 7.50001C17.6998 7.30001 17.1998 7.30001 16.7998 7.60001C16.3998 7.80001 16.1998 8.20001 16.0998 8.60001C16.0998 8.90001 15.7998 9.00001 15.4998 9.00001C15.0998 9.00001 14.6998 9.00001 14.2998 9.00001C13.9998 9.00001 13.7998 8.90001 13.6998 8.60001C13.5998 8.20001 13.3998 7.80001 12.9998 7.60001C12.5998 7.40001 12.0998 7.40001 11.6998 7.50001C11.0998 7.80001 10.4998 8.10001 9.8998 8.50001C9.6998 8.70001 9.4998 9.10001 9.4998 9.60001C9.4998 10 9.6998 10.5 9.9998 10.7C10.1998 10.9 10.1998 11.2 10.0998 11.4C9.8998 11.7 9.6998 12.1 9.4998 12.5C9.3998 12.8 9.0998 12.9 8.7998 12.8C8.3998 12.6 7.8998 12.7 7.5998 12.9C7.1998 13.1 6.9998 13.5 6.8998 14C6.8998 14.3 6.7998 14.7 6.7998 15C6.7998 15.3 6.7998 15.7 6.8998 16C6.9998 16.4 7.1998 16.8 7.5998 17.1C7.9998 17.3 8.3998 17.4 8.7998 17.2C8.9998 17.1 9.2998 17.2 9.4998 17.5C9.6998 17.9 9.8998 18.2 10.0998 18.6C10.2998 18.8 10.1998 19.1 9.9998 19.3C9.6998 19.6 9.4998 20 9.4998 20.4C9.4998 20.8 9.6998 21.3 10.0998 21.5C10.5998 21.9 11.1998 22.3 11.8998 22.5C12.2998 22.7 12.7998 22.7 13.1998 22.4C13.5998 22.2 13.7998 21.8 13.8998 21.4C13.8998 21.1 14.1998 21 14.4998 21C14.8998 21 15.2998 21 15.6998 21C15.9998 21 16.1998 21.1 16.2998 21.4C16.3998 21.8 16.5998 22.2 16.9998 22.4C17.1998 22.5 17.4998 22.6 17.6998 22.6C17.8998 22.6 18.0998 22.6 18.2998 22.5C18.8998 22.2 19.4998 21.9 20.0998 21.5C20.4998 21.2 20.6998 20.8 20.6998 20.4C20.6998 20 20.4998 19.5 20.1998 19.3C19.9998 19.1 19.9998 18.8 20.0998 18.6C20.2998 18.3 20.4998 17.9 20.6998 17.5C20.7998 17.2 21.0998 17.1 21.3998 17.2C21.7998 17.4 22.2998 17.3 22.5998 17.1C22.9998 16.9 23.1998 16.5 23.2998 16C23.2998 15.7 23.3998 15.3 23.3998 15C23.1998 14.7 23.1998 14.3 23.0998 14ZM21.4998 16.3C20.7998 16 19.9998 16.4 19.6998 17.1C19.5998 17.4 19.3998 17.7 19.1998 18C18.6998 18.6 18.7998 19.5 19.3998 20C19.4998 20.1 19.5998 20.2 19.5998 20.4C19.5998 20.6 19.4998 20.7 19.3998 20.8C18.8998 21.2 18.3998 21.5 17.7998 21.7C17.5998 21.8 17.4998 21.8 17.2998 21.7C17.1998 21.6 17.0998 21.5 16.9998 21.3C16.8998 20.6 16.2998 20.1 15.5998 20.1C15.4998 20.1 15.4998 20.1 15.3998 20.1C15.0998 20.1 14.6998 20.1 14.3998 20.1C13.5998 20 12.8998 20.5 12.7998 21.3C12.7998 21.5 12.6998 21.6 12.4998 21.7C12.3998 21.8 12.1998 21.8 11.9998 21.7C11.3998 21.5 10.8998 21.2 10.3998 20.8C10.2998 20.7 10.1998 20.6 10.1998 20.4C10.1998 20.2 10.2998 20.1 10.3998 20C10.9998 19.5 11.0998 18.7 10.5998 18C10.3998 17.7 10.1998 17.4 10.0998 17.1C9.7998 16.4 8.9998 16.1 8.2998 16.3C8.1998 16.4 7.9998 16.3 7.8998 16.3C7.7998 16.2 7.6998 16.1 7.6998 15.9C7.6998 15.6 7.5998 15.3 7.5998 15C7.5998 14.7 7.5998 14.4 7.6998 14.1C7.6998 13.9 7.7998 13.8 7.9998 13.7C8.0998 13.6 8.2998 13.6 8.3998 13.7C9.0998 14 9.8998 13.6 10.1998 12.9C10.2998 12.6 10.4998 12.3 10.6998 12C11.1998 11.4 11.0998 10.5 10.4998 10C10.3998 9.90001 10.2998 9.80001 10.2998 9.60001C10.2998 9.40001 10.3998 9.30001 10.4998 9.20001C10.9998 8.80001 11.4998 8.50001 12.0998 8.30001C12.2998 8.20001 12.3998 8.20001 12.5998 8.30001C12.6998 8.40001 12.7998 8.50001 12.8998 8.70001C12.9998 9.50001 13.6998 10 14.4998 9.90001C14.7998 9.90001 15.1998 9.90001 15.4998 9.90001C16.2998 10 16.9998 9.50001 17.0998 8.70001C17.0998 8.50001 17.1998 8.40001 17.3998 8.30001C17.4998 8.20001 17.6998 8.20001 17.8998 8.30001C18.4998 8.50001 18.9998 8.80001 19.4998 9.20001C19.5998 9.30001 19.6998 9.40001 19.6998 9.60001C19.6998 9.80001 19.5998 9.90001 19.4998 10C18.8998 10.5 18.7998 11.3 19.2998 12C19.4998 12.3 19.6998 12.6 19.7998 12.9C20.0998 13.6 20.8998 13.9 21.5998 13.7C21.6998 13.6 21.8998 13.7 21.9998 13.7C22.0998 13.8 22.1998 13.9 22.1998 14.1C22.1998 14.4 22.2998 14.7 22.2998 15C22.2998 15.3 22.2998 15.6 22.1998 15.9C22.1998 16.1 22.0998 16.2 21.8998 16.3C21.7998 16.4 21.6998 16.4 21.4998 16.3Z" fill="#6E3BA1"/>
<path d="M15 11.5C13.1 11.5 11.5 13.1 11.5 15C11.5 16.9 13.1 18.5 15 18.5C16.9 18.5 18.5 16.9 18.5 15C18.5 13.1 16.9 11.5 15 11.5ZM15 17.6C13.6 17.6 12.4 16.4 12.4 15C12.4 13.6 13.6 12.4 15 12.4C16.4 12.4 17.6 13.6 17.6 15C17.6 16.4 16.4 17.6 15 17.6Z" fill="#6E3BA1"/>
</svg>
