<svg width="30" height="30" viewBox="0 0 30 30" fill="none" xmlns="http://www.w3.org/2000/svg">
<path d="M10.7 10.8C10.5 9.19999 9.2 7.99999 7.7 7.99999H4.7C3.2 7.99999 1.9 9.19999 1.7 10.9L0.899995 17.7C0.799995 18.3 0.999995 18.8 1.4 19.3C1.7 19.7 2.1 19.9 2.6 19.9L3.2 28.7C3.2 29 3.5 29.2 3.8 29.2H8.5C8.8 29.2 9.1 29 9.1 28.7L9.7 19.9C10.2 19.9 10.6 19.7 10.9 19.3C11.3 18.9 11.4 18.3 11.4 17.7L10.7 10.8ZM10.1 18.4C10 18.5 9.9 18.6 9.7 18.6H9.2C8.9 18.6 8.6 18.8 8.6 19.1L8 27.9H4.4L3.8 19.1C3.8 18.8 3.5 18.6 3.2 18.6H2.7C2.5 18.6 2.3 18.5 2.3 18.4C2.2 18.2 2.1 18 2.1 17.8L2.9 11C3 9.99999 3.8 9.19999 4.7 9.19999H7.7C8.6 9.19999 9.4 9.99999 9.5 11L10.3 17.8C10.3 18 10.3 18.2 10.1 18.4ZM6.2 6.79999C7.8 6.79999 9.1 5.49999 9.1 3.89999C9.1 2.29999 7.8 0.899994 6.2 0.899994C4.6 0.899994 3.3 2.19999 3.3 3.89999C3.3 5.59999 4.6 6.79999 6.2 6.79999ZM6.2 2.09999C7.2 2.09999 8 2.89999 8 3.89999C8 4.89999 7.2 5.59999 6.2 5.59999C5.2 5.59999 4.4 4.79999 4.4 3.89999C4.4 2.99999 5.2 2.09999 6.2 2.09999ZM26.1 16.2C26.4 16.2 26.7 15.9 26.7 15.6V4.99999C26.7 4.69999 26.4 4.39999 26.1 4.39999H22.6C22.3 4.39999 22 4.69999 22 4.99999V15.6C22 15.9 22.3 16.2 22.6 16.2H26.1ZM23.2 5.59999H25.5V15H23.2V5.59999ZM20.3 16.2C20.6 16.2 20.9 15.9 20.9 15.6V7.39999C20.9 7.09999 20.6 6.79999 20.3 6.79999H16.8C16.5 6.79999 16.2 7.09999 16.2 7.39999V15.6C16.2 15.9 16.5 16.2 16.8 16.2H20.3ZM17.3 7.99999H19.6V15H17.3V7.99999ZM14.4 16.2C14.7 16.2 15 15.9 15 15.6V10.9C15 10.6 14.7 10.3 14.4 10.3H12.5C12.2 10.3 11.9 10.6 11.9 10.9C11.9 11.2 12.2 11.5 12.5 11.5H13.9V15H13C12.7 15 12.4 15.3 12.4 15.6C12.4 15.9 12.7 16.2 13 16.2H14.4ZM28.5 0.899994H10.3C10 0.899994 9.7 1.19999 9.7 1.49999C9.7 1.79999 10 2.09999 10.3 2.09999H27.9V17.4H13.2C12.9 17.4 12.6 17.7 12.6 18C12.6 18.3 12.9 18.6 13.2 18.6H28.5C28.8 18.6 29.1 18.3 29.1 18V1.49999C29.1 1.19999 28.8 0.899994 28.5 0.899994Z" fill="#6E3BA1"/>
</svg>
