<svg width="30" height="30" viewBox="0 0 30 30" fill="none" xmlns="http://www.w3.org/2000/svg">
<path d="M26.9 25.6L25.1 25.2L25 24.8C25.5 24.3 25.8 23.6 25.9 22.9C26.2 22.7 26.5 22.4 26.5 22L26.6 21C26.6 20.7 26.5 20.4 26.3 20.1C26.2 20 26.2 20 26.1 19.9V19.3L26.2 19.2C26.5 18.9 26.9 18.2 26.3 17.2C26 16.7 25.3 16.1 24 16.1C23.6 16.1 22.8 16.1 21.9 16.6C19.4 16.7 19.1 18 19.1 19C19.1 19.2 19.1 19.6 19.2 19.9C19.1 20 19 20 19 20.1C18.8 20.3 18.7 20.7 18.7 21L18.8 22C18.8 22.4 19.1 22.7 19.5 22.9C19.6 23.6 19.9 24.2 20.4 24.7L20.3 25.1L18.5 25.5C17 25.9 16 27.2 16 28.7C16 28.9 16.1 29 16.2 29.1C16.3 29.2 16.5 29.3 16.6 29.3H28.6C28.9 29.3 29.2 29 29.2 28.7C29.4 27.3 28.4 26 26.9 25.6ZM17.5 28.2C17.7 27.5 18.3 27 19 26.8L21.1 26.3C21.3 26.2 21.5 26.1 21.5 25.9L21.8 24.9C21.9 24.7 21.8 24.5 21.6 24.3C21.1 23.9 20.8 23.2 20.8 22.6C20.8 22.3 20.5 22.1 20.2 22.1L20 21C20.2 21 20.3 20.9 20.4 20.8C20.5 20.7 20.6 20.5 20.5 20.3C20.5 19.9 20.4 19.3 20.4 19.1C20.4 18.5 20.4 17.9 22.2 17.9C22.3 17.9 22.4 17.9 22.5 17.8C23.1 17.4 23.7 17.4 24 17.4C24.9 17.4 25.2 17.8 25.3 17.9C25.5 18.3 25.4 18.4 25.4 18.4L25.1 18.7C25 18.8 24.9 18.9 24.9 19.1L25 20.4C25 20.6 25 20.7 25.1 20.8C25.2 20.9 25.3 20.9 25.5 20.9L25.4 21.9C25.1 21.9 24.8 22.1 24.8 22.5C24.7 23.1 24.4 23.8 23.9 24.2C23.7 24.3 23.7 24.6 23.7 24.8L23.9 25.8C24 26 24.1 26.2 24.3 26.2L26.4 26.7C27.1 26.9 27.7 27.4 27.9 28.1L17.5 28.2Z" fill="#6E3BA1"/>
<path d="M18.5 24.2C18.6 23.9 18.5 23.5 18.2 23.4L14.7 21.6C14.5 21.5 14.3 21.5 14.2 21.6L6.90002 25.2L8.50002 17.4C8.50002 17.2 8.50002 17 8.30002 16.9L2.60001 11.2L10.4 10.2C10.6 10.2 10.8 10.1 10.9 9.90001L14.6 2.60001L18.3 9.90001C18.4 10.1 18.6 10.2 18.8 10.2L26.6 11.2L23.6 14C23.4 14.2 23.4 14.6 23.6 14.8C23.8 15 24.2 15 24.4 14.8L28 11.2C28.2 11 28.2 10.8 28.1 10.6C28 10.4 27.8 10.2 27.6 10.2L19 9.00001L15 0.900006C14.8 0.500006 14.1 0.500006 13.9 0.900006L9.80002 9.00001L1.10002 10.1C0.900015 10.1 0.700015 10.3 0.600015 10.5C0.500015 10.7 0.600015 11 0.700015 11.1L7.10002 17.5L5.40002 26.2C5.40002 26.4 5.40002 26.7 5.60002 26.8C5.80002 26.9 5.90002 27 6.00002 27C6.10002 27 6.20002 27 6.30002 26.9L14.4 22.8L17.7 24.4C18 24.6 18.3 24.5 18.5 24.2Z" fill="#6E3BA1"/>
</svg>
