<?xml version="1.0" encoding="UTF-8"?>
<svg width="50px" height="50px" viewBox="0 0 50 50" version="1.1" xmlns="http://www.w3.org/2000/svg" xmlns:xlink="http://www.w3.org/1999/xlink">
    <title>Solutions / Card / Circle / deliver / managed solutions@3x</title>
    <g id="Solutions-/-Card-/-Circle-/-deliver-/-managed-solutions" stroke="none" stroke-width="1" fill="none" fill-rule="evenodd">
        <g id="Group-12">
            <path d="M1.14752652e-12,25 C1.14752652e-12,11.1927064 11.1927064,3.55271368e-14 25,3.55271368e-14 C31.6296835,3.55271368e-14 37.9888141,2.63504911 42.6768825,7.32084394 C47.3672244,12.0111859 50,18.3703165 50,25 C50,38.8072936 38.8072936,50 25,50 C11.1927064,50 1.14752652e-12,38.8072936 1.14752652e-12,25" id="Fill-32" fill="#4B286D"></path>
            <g id="puzzle-piece" transform="translate(9.000000, 14.000000)" fill="#FFFFFF" fill-rule="nonzero" stroke="#FFFFFF" stroke-width="0.25">
                <path d="M24.628,21.648 L18.656,21.648 C18.1226667,21.648 17.6493333,21.3306667 17.4506667,20.8386667 C17.2506667,20.34 17.372,19.776 17.7613333,19.4 C18.3626667,18.8226667 18.6666667,18.2333333 18.6666667,17.648 C18.6666667,16.5453333 17.2173333,16.3146667 16,16.3146667 C14.7826667,16.3146667 13.3333333,16.5453333 13.3333333,17.648 C13.3333333,18.2333333 13.6373333,18.8226667 14.2373333,19.4 C14.6266667,19.776 14.7493333,20.34 14.548,20.8386667 C14.3493333,21.3306667 13.8773333,21.648 13.3426667,21.648 L7.372,21.648 C6.836,21.648 6.34,21.4053333 6.01066667,20.984 C5.684,20.5653333 5.56933333,20.0306667 5.69866667,19.5146667 C6.636,15.7666667 6.656,14.1133333 6.516,13.6533333 C6.02533333,13.6893333 5.74666667,13.9026667 5.37333333,14.1866667 C4.90666667,14.5413333 4.32933333,14.9813333 3.33333333,14.9813333 C1.32933333,14.9813333 0,12.5733333 0,10.9813333 C0,9.38933333 1.32933333,6.98133333 3.33333333,6.98133333 C4.32933333,6.98133333 4.90666667,7.42133333 5.372,7.776 C5.74533333,8.06 6.02533333,8.27333333 6.51466667,8.30933333 C6.65466667,7.84933333 6.63466667,6.196 5.69733333,2.448 C5.56933333,1.932 5.68266667,1.39733333 6.00933333,0.978666667 C6.33866667,0.557333333 6.836,0.314666667 7.37066667,0.314666667 L13.3426667,0.314666667 C13.876,0.314666667 14.3493333,0.632 14.548,1.124 C14.748,1.62266667 14.6266667,2.18666667 14.2373333,2.56266667 C13.6373333,3.14 13.3333333,3.72933333 13.3333333,4.31466667 C13.3333333,5.41733333 14.7826667,5.648 16,5.648 C17.2173333,5.648 18.6666667,5.41733333 18.6666667,4.31466667 C18.6666667,3.72933333 18.3626667,3.14 17.7626667,2.56266667 C17.3733333,2.18666667 17.2506667,1.62266667 17.452,1.124 C17.6506667,0.632 18.1226667,0.314666667 18.6573333,0.314666667 L24.6293333,0.314666667 C25.1653333,0.314666667 25.6613333,0.557333333 25.9906667,0.978666667 C26.3173333,1.39733333 26.432,1.932 26.3026667,2.448 C25.3653333,6.196 25.3453333,7.84933333 25.4853333,8.30933333 C25.976,8.27333333 26.2546667,8.06 26.628,7.776 C27.0933333,7.42133333 27.6706667,6.98133333 28.6666667,6.98133333 C30.6706667,6.98133333 32,9.38933333 32,10.9813333 C32,12.5733333 30.6706667,14.9813333 28.6666667,14.9813333 C27.6706667,14.9813333 27.0933333,14.5413333 26.628,14.1866667 C26.2546667,13.9026667 25.9746667,13.6893333 25.4853333,13.6533333 C25.3453333,14.1133333 25.3653333,15.7666667 26.3026667,19.5146667 C26.432,20.0293333 26.3173333,20.5653333 25.9906667,20.984 C25.6613333,21.4053333 25.164,21.648 24.628,21.648 Z M16,14.9813333 C19.6106667,14.9813333 20,16.8453333 20,17.648 C20,18.596 19.5466667,19.5333333 18.688,20.3613333 L24.6293333,20.3146667 C24.752,20.3146667 24.8653333,20.2586667 24.94,20.164 C24.9826667,20.1093333 25.048,19.9946667 25.0093333,19.8386667 C23.5346667,13.9426667 24.2173333,13.0693333 24.4733333,12.74 C24.688,12.4653333 24.9933333,12.3146667 25.3333333,12.3146667 C26.3706667,12.3146667 26.9626667,12.764 27.4373333,13.1266667 C27.8346667,13.4293333 28.1213333,13.648 28.6666667,13.648 C29.7506667,13.648 30.6666667,12.0093333 30.6666667,10.9813333 C30.6666667,9.95333333 29.7506667,8.31466667 28.6666667,8.31466667 C28.1213333,8.31466667 27.8333333,8.53333333 27.4373333,8.836 C26.9626667,9.19733333 26.372,9.648 25.3333333,9.648 C24.9933333,9.648 24.688,9.49733333 24.4733333,9.22266667 C24.2173333,8.89333333 23.5346667,8.02 25.0093333,2.124 C25.048,1.968 24.9813333,1.85333333 24.94,1.79866667 C24.8653333,1.70266667 24.7506667,1.648 24.6293333,1.648 L18.6573333,1.648 C19.5466667,2.42933333 20,3.36666667 20,4.31466667 C20,5.11733333 19.6106667,6.98133333 16,6.98133333 C12.3893333,6.98133333 12,5.11733333 12,4.31466667 C12,3.36666667 12.4533333,2.42933333 13.312,1.60133333 L7.372,1.648 C7.24933333,1.648 7.136,1.704 7.06133333,1.79866667 C7.01866667,1.85333333 6.952,1.968 6.99066667,2.124 C8.46533333,8.02 7.78266667,8.89333333 7.52666667,9.22266667 C7.312,9.496 7.00666667,9.648 6.66666667,9.648 C5.62933333,9.648 5.03733333,9.19866667 4.56266667,8.836 C4.16666667,8.53333333 3.87866667,8.31466667 3.33333333,8.31466667 C2.24933333,8.31466667 1.33333333,9.95333333 1.33333333,10.9813333 C1.33333333,12.0093333 2.24933333,13.648 3.33333333,13.648 C3.87866667,13.648 4.16666667,13.4293333 4.56266667,13.1266667 C5.03733333,12.764 5.62933333,12.3146667 6.66666667,12.3146667 C7.00666667,12.3146667 7.312,12.4653333 7.52666667,12.74 C7.78266667,13.0693333 8.46533333,13.9426667 6.99066667,19.8386667 C6.952,19.9946667 7.01866667,20.1093333 7.06,20.164 C7.13466667,20.26 7.24933333,20.3146667 7.37066667,20.3146667 L13.3426667,20.3146667 C12.4533333,19.5333333 12,18.596 12,17.648 C12,16.8453333 12.3893333,14.9813333 16,14.9813333 Z" id="Shape"></path>
            </g>
        </g>
    </g>
</svg>