<svg width="30" height="30" viewBox="0 0 30 30" fill="none" xmlns="http://www.w3.org/2000/svg">
<path fill-rule="evenodd" clip-rule="evenodd" d="M7.49989 9.62091C5.68991 9.62091 4.16694 8.10744 4.16694 6.30996C4.16694 4.51247 5.68991 3 7.49989 3C9.30986 3 10.8328 4.51346 10.8328 6.30996C10.8328 6.90969 10.6633 7.4778 10.3701 7.96863C10.4893 7.95411 10.6125 7.99537 10.7079 8.09241L11.5419 8.9415C11.7079 9.11032 11.7079 9.36555 11.5419 9.53537C11.5419 9.62077 11.3749 9.62077 11.2919 9.62077C11.2079 9.62077 11.0419 9.62077 10.9579 9.53537L10.1249 8.68628C10.0618 8.62246 10.0225 8.54629 10.0071 8.46705C9.39117 9.16954 8.48832 9.62091 7.49989 9.62091ZM7.49989 3.94542C6.16691 3.94542 5.11892 4.98617 5.11892 6.30996C5.11892 7.63473 6.16691 8.6745 7.49989 8.6745C8.83287 8.6745 9.88085 7.63473 9.88085 6.31095C9.88085 4.98617 8.83287 3.94443 7.49989 3.94443V3.94542ZM7.49989 26.9999C5.68991 26.9999 4.16694 25.4865 4.16694 23.689C4.16694 21.8915 5.68991 20.379 7.49989 20.379C8.49257 20.379 9.39892 20.8343 10.015 21.5418C10.034 21.4744 10.0707 21.4103 10.1249 21.3551L10.9579 20.506C11.1249 20.3372 11.3749 20.3372 11.5419 20.506C11.7079 20.6758 11.7079 20.931 11.5419 21.0999L10.7079 21.9489C10.7079 22.0343 10.5419 22.0343 10.4579 22.0343C10.4344 22.0343 10.4041 22.0343 10.371 22.0324C10.6636 22.5228 10.8328 23.0901 10.8328 23.689C10.8328 25.4865 9.30986 26.9999 7.49989 26.9999ZM7.49989 21.3244C6.16691 21.3244 5.11892 22.3652 5.11892 23.689C5.11892 25.0137 6.16691 26.0535 7.49989 26.0535C8.83287 26.0535 9.88085 25.0137 9.88085 23.69C9.88085 22.3652 8.83287 21.3244 7.49989 21.3244ZM3.33295 18.7235C1.52298 18.7235 0 17.2111 0 15.4136C0 13.6161 1.52398 12.1036 3.33295 12.1036C4.85639 12.1036 6.17721 13.1751 6.55723 14.5862H8.60994C8.94294 14.5862 9.16593 14.7511 9.16593 14.9993C9.16593 15.2476 8.94294 15.4134 8.60994 15.4134H6.6669V15.4136C6.6669 17.2111 5.14292 18.7235 3.33295 18.7235ZM3.33295 13.049C1.99997 13.049 0.952986 14.0898 0.952986 15.4136C0.952986 16.7374 1.99997 17.7781 3.33295 17.7781C4.66693 17.7781 5.71391 16.7374 5.71391 15.4136C5.71391 14.0898 4.66693 13.049 3.33395 13.049H3.33295ZM18.7917 9.62091C18.7077 9.62091 18.5417 9.62091 18.4577 9.5355C18.2917 9.36668 18.2917 9.11145 18.4577 8.94164L19.2917 8.09255C19.3872 7.99542 19.5105 7.95417 19.6298 7.9688C19.3366 7.47793 19.167 6.90976 19.167 6.30996C19.167 4.51247 20.69 3 22.4999 3C24.3099 3 25.8329 4.51346 25.8329 6.30996C25.8329 8.10744 24.3099 9.62091 22.4999 9.62091C21.5114 9.62091 20.6085 9.16947 19.9926 8.46688C19.9772 8.54622 19.9379 8.62251 19.8747 8.68641L19.0417 9.5355C19.0417 9.62091 18.8747 9.62091 18.7917 9.62091ZM23.3329 15.4136H21.3897C21.0567 15.4136 20.8337 15.2477 20.8337 14.9995C20.8337 14.7512 21.0567 14.5863 21.3897 14.5863H23.4426C23.8225 13.1752 25.1434 12.1036 26.6669 12.1036C28.4769 12.1036 29.9998 13.6161 29.9998 15.4136C29.9998 17.2111 28.4759 18.7235 26.6669 18.7235C24.8569 18.7235 23.3329 17.2111 23.3329 15.4136ZM19.6247 22.0345C19.5417 22.0345 19.3747 22.0345 19.2917 21.9491L18.4577 21.1C18.2917 20.9312 18.2917 20.6759 18.4577 20.5061C18.6247 20.3373 18.8747 20.3373 19.0417 20.5061L19.8747 21.3552C19.929 21.4101 19.9657 21.4742 19.9847 21.5415C20.6008 20.834 21.5072 20.379 22.4999 20.379C24.3099 20.379 25.8329 21.8925 25.8329 23.689C25.8329 25.4865 24.3099 26.9999 22.4999 26.9999C20.69 26.9999 19.167 25.4865 19.167 23.689C19.167 23.0908 19.3356 22.5243 19.6274 22.0345C19.6265 22.0345 19.6256 22.0345 19.6247 22.0345ZM13.5909 13.1474C12.9193 12.6244 12.4999 11.8072 12.4999 10.8621C12.4999 9.22056 13.7639 7.9653 15.4168 7.9653C17.0688 7.9653 18.3328 9.22056 18.3328 10.8621C18.3328 11.9377 17.7896 12.8476 16.9499 13.3468C19.1262 14.2803 20.8318 16.6509 20.8318 19.078C20.8318 19.3621 20.6378 19.5517 20.3458 19.5517H9.65201C9.36001 19.5517 9.16602 19.3631 9.16602 19.078C9.16602 16.4525 11.1627 13.893 13.5909 13.1474ZM13.4719 10.8621C13.4719 9.79953 14.3469 8.93157 15.4168 8.93157V8.93058C16.4858 8.93058 17.3608 9.79953 17.3608 10.8621C17.3608 11.9237 16.4868 12.7927 15.4168 12.7927C14.3469 12.7927 13.4719 11.9247 13.4719 10.8621ZM19.8599 18.6053H10.138C10.429 16.1464 12.666 13.8763 14.9989 13.8763C17.3319 13.8763 19.5679 16.1464 19.8599 18.6053ZM20.119 6.30996C20.119 4.98617 21.167 3.94542 22.4999 3.94542V3.94443C23.8329 3.94443 24.8809 4.98617 24.8809 6.31095C24.8809 7.63473 23.8329 8.6745 22.4999 8.6745C21.167 8.6745 20.119 7.63473 20.119 6.30996ZM20.119 23.689C20.119 22.3652 21.167 21.3244 22.4999 21.3244C23.8329 21.3244 24.8809 22.3652 24.8809 23.69C24.8809 25.0137 23.8329 26.0535 22.4999 26.0535C21.167 26.0535 20.119 25.0137 20.119 23.689ZM24.2859 15.4136C24.2859 14.0898 25.3329 13.049 26.6669 13.049C27.9999 13.049 29.0478 14.0898 29.0478 15.4136C29.0478 16.7374 27.9999 17.7781 26.6659 17.7781C25.3329 17.7781 24.2859 16.7374 24.2859 15.4136Z" fill="#6E3BA1"/>
</svg>
