<?xml version="1.0" encoding="UTF-8"?>
<svg width="50px" height="50px" viewBox="0 0 50 50" version="1.1" xmlns="http://www.w3.org/2000/svg" xmlns:xlink="http://www.w3.org/1999/xlink">
    <title>Solutions / Card / Circle / deliver / omnichannel@3x</title>
    <g id="Solutions-/-Card-/-Circle-/-deliver-/-omnichannel" stroke="none" stroke-width="1" fill="none" fill-rule="evenodd">
        <g id="Group-12">
            <path d="M0,25 C0,11.1927064 11.1927064,0 25,0 C31.6296835,0 37.9888141,2.63504911 42.6768825,7.32084394 C47.3672244,12.0111859 50,18.3703165 50,25 C50,38.8072936 38.8072936,50 25,50 C11.1927064,50 0,38.8072936 0,25" id="Fill-32" fill="#4B286D"></path>
            <g id="share-2" transform="translate(10.000000, 10.000000)" fill="#FFFFFF" fill-rule="nonzero" stroke="#FFFFFF" stroke-width="0.25">
                <path d="M25,0 C27.7575,0 30,2.2425 30,5 C30,7.7575 27.7575,10 25,10 C23.2701532,10 21.7429774,9.11749602 20.8449483,7.77896386 L9.71723698,13.3410008 C9.90035176,13.8603281 10,14.4187217 10,15 C10,15.5816543 9.90022281,16.1403943 9.71688154,16.6600069 L20.8442717,22.2220449 C21.7422102,20.8829474 23.2697187,20 25,20 C27.7575,20 30,22.2425 30,25 C30,27.7575 27.7575,30 25,30 C22.2425,30 20,27.7575 20,25 C20,24.4183457 20.0997772,23.8596057 20.2831185,23.3399931 L9.15572831,17.7779551 C8.2577898,19.1170526 6.73028128,20 5,20 C2.2425,20 0,17.7575 0,15 C0,12.2425 2.2425,10 5,10 C6.73071581,10 8.258557,10.8833909 9.15640469,12.2230539 L20.2834741,6.66101453 C20.0999062,6.14111664 20,5.58203027 20,5 C20,2.2425 22.2425,0 25,0 Z M25,21.25 C22.9325,21.25 21.25,22.9325 21.25,25 C21.25,27.0675 22.9325,28.75 25,28.75 C27.0675,28.75 28.75,27.0675 28.75,25 C28.75,22.9325 27.0675,21.25 25,21.25 Z M5,11.25 C2.9325,11.25 1.25,12.9325 1.25,15 C1.25,17.0675 2.9325,18.75 5,18.75 C7.0675,18.75 8.75,17.0675 8.75,15 C8.75,12.9325 7.0675,11.25 5,11.25 Z M25,1.25 C22.9325,1.25 21.25,2.9325 21.25,5 C21.25,7.0675 22.9325,8.75 25,8.75 C27.0675,8.75 28.75,7.0675 28.75,5 C28.75,2.9325 27.0675,1.25 25,1.25 Z" id="Combined-Shape"></path>
            </g>
        </g>
    </g>
</svg>