<?xml version="1.0" encoding="UTF-8"?>
<svg width="166px" height="80px" viewBox="0 0 166 80" version="1.1" xmlns="http://www.w3.org/2000/svg" xmlns:xlink="http://www.w3.org/1999/xlink">
    <title>partner-logos-solera</title>
    <g id="partner-logos-solera" stroke="none" stroke-width="1" fill="none" fill-rule="evenodd">
        <g id="Solera" transform="translate(0.000000, 0.000000)" fill="#FFFFFF" fill-rule="nonzero">
            <path d="M20.5252486,26.6 L11.3252486,22.4666667 C7.12524864,20.4666667 5.25858197,15.5333333 7.19191531,11.3333333 C9.19191531,7.13333333 14.1252486,5.26666667 18.3252486,7.2 C19.9919153,7.93333333 21.3252486,9.26666667 22.1919153,10.7333333 C22.7919153,11.8 24.058582,12.1333333 24.9919153,11.5333333 C26.058582,10.9333333 26.3919153,9.66666667 25.7919153,8.73333333 C24.5919153,6.53333333 22.5919153,4.6 19.9919153,3.4 C13.5919153,0.533333333 6.19191531,3.26666667 3.25858197,9.66666667 C0.325248639,16.0666667 3.12524864,23.4666667 9.52524864,26.4 L18.7252486,30.5333333 C22.3919153,32.2 24.9252486,36 24.858582,40.3333333 C24.7252486,46.1333333 19.9252486,50.8 14.1252486,50.6666667 C9.25858197,50.6 5.25858197,47.1333333 4.12524864,42.7333333 C3.85858197,41.6 2.65858197,40.9333333 1.59191531,41.2 C0.458581972,41.4666667 -0.208084695,42.6666667 0.0585819719,43.7333333 C1.65858197,50.0666667 7.25858197,54.8 14.058582,54.9333333 C22.1919153,55.0666667 28.9252486,48.5333333 29.058582,40.4666667 C29.258582,34.2666667 25.658582,28.9333333 20.5252486,26.6" id="Path"></path>
            <path d="M48.3252486,50.5333333 C42.5252486,50.5333333 37.7919153,45.8 37.7919153,40 C37.7919153,34.2 42.5252486,29.4666667 48.3252486,29.4666667 C54.1252486,29.4666667 58.7919153,34.2 58.7919153,40 C58.7919153,45.8 54.058582,50.5333333 48.3252486,50.5333333 M48.3252486,25.2666667 C40.1919153,25.2666667 33.5919153,31.8666667 33.5919153,40 C33.5919153,48.1333333 40.1919153,54.7333333 48.3252486,54.7333333 C56.458582,54.7333333 63.058582,48.1333333 63.058582,40 C63.058582,31.8666667 56.3919153,25.2666667 48.3252486,25.2666667" id="Shape"></path>
            <path d="M82.1919153,47.6666667 C81.1252486,47.0666667 79.858582,47.4666667 79.3252486,48.4 C78.5919153,49.6666667 77.1919153,50.5333333 75.7252486,50.5333333 C73.3919153,50.5333333 71.5252486,48.6666667 71.5252486,46.3333333 L71.5252486,14.7333333 C71.5252486,13.6 70.5919153,12.6 69.3919153,12.6 C68.258582,12.6 67.258582,13.5333333 67.258582,14.7333333 L67.258582,46.3333333 C67.258582,50.9333333 71.058582,54.7333333 75.658582,54.7333333 C78.7919153,54.7333333 81.458582,53.0666667 82.9252486,50.5333333 C83.5252486,49.4666667 83.1252486,48.2 82.1919153,47.6666667" id="Path"></path>
            <path d="M133.791915,32.3333333 C132.725249,32.9333333 131.458582,32.5333333 130.925249,31.6 C130.191915,30.3333333 128.791915,29.4666667 127.325249,29.4666667 C124.991915,29.4666667 123.125249,31.3333333 123.125249,33.6666667 L123.125249,65.2666667 C123.125249,66.4 122.191915,67.4 120.991915,67.4 C119.858582,67.4 118.858582,66.4666667 118.858582,65.2666667 L118.858582,33.6666667 C118.858582,29.0666667 122.658582,25.2666667 127.258582,25.2666667 C130.391915,25.2666667 133.058582,26.9333333 134.525249,29.4666667 C135.125249,30.5333333 134.725249,31.8 133.791915,32.3333333" id="Path"></path>
            <path d="M92.5252486,9.66666667 C86.5919153,3.66666667 78.3919153,0 69.3252486,0 C60.258582,0 52.058582,3.66666667 46.1919153,9.66666667 C45.3252486,10.5333333 45.3252486,11.8666667 46.1919153,12.6 C47.058582,13.4666667 48.3919153,13.4666667 49.1252486,12.6 C54.258582,7.46666667 61.458582,4.2 69.3252486,4.2 C77.1919153,4.2 84.3919153,7.46666667 89.5252486,12.6 C90.3919153,13.4666667 91.7252486,13.4666667 92.458582,12.6 C93.3252486,11.8 93.3252486,10.5333333 92.5252486,9.66666667" id="Path"></path>
            <path d="M144.058582,70.3333333 C138.191915,76.3333333 129.925249,80 120.925249,80 C111.858582,80 103.658582,76.3333333 97.7919153,70.3333333 C96.9252486,69.4666667 96.9252486,68.1333333 97.7919153,67.4 C98.658582,66.5333333 99.9919153,66.5333333 100.725249,67.4 C105.858582,72.5333333 113.058582,75.8 120.925249,75.8 C128.791915,75.8 135.991915,72.5333333 141.125249,67.4 C141.991915,66.5333333 143.325249,66.5333333 144.058582,67.4 C144.925249,68.2 144.925249,69.4666667 144.058582,70.3333333" id="Path"></path>
            <path d="M99.858582,29.4666667 C104.925249,29.4666667 109.258582,33.0666667 110.191915,37.8666667 L89.5919153,37.8666667 C90.5252486,33.0666667 94.7919153,29.4666667 99.858582,29.4666667 M99.858582,25.2666667 C91.7252486,25.2666667 85.1252486,31.8666667 85.1252486,40 C85.1252486,48.1333333 91.7252486,54.7333333 99.858582,54.7333333 C103.991915,54.7333333 107.658582,53.0666667 110.258582,50.4 C111.125249,49.5333333 111.125249,48.2666667 110.258582,47.4666667 C109.391915,46.6 108.058582,46.6 107.325249,47.4666667 C105.458582,49.3333333 102.791915,50.5333333 99.858582,50.5333333 C94.7919153,50.5333333 90.458582,46.9333333 89.5252486,42.1333333 L112.458582,42.1333333 C113.591915,42.1333333 114.591915,41.2 114.591915,40 C114.591915,31.8666667 107.991915,25.2666667 99.858582,25.2666667" id="Shape"></path>
            <path d="M151.458582,50.5333333 C145.658582,50.5333333 140.925249,45.8 140.925249,40 C140.925249,34.2 145.658582,29.4666667 151.458582,29.4666667 C157.258582,29.4666667 161.991915,34.2 161.991915,40 C161.991915,45.8 157.258582,50.5333333 151.458582,50.5333333 M151.458582,25.2666667 C143.325249,25.2666667 136.725249,31.8666667 136.725249,40 C136.725249,48.1333333 143.325249,54.7333333 151.458582,54.7333333 C155.591915,54.7333333 159.325249,53.0666667 161.991915,50.3333333 L161.991915,52.6666667 C161.991915,53.8 162.925249,54.8 164.125249,54.8 C165.258582,54.8 166.258582,53.8666667 166.258582,52.6666667 L166.258582,40 C166.191915,31.8666667 159.525249,25.2666667 151.458582,25.2666667" id="Shape"></path>
        </g>
    </g>
</svg>