<svg width="30" height="30" viewBox="0 0 30 30" fill="none" xmlns="http://www.w3.org/2000/svg">
<path d="M25.6001 1.10001H4.4001C2.6001 1.10001 1.1001 2.60001 1.1001 4.40001V25.6C1.1001 27.4 2.6001 28.9 4.4001 28.9H25.6001C27.4001 28.9 28.9001 27.4 28.9001 25.6V4.40001C28.9001 2.60001 27.4001 1.10001 25.6001 1.10001ZM15.7001 2.40001H21.0001V7.70001H18.3001C18.0001 6.40001 17.0001 5.40001 15.7001 5.10001V2.40001ZM21.0001 9.00001V11.7C19.7001 12 18.7001 13 18.4001 14.3H15.7001V11.6C17.0001 11.4 18.0001 10.3 18.2001 9.00001H21.0001ZM9.0001 2.40001H14.3001V5.10001C13.0001 5.40001 12.0001 6.40001 11.8001 7.70001H9.0001V2.40001ZM2.4001 4.40001C2.4001 3.30001 3.3001 2.40001 4.4001 2.40001H7.7001V7.70001H2.4001V4.40001ZM2.4001 9.00001H7.7001V14.3H2.4001V9.00001ZM2.4001 15.7H7.7001V18.4C6.4001 18.7 5.4001 19.7 5.1001 21H2.4001V15.7ZM7.7001 27.6H4.4001C3.3001 27.6 2.4001 26.7 2.4001 25.6V22.3H5.1001C5.4001 23.6 6.4001 24.6 7.7001 24.9V27.6V27.6ZM6.4001 21.6C6.4001 20.5 7.3001 19.6 8.4001 19.6C9.5001 19.6 10.4001 20.5 10.4001 21.6C10.4001 22.7 9.5001 23.6 8.4001 23.6C7.3001 23.6 6.4001 22.7 6.4001 21.6ZM14.3001 27.6H9.0001V24.9C10.3001 24.6 11.3001 23.6 11.6001 22.3H14.3001V27.6ZM14.3001 21H11.6001C11.3001 19.7 10.3001 18.7 9.0001 18.4V15.7H14.3001V21ZM14.3001 14.3H9.0001V9.00001H11.7001C12.0001 10.3 13.0001 11.3 14.3001 11.6C14.3001 11.6 14.3001 14.3 14.3001 14.3ZM13.0001 8.40001C13.0001 7.30001 13.9001 6.40001 15.0001 6.40001C16.1001 6.40001 17.0001 7.30001 17.0001 8.40001C17.0001 9.50001 16.1001 10.4 15.0001 10.4C13.9001 10.4 13.0001 9.50001 13.0001 8.40001ZM21.0001 27.6H15.7001V22.3H21.0001V27.6ZM21.0001 21H15.7001V15.7H18.4001C18.7001 17 19.7001 18 21.0001 18.3V21ZM19.6001 15C19.6001 13.9 20.5001 13 21.6001 13C22.7001 13 23.6001 13.9 23.6001 15C23.6001 16.1 22.7001 17 21.6001 17C20.5001 17 19.6001 16.1 19.6001 15ZM27.6001 25.6C27.6001 26.7 26.7001 27.6 25.6001 27.6H22.3001V22.3H27.6001V25.6ZM27.6001 21H22.3001V18.3C23.6001 18 24.6001 17 24.9001 15.7H27.6001V21ZM27.6001 14.3H24.9001C24.6001 13 23.6001 12 22.3001 11.7V9.00001H27.6001V14.3ZM27.6001 7.70001H22.3001V2.40001H25.6001C26.7001 2.40001 27.6001 3.30001 27.6001 4.40001V7.70001Z" fill="#6E3BA1"/>
</svg>
