<svg width="30" height="30" viewBox="0 0 30 30" fill="none" xmlns="http://www.w3.org/2000/svg">
<g clip-path="url(#clip0_1219_9326)">
<path d="M28.75 13.8774H28.4687C28.22 13.8774 27.995 13.7299 27.895 13.5012C27.3437 12.2299 25.845 11.3774 24.1663 11.3774C22.4875 11.3774 20.99 12.2312 20.4387 13.5012C20.3387 13.7299 20.1138 13.8774 19.865 13.8774H19.3037C19.055 13.8774 18.83 13.7299 18.73 13.5012C18.1775 12.2299 16.68 11.3774 15 11.3774C13.32 11.3774 11.8225 12.2312 11.2713 13.5012C11.1713 13.7299 10.9462 13.8774 10.6975 13.8774H10.135C9.88625 13.8774 9.66125 13.7299 9.56125 13.5012C9.01 12.2299 7.5125 11.3774 5.83375 11.3774C4.15375 11.3774 2.65625 12.2312 2.105 13.5012C2.005 13.7299 1.78 13.8774 1.53125 13.8774H1.25C0.905 13.8774 0.625 13.5974 0.625 13.2524C0.625 6.70494 7.07375 1.37744 15 1.37744C22.9263 1.37744 29.375 6.70494 29.375 13.2524C29.375 13.5974 29.095 13.8774 28.75 13.8774ZM15 10.1274C16.9287 10.1274 18.6912 11.0399 19.5837 12.4512C20.4762 11.0399 22.2388 10.1274 24.1663 10.1274C25.6225 10.1274 26.985 10.6487 27.9487 11.5112C26.92 6.47744 21.505 2.62744 15 2.62744C8.495 2.62744 3.08 6.47744 2.05125 11.5112C3.015 10.6487 4.3775 10.1274 5.83375 10.1274C7.76125 10.1274 9.52375 11.0399 10.4163 12.4512C11.3088 11.0399 13.0713 10.1274 15 10.1274Z" fill="#6E3BA1"/>
<path d="M10.1348 13.8774C9.78977 13.8774 9.50977 13.5974 9.50977 13.2524C9.50977 9.17494 11.6473 1.37744 14.9998 1.37744C15.3448 1.37744 15.6248 1.65744 15.6248 2.00244C15.6248 2.34744 15.3448 2.62744 14.9998 2.62744C12.9935 2.62744 10.7598 8.95994 10.7598 13.2524C10.7598 13.5974 10.481 13.8774 10.1348 13.8774Z" fill="#6E3BA1"/>
<path d="M19.9998 13.8774C19.6548 13.8774 19.3748 13.5974 19.3748 13.2524C19.3748 8.95994 17.1423 2.62744 15.1348 2.62744C14.7898 2.62744 14.5098 2.34744 14.5098 2.00244C14.5098 1.65744 14.7898 1.37744 15.1348 1.37744C18.4873 1.37744 20.6248 9.17494 20.6248 13.2524C20.6248 13.5974 20.3448 13.8774 19.9998 13.8774Z" fill="#6E3BA1"/>
<path d="M15 2.62744C14.655 2.62744 14.375 2.34744 14.375 2.00244V0.752441C14.375 0.407441 14.655 0.127441 15 0.127441C15.345 0.127441 15.625 0.407441 15.625 0.752441V2.00244C15.625 2.34744 15.345 2.62744 15 2.62744ZM12.5 30.1274C10.7762 30.1274 9.375 28.7249 9.375 27.0024C9.375 25.3662 10.1488 24.7074 10.2362 24.6374C10.505 24.4237 10.8987 24.4674 11.115 24.7399C11.3287 25.0099 11.2825 25.4037 11.0125 25.6174C11.0125 25.6187 10.6237 25.9862 10.6237 27.0024C10.6237 28.0362 11.465 28.8774 12.4987 28.8774C13.5325 28.8774 14.3737 28.0362 14.3737 27.0024V10.7524C14.3737 10.4074 14.6537 10.1274 14.9987 10.1274C15.3437 10.1274 15.6237 10.4074 15.6237 10.7524V27.0024C15.625 28.7249 14.2237 30.1274 12.5 30.1274Z" fill="#6E3BA1"/>
</g>
<defs>
<clipPath id="clip0_1219_9326">
<rect width="30" height="30" fill="white"/>
</clipPath>
</defs>
</svg>
