<svg width="40" height="40" viewBox="0 0 40 40" fill="none" xmlns="http://www.w3.org/2000/svg">
<path fill-rule="evenodd" clip-rule="evenodd" d="M39.7764 22.7558C40.7763 27.095 38.3323 31.8081 34.2532 32.9761C30.0211 34.188 21.3392 32.836 21.3333 20.6708C21.3333 13.6976 24.589 9.45469 28.1888 6.9288C28.4205 6.77321 28.6906 6.68329 28.9699 6.66873C29.2492 6.65417 29.5273 6.71551 29.7741 6.84616C30.0209 6.97681 30.2272 7.17182 30.3708 7.4102C30.5143 7.64859 30.5896 7.92132 30.5887 8.19905C30.583 8.5735 30.4433 8.93372 30.1946 9.21524C28.7564 10.9001 27.8418 13.1457 27.8418 16.1213V16.5097C27.8682 17.4996 28.7358 18.1449 29.5005 17.7507C29.8647 17.5606 30.2445 17.4013 30.6357 17.2747C34.6855 15.9665 38.7764 18.4165 39.7764 22.7558ZM18.443 22.7558C19.443 27.095 16.999 31.8081 12.9198 32.9761C8.69067 34.188 0.00588198 32.836 0 20.6708C0 13.6976 3.25569 9.45469 6.85549 6.9288C7.08719 6.7732 7.35723 6.68329 7.63656 6.66873C7.9159 6.65417 8.19395 6.71551 8.44078 6.84616C8.68762 6.97681 8.89389 7.17182 9.03742 7.4102C9.18095 7.64859 9.25629 7.92132 9.25534 8.19905C9.24967 8.5735 9.10998 8.93372 8.86125 9.21524C7.4231 10.9001 6.50845 13.1457 6.50845 16.1213V16.5097C6.53492 17.4996 7.4025 18.1449 8.16716 17.7507C8.53138 17.5606 8.91116 17.4013 9.30241 17.2747C13.3522 15.9665 17.4431 18.4165 18.443 22.7558Z" fill="url(#paint0_linear_1064_5197)"/>
<defs>
<linearGradient id="paint0_linear_1064_5197" x1="20" y1="11.114" x2="30.9964" y2="29.5119" gradientUnits="userSpaceOnUse">
<stop stop-color="#2A2C2E"/>
<stop offset="1" stop-color="#4B286D"/>
</linearGradient>
</defs>
</svg>
