<svg width="30" height="30" viewBox="0 0 30 30" fill="none" xmlns="http://www.w3.org/2000/svg">
<path d="M17.8269 21.4039C17.8269 21.1731 17.6538 20.9423 17.3653 20.9423H15.2884V14.8846H27.2307V15.2308C27.2307 15.4039 27.2307 15.5769 27.2307 15.75C27.2307 15.9808 27.4038 16.2116 27.6345 16.2116C27.8653 16.2116 28.0961 16.0385 28.0961 15.8077C28.1538 15.3462 28.1538 14.8846 28.1538 14.4231C28.1538 7.09618 22.2115 1.15387 14.8845 1.15387C7.49993 1.15387 1.55762 7.09618 1.55762 14.4231C1.55762 21.75 7.49993 27.6923 14.8269 27.6923C15.0576 27.6923 15.2884 27.5193 15.2884 27.2308V21.8077H17.3653C17.5961 21.8654 17.8269 21.6923 17.8269 21.4039ZM25.3845 7.90387C26.4807 9.69233 27.1153 11.7116 27.2307 13.7885V13.9616H22.2692V13.8462C22.2115 11.7693 21.923 9.80772 21.4038 8.01925L21.3461 7.84618H25.3269L25.3845 7.90387ZM18.6922 2.65387C20.9999 3.40387 23.0192 4.84618 24.5769 6.75002L24.7499 6.98079H21.0576L20.9999 6.86541C20.3653 5.25002 19.5576 3.86541 18.5769 2.88464L18.173 2.48079L18.6922 2.65387ZM15.2884 2.01925L15.4615 2.07695C17.1922 2.4231 18.8653 4.09618 19.9615 6.75002L20.0192 6.9231H15.2307V2.01925H15.2884ZM15.2884 7.84618H20.3653L20.423 7.96156C20.9999 9.75002 21.3461 11.7693 21.4038 13.8462V14.0193H15.2884V7.84618ZM5.13454 6.75002C6.63454 4.78848 8.65377 3.40387 10.9615 2.65387L11.5384 2.48079L11.1345 2.88464C10.1538 3.86541 9.28839 5.25002 8.71147 6.86541L8.65377 6.98079H4.90377L5.13454 6.75002ZM2.48069 13.8462C2.59608 11.7693 3.23069 9.69233 4.32685 7.96156L4.38454 7.90387H8.36531L8.30762 8.07695C7.78839 9.86541 7.49993 11.7693 7.44223 13.9039V14.0193H2.48069V13.8462ZM4.26916 20.9423C3.173 19.1539 2.53839 17.1346 2.423 15.0577V14.8846H7.38454V15C7.44223 17.0769 7.7307 19.0385 8.24993 20.8269L8.30762 21H4.32685L4.26916 20.9423ZM10.9615 26.1923C8.65377 25.4423 6.63454 24 5.07685 22.0962L4.90377 21.8654H8.65377L8.71147 21.9808C9.34608 23.5962 10.1538 24.9808 11.1345 25.9616L11.5384 26.3654L10.9615 26.1923ZM14.423 26.7693L14.2499 26.7116C12.5192 26.3654 10.8461 24.6923 9.74993 22.0385L9.69223 21.8654H14.423V26.7693ZM14.423 21H9.34608L9.28839 20.8846C8.71147 19.0962 8.36531 17.0769 8.30762 15V14.8269H14.423V21ZM14.423 13.9616H8.30762V13.7885C8.36531 11.7116 8.71147 9.69233 9.28839 7.90387L9.34608 7.78848H14.423V13.9616ZM14.423 6.98079H9.63454L9.69223 6.80772C10.7884 4.15387 12.4615 2.4231 14.1922 2.13464L14.423 2.01925V6.98079Z" fill="#6E3BA1"/>
<path d="M26.9997 25.5L25.1535 25.0385L25.0382 24.5769L25.0959 24.5192C25.5574 24.0577 25.8459 23.4231 25.9612 22.7885V22.7308L26.0189 22.6731C26.3074 22.5577 26.4805 22.2692 26.5382 21.9231L26.6535 20.8846C26.7112 20.5962 26.5959 20.3654 26.4228 20.1346C26.3651 20.0769 26.3074 20.0192 26.2497 19.9615L26.192 19.9039L26.2497 19.1539L26.4228 18.9808C26.7689 18.6346 27.0574 18.0577 26.4805 17.1923C26.192 16.7308 25.6151 16.2115 24.4035 16.2115C24.0574 16.2115 23.2497 16.2115 22.442 16.6731H22.3843H22.3266C20.0766 16.7308 19.7882 17.8846 19.7882 18.8654C19.7882 19.0385 19.7882 19.2692 19.8459 19.7308V19.8462L19.7882 19.9039C19.7305 19.9615 19.6728 20.0192 19.5574 20.0769C19.3843 20.3077 19.2689 20.5385 19.3266 20.8269L19.442 21.8654C19.4997 22.2115 19.6728 22.4423 20.0189 22.6154L20.0766 22.6731V22.7308C20.192 23.3654 20.4805 23.9423 20.8843 24.4039L20.942 24.4615L20.8266 24.9808L19.0382 25.5C17.6535 25.8462 16.7305 27.0577 16.7305 28.4423C16.7305 28.5577 16.7882 28.6731 16.8459 28.7308C16.9035 28.7885 17.0189 28.8462 17.1343 28.8462H28.8459C29.0766 28.8462 29.3074 28.6731 29.3074 28.3846C29.3074 27.0577 28.3266 25.8462 26.9997 25.5ZM17.6535 27.9808L17.7112 27.8077C17.942 27.0577 18.5189 26.5385 19.2689 26.3077L21.3459 25.7885C21.5189 25.7308 21.6343 25.6154 21.692 25.4423L21.9228 24.4615C21.9805 24.2885 21.9228 24.1154 21.8074 24.0577C21.3459 23.5962 20.9997 22.9615 20.942 22.2692C20.942 22.0385 20.7112 21.9231 20.4805 21.9231H20.3651L20.192 20.7692H20.3651C20.4805 20.7692 20.5959 20.7115 20.7112 20.5962C20.7689 20.4808 20.8266 20.3654 20.8266 20.25C20.7689 20.0192 20.7112 19.2692 20.7112 19.0385C20.7112 18.2885 20.8266 17.7115 22.5574 17.7115C22.6728 17.7115 22.7305 17.6539 22.7882 17.6539C23.3651 17.25 24.0574 17.25 24.4035 17.25C25.0382 17.25 25.4997 17.4231 25.7305 17.8269C26.0189 18.2308 25.9035 18.4039 25.7882 18.5192L25.4997 18.8077C25.442 18.8077 25.3843 18.9231 25.3843 19.0385L25.3266 20.3077C25.3266 20.4231 25.3266 20.5385 25.3843 20.5962C25.442 20.6539 25.4997 20.7115 25.6728 20.7115H25.8459L25.7305 21.9231H25.6151C25.3843 21.9231 25.2112 22.0962 25.1535 22.3269C25.0959 23.0192 24.7497 23.6539 24.2882 24.1154C24.1728 24.2308 24.1151 24.4039 24.1728 24.5769L24.4035 25.5577C24.4612 25.7308 24.5766 25.8462 24.7497 25.9039L26.8266 26.4231C27.5766 26.5962 28.1535 27.1731 28.3843 27.9231L28.442 28.0962L17.6535 27.9808Z" fill="#6E3BA1"/>
</svg>
