<svg width="30" height="30" viewBox="0 0 30 30" fill="none" xmlns="http://www.w3.org/2000/svg">
<path d="M15.0001 6.11536C14.7117 6.11536 14.5386 6.34613 14.5386 6.57689C14.5386 6.80766 14.7693 7.03843 15.0001 7.03843C15.2886 7.03843 15.4617 6.80766 15.4617 6.57689C15.4617 6.34613 15.2886 6.11536 15.0001 6.11536Z" fill="#6E3BA1"/>
<path d="M29.0769 21C29.0192 20.8269 28.8462 20.7692 28.6731 20.7692H26.6538V6.34613C26.6538 5.42305 25.9038 4.61536 24.9231 4.61536H5.07692C4.15385 4.61536 3.34615 5.36536 3.34615 6.34613V20.7692H1.38462C1.21154 20.7692 1.03846 20.8846 0.980769 21C0.923077 21.173 0.923077 21.3461 0.980769 21.4615L2.36538 23.5384C3.17308 24.6923 4.44231 25.3846 5.82692 25.3846H24.1731C25.5577 25.3846 26.8846 24.6923 27.6346 23.5384L29.0192 21.4615C29.1346 21.2884 29.1346 21.1154 29.0769 21ZM4.32692 6.34613C4.32692 5.94228 4.67308 5.59613 5.07692 5.59613H24.9231C25.3269 5.59613 25.6731 5.94228 25.6731 6.34613V20.7692H21.6346V20.6538C21.4038 19.3846 20.4808 18.4038 19.2692 18.1154L17.3077 17.5961L17.1923 17.1346L17.25 17.0769C17.7115 16.5577 18.0577 15.923 18.1731 15.2307V15.173L18.2308 15.1154C18.5192 14.9423 18.75 14.6538 18.75 14.3654L18.8654 13.2692C18.9231 12.9807 18.8077 12.6923 18.6346 12.4615C18.5769 12.4038 18.5192 12.3461 18.4615 12.2884L18.4038 12.2307L18.4615 11.423L18.6346 11.25C18.9808 10.9038 19.2692 10.2115 18.6923 9.34613C18.4038 8.88459 17.7692 8.30766 16.5 8.30766C16.1538 8.30766 15.2308 8.30766 14.4231 8.82689H14.3654H14.3077C11.8846 8.88459 11.5962 10.1538 11.5962 11.1923C11.5962 11.3654 11.5962 11.6538 11.6538 12.0577V12.173L11.5385 12.2307C11.4808 12.2884 11.3654 12.3461 11.3077 12.4038C11.1346 12.6346 11.0192 12.923 11.0769 13.2115L11.1923 14.3077C11.25 14.6538 11.4808 14.9423 11.7692 15.1154L11.8269 15.173V15.2307C11.9423 15.8654 12.2885 16.5 12.6923 17.0192L12.75 17.0769L12.6346 17.5961L10.6731 18.0577C9.46154 18.3461 8.53846 19.3846 8.30769 20.5961V20.7115H4.26923V6.34613H4.32692ZM13.7308 16.5577C13.2115 16.0961 12.8654 15.4038 12.8077 14.7115C12.8077 14.423 12.5192 14.3654 12.3462 14.3654H12.2308L12 13.0961H12.1731C12.2885 13.0961 12.4615 13.0384 12.5192 12.923C12.6346 12.8077 12.6346 12.6923 12.6346 12.5769C12.5769 12.173 12.5192 11.5384 12.5192 11.3077C12.5192 10.5 12.6346 9.92305 14.4808 9.92305C14.5962 9.92305 14.6538 9.86536 14.7692 9.80766C15.4038 9.34613 16.0962 9.34613 16.4423 9.34613C17.1346 9.34613 17.5962 9.5192 17.8846 9.92305C18.1731 10.3269 18.0577 10.5577 17.9423 10.673L17.6538 10.9615C17.5962 11.0192 17.5385 11.1346 17.5385 11.25L17.4808 12.5769C17.4808 12.75 17.4808 12.8077 17.5962 12.8654C17.6538 12.923 17.7115 12.9807 17.8846 12.9807H18.0577L17.8846 14.25H17.7692C17.5385 14.25 17.3077 14.423 17.3077 14.7115C17.25 15.4038 16.9038 16.1538 16.3846 16.6154C16.2115 16.7307 16.1538 16.9038 16.1538 17.0769L16.3846 18.1154C16.4423 18.2884 16.5577 18.4038 16.7308 18.4615L18.9808 19.0384C19.7308 19.2115 20.3654 19.8461 20.5962 20.5961L20.6538 20.7692H9.28846L9.34615 20.5961C9.57692 19.8461 10.2115 19.2115 10.9615 19.0384L13.2115 18.4615C13.3846 18.4038 13.5 18.2884 13.5577 18.1154L13.8462 17.0769C13.9038 16.8461 13.8462 16.673 13.7308 16.5577ZM26.8846 23.0192C26.3077 23.9423 25.2692 24.4615 24.1731 24.4615H5.82692C4.73077 24.4615 3.75 23.9423 3.11538 23.0192L2.25 21.6923H27.75L26.8846 23.0192Z" fill="#6E3BA1"/>
</svg>
