<svg width="30" height="30" viewBox="0 0 30 30" fill="none" xmlns="http://www.w3.org/2000/svg">
<path d="M6.80333 16.2124C6.58307 16.1209 6.32827 16.1713 6.1584 16.3384L4.2096 18.2573L2.2608 16.3365C2.09187 16.1685 1.83613 16.12 1.6168 16.2096C1.39467 16.3001 1.25 16.5129 1.25 16.7491V28.4157C1.25 28.7377 1.51507 28.9991 1.84173 28.9991H6.57653C6.9032 28.9991 7.16827 28.7377 7.16827 28.4157V16.7491C7.16827 16.5129 7.0236 16.3001 6.8024 16.2115L6.80333 16.2124ZM5.98573 27.8333H2.4344V18.1584L3.7924 19.4949C4.02293 19.7227 4.39907 19.7227 4.62867 19.4949L5.98573 18.1584V27.8333V27.8333ZM27.1164 7.00413C27.0053 6.89493 26.8551 6.83333 26.6983 6.83333H25.5139C25.3571 6.83333 25.2059 6.89493 25.0957 7.00413L22.7279 9.33747C22.6177 9.44667 22.5552 9.59507 22.5552 9.75V28.4167C22.5552 28.7387 22.8203 29 23.1469 29H27.8817C28.2084 29 28.4735 28.7387 28.4735 28.4167V8.58333C28.4735 8.4284 28.41 8.28 28.3008 8.1708L27.1164 7.00413V7.00413ZM27.2909 27.8333H23.7396V9.99173L25.7603 8H26.4537L27.2909 8.82507V27.8333ZM27.8817 1H24.3304C24.0915 1 23.8759 1.14187 23.7835 1.36027C23.692 1.57867 23.7424 1.82973 23.9113 1.99587L25.2684 3.33333L20.78 7.75827L18.8303 5.8384C18.5997 5.61067 18.2245 5.61067 17.994 5.8384L13.6783 10.0907L11.7295 8.1708C11.4989 7.94307 11.1228 7.94307 10.8923 8.1708L4.2096 14.7573L2.2608 12.8375C2.03027 12.6097 1.65413 12.6097 1.4236 12.8375C1.19307 13.0652 1.19307 13.4348 1.4236 13.6625L3.79147 15.9959C3.9072 16.1079 4.0584 16.1657 4.21053 16.1657C4.36173 16.1657 4.51293 16.1088 4.62867 15.994L11.3113 9.40747L13.2611 11.3273C13.4916 11.5551 13.8668 11.5551 14.0973 11.3273L18.4131 7.07413L20.3609 8.99587C20.5915 9.22267 20.9676 9.22267 21.1981 8.99587L26.1056 4.1584L27.4627 5.49587C27.5756 5.606 27.7277 5.66573 27.8817 5.66573C27.9564 5.66573 28.0348 5.65173 28.1076 5.62093C28.3288 5.53133 28.4735 5.31853 28.4735 5.0824V1.58333C28.4735 1.26133 28.2084 1 27.8817 1ZM27.29 3.67493L25.7593 2.16667H27.29V3.67493ZM18.8303 9.33653C18.5997 9.10973 18.2245 9.10973 17.994 9.33653L15.6271 11.6699C15.5169 11.78 15.4544 11.9284 15.4544 12.0833V28.4167C15.4544 28.7387 15.7195 29 16.0461 29H20.78C21.1067 29 21.3717 28.7387 21.3717 28.4167V12.0833C21.3717 11.9284 21.3092 11.78 21.1981 11.6699L18.8303 9.33653ZM20.1883 27.8333H16.6379V12.3251L18.4131 10.5751L20.1883 12.3251V27.8333V27.8333ZM11.7295 11.6699C11.4989 11.4431 11.1228 11.4431 10.8923 11.6699L8.52533 14.0032C8.4152 14.1133 8.35267 14.2617 8.35267 14.4167V28.4167C8.35267 28.7387 8.61773 29 8.9444 29H13.6783C14.0049 29 14.27 28.7387 14.27 28.4167V14.4167C14.27 14.2617 14.2075 14.1133 14.0964 14.0032L11.7295 11.6699V11.6699ZM13.0856 27.8333H9.53613V14.6584L11.3113 12.9084L13.0865 14.6584V27.8333H13.0856Z" fill="#6E3BA1"/>
</svg>
