<svg width="50" height="54" viewBox="0 0 50 54" fill="none" xmlns="http://www.w3.org/2000/svg">
<path fill-rule="evenodd" clip-rule="evenodd" d="M15.6216 37.5561C18.4925 37.5561 20.83 35.077 20.83 32.0322C20.83 30.9076 20.507 29.8647 19.9612 28.9919L25.2529 23.3797C26.0779 23.9564 27.0612 24.2988 28.1216 24.2988C30.9925 24.2988 33.33 21.8197 33.33 18.775C33.33 18.2624 33.2425 17.7763 33.1175 17.3034L38.6654 13.3815C39.6216 14.6387 41.0675 15.4607 42.705 15.4607C45.5758 15.4607 47.9133 12.9816 47.9133 9.93683C47.9133 6.89208 45.5758 4.41298 42.705 4.41298C39.8341 4.41298 37.4966 6.89208 37.4966 9.93683C37.4966 10.4494 37.5841 10.9355 37.7071 11.4062L32.1591 15.3281C31.2029 14.0731 29.757 13.2511 28.1216 13.2511C25.2508 13.2511 22.9133 15.7302 22.9133 18.775C22.9133 19.8996 23.2362 20.9425 23.782 21.8153L18.4904 27.4275C17.6654 26.8509 16.682 26.5084 15.6216 26.5084C12.7508 26.5084 10.4133 28.9875 10.4133 32.0322C10.4133 35.077 12.7508 37.5561 15.6216 37.5561ZM42.7127 6.6314C44.4356 6.6314 45.8377 8.11842 45.8377 9.94571C45.8377 11.773 44.4356 13.26 42.7127 13.26C40.9898 13.26 39.5877 11.773 39.5877 9.94571C39.5877 8.11842 40.9898 6.6314 42.7127 6.6314ZM28.125 15.4693C29.8479 15.4693 31.25 16.9563 31.25 18.7836C31.25 20.6109 29.8479 22.0979 28.125 22.0979C26.4021 22.0979 25 20.6109 25 18.7836C25 16.9563 26.4021 15.4693 28.125 15.4693ZM15.625 28.721C17.3479 28.721 18.75 30.2081 18.75 32.0354C18.75 33.8626 17.3479 35.3497 15.625 35.3497C13.9021 35.3497 12.5 33.8626 12.5 32.0354C12.5 30.2081 13.9021 28.721 15.625 28.721ZM48.9583 46.4004H6.25V1.10477C6.25 0.494937 5.78333 0 5.20833 0C4.63333 0 4.16667 0.494937 4.16667 1.10477V46.4004H1.04167C0.466667 46.4004 0 46.8953 0 47.5051C0 48.115 0.466667 48.6099 1.04167 48.6099H4.16667V51.9242C4.16667 52.5341 4.63333 53.029 5.20833 53.029C5.78333 53.029 6.25 52.5341 6.25 51.9242V48.6099H48.9583C49.5333 48.6099 50 48.115 50 47.5051C50 46.8953 49.5333 46.4004 48.9583 46.4004ZM41.6623 18.7814V43.0864C41.6623 43.6962 42.129 44.1912 42.704 44.1912C43.279 44.1912 43.7457 43.6962 43.7457 43.0864V18.7814C43.7457 18.1716 43.279 17.6767 42.704 17.6767C42.129 17.6767 41.6623 18.1716 41.6623 18.7814ZM14.5867 40.8822V43.0918C14.5867 43.7016 15.0534 44.1965 15.6284 44.1965C16.2034 44.1965 16.67 43.7016 16.67 43.0918V40.8822C16.67 40.2724 16.2034 39.7775 15.6284 39.7775C15.0534 39.7775 14.5867 40.2724 14.5867 40.8822ZM27.0885 27.6193V43.0861C27.0885 43.6959 27.5552 44.1909 28.1302 44.1909C28.7052 44.1909 29.1719 43.6959 29.1719 43.0861V27.6193C29.1719 27.0095 28.7052 26.5145 28.1302 26.5145C27.5552 26.5145 27.0885 27.0095 27.0885 27.6193Z" fill="#4B286D"/>
</svg>
