<svg width="30" height="30" viewBox="0 0 30 30" fill="none" xmlns="http://www.w3.org/2000/svg">
<path d="M22.904 13.1538H22.4424V8.53844C22.4424 4.44228 19.0963 1.09613 15.0001 1.09613C10.904 1.09613 7.5578 4.44228 7.5578 8.53844V13.1538H7.09627C5.82704 13.1538 4.78857 14.1923 4.78857 15.4615V26.5961C4.78857 27.8654 5.82704 28.9038 7.09627 28.9038H22.8463C24.1155 28.9038 25.154 27.8654 25.154 26.5961V15.4615C25.2116 14.1923 24.1732 13.1538 22.904 13.1538ZM8.53857 8.53844C8.53857 4.96152 11.4232 2.0769 15.0001 2.0769C18.577 2.0769 21.4616 4.96152 21.4616 8.53844V13.1538H8.53857V8.53844ZM24.2886 26.5961C24.2886 27.3461 23.654 27.9807 22.904 27.9807H7.09627C6.34627 27.9807 5.71165 27.3461 5.71165 26.5961V15.4615C5.71165 14.7115 6.34627 14.0769 7.09627 14.0769H8.07703H21.9232H22.8463C23.5963 14.0769 24.2309 14.7115 24.2309 15.4615V26.5961H24.2886Z" fill="#6E3BA1"/>
<path d="M15.0002 16.8461C13.4425 16.8461 12.231 18.1154 12.231 19.6154C12.231 21 13.2117 22.1538 14.5386 22.3269V25.6154C14.5386 25.8461 14.7694 26.0769 15.0002 26.0769C15.231 26.0769 15.4617 25.8461 15.4617 25.6154V22.3269C16.7886 22.0961 17.7694 20.9423 17.7694 19.6154C17.7694 18.1154 16.5579 16.8461 15.0002 16.8461ZM15.0002 21.4615C13.9617 21.4615 13.154 20.6538 13.154 19.6154C13.154 18.5769 13.9617 17.7692 15.0002 17.7692C16.0386 17.7692 16.8463 18.5769 16.8463 19.6154C16.8463 20.6538 16.0386 21.4615 15.0002 21.4615Z" fill="#6E3BA1"/>
</svg>
