<svg width="30" height="30" viewBox="0 0 30 30" fill="none" xmlns="http://www.w3.org/2000/svg">
<path d="M12.3999 10.1C11.5999 10.1 10.8999 10.8 10.8999 11.6C10.8999 12.4 11.5999 13.1 12.3999 13.1C13.1999 13.1 13.8999 12.4 13.8999 11.6C13.8999 10.8 13.1999 10.1 12.3999 10.1ZM12.3999 12.2C12.0999 12.2 11.7999 11.9 11.7999 11.6C11.7999 11.3 12.0999 11 12.3999 11C12.6999 11 12.9999 11.3 12.9999 11.6C12.9999 11.9 12.6999 12.2 12.3999 12.2Z" fill="#6E3BA1"/>
<path d="M17.6997 10.1C16.8997 10.1 16.1997 10.8 16.1997 11.6C16.1997 12.4 16.8997 13.1 17.6997 13.1C18.4997 13.1 19.1997 12.4 19.1997 11.6C19.1997 10.8 18.4997 10.1 17.6997 10.1ZM17.6997 12.2C17.3997 12.2 17.0997 11.9 17.0997 11.6C17.0997 11.3 17.3997 11 17.6997 11C17.9997 11 18.2997 11.3 18.2997 11.6C18.2997 11.9 17.9997 12.2 17.6997 12.2Z" fill="#6E3BA1"/>
<path d="M18.9998 8.49999C17.6998 8.09999 16.3998 7.89999 14.9998 7.89999C13.6998 7.89999 12.3998 8.09999 10.9998 8.49999C9.9998 8.79999 9.2998 9.79999 9.2998 10.9V12.3C9.2998 13.4 9.9998 14.3 10.9998 14.7C12.2998 15.2 13.5998 15.4 14.8998 15.4C16.2998 15.4 17.6998 15.2 19.0998 14.7C20.0998 14.4 20.7998 13.4 20.7998 12.3V11C20.7998 9.79999 20.0998 8.79999 18.9998 8.49999ZM19.7998 12.2C19.7998 12.9 19.3998 13.5 18.6998 13.7C17.3998 14.1 16.0998 14.4 14.7998 14.4C13.5998 14.4 12.3998 14.2 11.1998 13.8C10.5998 13.6 10.0998 13 10.0998 12.3V10.9C10.0998 10.2 10.5998 9.59999 11.1998 9.39999C12.5998 8.99999 13.7998 8.79999 14.9998 8.79999C16.1998 8.79999 17.4998 8.99999 18.6998 9.39999C19.3998 9.59999 19.7998 10.2 19.7998 10.9V12.2Z" fill="#6E3BA1"/>
<path d="M23.8998 10.2C23.8998 9.39999 23.5998 8.59999 23.0998 7.89999C22.4998 7.09999 21.7998 6.59999 20.8998 6.29999H20.7998L22.1998 3.79999C22.2998 3.79999 22.2998 3.79999 22.3998 3.79999C23.1998 3.79999 23.8998 3.09999 23.8998 2.29999C23.8998 1.49999 23.1998 0.799988 22.3998 0.799988C21.5998 0.799988 20.8998 1.49999 20.8998 2.29999C20.8998 2.69999 21.0998 3.09999 21.2998 3.39999L19.7998 5.99999C19.3998 5.89999 19.1998 5.89999 19.0998 5.79999C16.4998 5.19999 13.4998 5.29999 10.0998 5.99999L8.5998 3.39999C8.7998 3.09999 8.9998 2.69999 8.9998 2.29999C8.9998 1.49999 8.2998 0.799988 7.4998 0.799988C6.6998 0.799988 5.9998 1.49999 5.9998 2.29999C5.9998 3.09999 6.6998 3.79999 7.4998 3.79999C7.5998 3.79999 7.6998 3.79999 7.6998 3.79999L9.1998 6.39999C8.2998 6.59999 7.5998 7.19999 7.0998 7.89999C6.5998 8.59999 6.2998 9.39999 6.2998 10.2C5.8998 10.3 5.3998 10.5 4.9998 10.7C4.1998 11.1 3.7998 11.6 3.7998 12.2V13.7C3.7998 14.2 4.1998 14.8 4.9998 15.2C5.3998 15.4 5.8998 15.6 6.2998 15.7C6.2998 15.7 6.1998 16.9 7.0998 18.1C7.1998 18.3 7.5998 18.8 8.4998 19.3C8.5998 19.3 8.5998 19.4 8.6998 19.4C8.6998 19.4 8.7998 19.4 8.8998 19.5C9.0998 19.6 9.3998 19.7 9.5998 19.8C9.6998 19.8 9.6998 19.8 9.7998 19.9C9.8998 19.9 9.9998 20 10.0998 20C10.1998 20 10.2998 20.1 10.3998 20.1C10.7998 20.2 11.0998 20.3 11.1998 20.3C11.6998 20.4 12.1998 20.5 12.7998 20.6V21.4H7.6998C7.1998 21.4 6.6998 21.6 6.3998 22C6.0998 22.4 5.9998 22.9 6.1998 23.4L7.5998 28.2C7.7998 28.9 8.3998 29.3 9.0998 29.3H20.9998C21.6998 29.3 22.2998 28.8 22.4998 28.2L23.8998 23.4C23.9998 22.9 23.9998 22.4 23.6998 22C23.3998 21.6 22.8998 21.4 22.3998 21.4H17.2998V20.5C17.2998 20.5 19.1998 20.4 20.8998 19.6H20.9998C21.0998 19.6 21.1998 19.5 21.3998 19.4C21.6998 19.3 21.9998 19.1 22.1998 18.9C22.9998 18.5 23.3998 17.7 23.6998 17C23.7998 16.7 23.8998 16.4 23.8998 16.1C23.8998 15.9 23.9998 15.7 23.9998 15.7C24.8998 15.5 26.2998 14.8 26.2998 13.8V12.3C26.1998 11.1 24.6998 10.5 23.8998 10.2ZM22.3998 1.69999C22.6998 1.69999 22.9998 1.99999 22.9998 2.29999C22.9998 2.59999 22.6998 2.89999 22.3998 2.89999C22.0998 2.89999 21.7998 2.59999 21.7998 2.29999C21.7998 1.99999 22.0998 1.69999 22.3998 1.69999ZM7.4998 2.89999C7.1998 2.89999 6.8998 2.59999 6.8998 2.29999C6.8998 1.99999 7.1998 1.69999 7.4998 1.69999C7.7998 1.69999 8.0998 1.99999 8.0998 2.29999C8.0998 2.59999 7.7998 2.89999 7.4998 2.89999ZM6.1998 14.7C5.4998 14.5 4.6998 14 4.6998 13.7V12.2C4.6998 11.9 5.4998 11.4 6.1998 11.2V14.7ZM18.0998 19.3C18.0998 19.3 17.9998 19.3 18.0998 19.3C17.6998 19.4 17.4998 19.4 17.1998 19.5C17.0998 19.5 16.8998 19.5 16.7998 19.6C16.5998 19.6 16.3998 19.8 16.3998 20.1V21.4H13.6998V20C13.6998 19.8 13.4998 19.6 13.2998 19.5C13.0998 19.5 12.8998 19.4 12.6998 19.4C12.0998 19.3 9.9998 18.9 9.0998 18.4C8.9998 18.4 8.9998 18.3 8.8998 18.3C8.9998 18.2 9.1998 18.1 9.3998 18C10.9998 17.3 13.1998 16.9 15.5998 16.9C17.8998 16.9 19.9998 17.3 21.5998 18C21.5998 17.9 20.4998 18.8 18.0998 19.3ZM22.3998 22.2C22.5998 22.2 22.7998 22.3 22.8998 22.5C22.9998 22.7 23.0998 22.9 22.9998 23.1L21.5998 27.9C21.4998 28.2 21.2998 28.4 20.9998 28.4H9.1998C8.8998 28.4 8.6998 28.2 8.5998 27.9L7.0998 23C6.9998 22.8 7.0998 22.6 7.1998 22.4C7.2998 22.2 7.4998 22.1 7.6998 22.1H13.0998H16.6998H22.3998V22.2ZM22.8998 10.6V15.2V15.3C22.8998 16 22.6998 16.6 22.2998 17.2C22.1998 17.2 22.1998 17.1 22.0998 17.1C20.2998 16.3 17.9998 15.9 15.4998 15.9C12.9998 15.9 10.6998 16.3 8.9998 17.1C8.5998 17.3 8.2998 17.4 7.9998 17.6C7.4998 17 7.0998 16.2 7.0998 15.4V15.2V10.6V10.5C7.0998 8.99999 8.0998 7.69999 9.4998 7.29999C9.5998 7.29999 9.6998 7.19999 9.7998 7.19999H9.8998C13.2998 6.39999 16.1998 6.29999 18.7998 6.89999C18.8998 6.89999 19.4998 7.09999 19.7998 7.09999C19.9998 7.19999 20.1998 7.19999 20.4998 7.29999C21.8998 7.69999 22.8998 8.99999 22.8998 10.5V10.6V10.6ZM25.2998 13.7C25.2998 13.8 25.1998 14 24.6998 14.3C24.4998 14.4 24.1998 14.5 23.9998 14.6V11.2C24.1998 11.3 24.4998 11.4 24.6998 11.5C25.1998 11.8 25.2998 12 25.2998 12.1V13.7Z" fill="#6E3BA1"/>
</svg>
