<svg width="30" height="30" viewBox="0 0 30 30" fill="none" xmlns="http://www.w3.org/2000/svg">
<path d="M9.16699 9.75C8.20216 9.75 7.41699 10.534 7.41699 11.5C7.41699 12.4648 8.20216 13.25 9.16699 13.25C10.1318 13.25 10.917 12.4648 10.917 11.5C10.917 10.534 10.1318 9.75 9.16699 9.75ZM9.16699 12.0833C8.84499 12.0833 8.58366 11.822 8.58366 11.5C8.58366 11.178 8.84499 10.9167 9.16699 10.9167C9.48899 10.9167 9.75033 11.178 9.75033 11.5C9.75033 11.822 9.48899 12.0833 9.16699 12.0833ZM15.0003 9.75C14.0355 9.75 13.2503 10.5352 13.2503 11.5C13.2503 12.4648 14.0355 13.25 15.0003 13.25C15.9652 13.25 16.7503 12.4648 16.7503 11.5C16.7503 10.534 15.9652 9.75 15.0003 9.75ZM15.0003 12.0833C14.6783 12.0833 14.417 11.822 14.417 11.5C14.417 11.178 14.6783 10.9167 15.0003 10.9167C15.3223 10.9167 15.5837 11.178 15.5837 11.5C15.5837 11.822 15.3223 12.0833 15.0003 12.0833ZM20.8337 9.75C19.8688 9.75 19.0837 10.5352 19.0837 11.5C19.0837 12.4648 19.8688 13.25 20.8337 13.25C21.7985 13.25 22.5837 12.4648 22.5837 11.5C22.5837 10.534 21.7985 9.75 20.8337 9.75ZM20.8337 12.0833C20.5117 12.0833 20.2503 11.822 20.2503 11.5C20.2503 11.178 20.5117 10.9167 20.8337 10.9167C21.1557 10.9167 21.417 11.178 21.417 11.5C21.417 11.822 21.1557 12.0833 20.8337 12.0833Z" fill="#6E3BA1"/>
<path d="M24.333 1.58325H5.66634C3.41467 1.58325 1.58301 3.41492 1.58301 5.66659V17.3333C1.58301 19.5849 3.41467 21.4166 5.66634 21.4166H8.22251L5.14484 27.5719C5.02467 27.8134 5.08534 28.1074 5.29301 28.2801C5.40034 28.3711 5.53334 28.4166 5.66634 28.4166C5.78884 28.4166 5.91251 28.3781 6.01634 28.3011L15.1945 21.4178H24.333C26.5847 21.4178 28.4163 19.5861 28.4163 17.3344V5.66659C28.4163 3.41492 26.5847 1.58325 24.333 1.58325ZM27.2497 17.3309C27.2497 18.9386 25.9407 20.2476 24.333 20.2476H14.9997C14.8725 20.2476 14.75 20.2884 14.6497 20.3643L7.29267 25.8814L9.68784 21.0923C9.77884 20.9126 9.76834 20.6968 9.66218 20.5253C9.55601 20.3538 9.36818 20.2499 9.16634 20.2499H5.66634C4.05867 20.2499 2.74967 18.9409 2.74967 17.3333V5.66659C2.74967 4.05892 4.05867 2.74992 5.66634 2.74992V2.74759H24.333C25.9407 2.74759 27.2497 4.05659 27.2497 5.66425V17.3309Z" fill="#6E3BA1"/>
</svg>
