<?xml version="1.0" encoding="UTF-8" standalone="no" ?>
<!DOCTYPE svg PUBLIC "-//W3C//DTD SVG 1.1//EN" "http://www.w3.org/Graphics/SVG/1.1/DTD/svg11.dtd">
<svg xmlns="http://www.w3.org/2000/svg" xmlns:xlink="http://www.w3.org/1999/xlink" version="1.1" width="190" height="190" viewBox="0 0 190 190" xml:space="preserve">
<desc>Created with Fabric.js 4.6.0</desc>
<defs>
</defs>
<g transform="matrix(1 0 0 1 95 97.65)" id="aaynpovuZ4DRBftRMr2yc"  >
<path style="stroke: none; stroke-width: 1; stroke-dasharray: none; stroke-linecap: butt; stroke-dashoffset: 0; stroke-linejoin: miter; stroke-miterlimit: 4; fill: rgb(255,255,255); fill-rule: nonzero; opacity: 1;" vector-effect="non-scaling-stroke"  transform=" translate(0, 0)" d="M 68.95291 -63.75 C 68.15291 -64.35 67.05291 -64.35 66.15291 -63.85 L 43.25291000000001 -52.45 L 20.452910000000006 -52.45 C 19.652910000000006 -52.45 18.752910000000007 -52.050000000000004 18.152910000000006 -51.45 L -10.147089999999995 -17.450000000000003 L -52.64708999999999 -17.450000000000003 L -52.64708999999999 -67.15 C -52.54708999999999 -68.75 -53.74708999999999 -70.15 -55.347089999999994 -70.25 C -56.947089999999996 -70.35 -58.347089999999994 -69.15 -58.447089999999996 -67.55 C -58.447089999999996 -67.45 -58.447089999999996 -67.35 -58.447089999999996 -67.14999999999999 L -58.447089999999996 52.95 L -67.24709 52.95 C -68.84709 52.85 -70.24709 54.050000000000004 -70.34709 55.650000000000006 C -70.44708999999999 57.25000000000001 -69.24709 58.650000000000006 -67.64708999999999 58.75000000000001 C -67.54709 58.75000000000001 -67.44708999999999 58.75000000000001 -67.24708999999999 58.75000000000001 L -58.44708999999999 58.75000000000001 L -58.44708999999999 67.55000000000001 C -58.34708999999999 69.15 -56.94708999999999 70.35000000000001 -55.34708999999999 70.25000000000001 C -53.84708999999999 70.15000000000002 -52.647089999999984 68.95000000000002 -52.647089999999984 67.55000000000001 L -52.647089999999984 58.750000000000014 L 67.45291 58.750000000000014 C 69.05291 58.750000000000014 70.35291000000001 57.45000000000002 70.35291000000001 55.850000000000016 L 70.35291000000001 -61.34999999999999 C 70.35291000000001 -62.249999999999986 69.85291000000001 -63.249999999999986 68.95291 -63.749999999999986 z M 64.55291 52.95 L -52.647090000000006 52.95 L -52.647090000000006 51.25 L -31.247090000000007 29.85 L -9.347090000000009 35.25 C -8.547090000000008 35.45 -7.547090000000009 35.25 -6.847090000000009 34.65 L 21.05290999999999 12.349999999999998 L 42.852909999999994 23.25 C 43.65290999999999 23.65 44.65290999999999 23.65 45.452909999999996 23.25 L 64.65290999999999 13.65 L 64.65290999999999 52.949999999999996 z M 64.55291 7.25 L 44.05291 17.45 L 21.852909999999998 6.35 C 20.852909999999998 5.85 19.552909999999997 5.949999999999999 18.752909999999996 6.75 L -9.347090000000005 29.25 L -31.347090000000005 23.75 C -32.34709000000001 23.45 -33.44709 23.75 -34.147090000000006 24.55 L -52.647090000000006 43.05 L -52.647090000000006 22.65 L -31.447090000000006 12.049999999999999 L -8.647090000000006 12.049999999999999 C -7.847090000000006 12.049999999999999 -7.147090000000006 11.749999999999998 -6.547090000000006 11.249999999999998 L 21.352909999999994 -16.65 L 42.952909999999996 -5.849999999999998 C 43.952909999999996 -5.349999999999998 45.15291 -5.4499999999999975 46.05291 -6.149999999999998 L 64.85291 -20.249999999999996 z M 64.55291 -27.55 L 43.75291 -11.850000000000001 L 21.85291 -22.85 C 20.75291 -23.450000000000003 19.35291 -23.25 18.452910000000003 -22.25 L -9.947089999999996 6.149999999999999 L -32.24709 6.149999999999999 C -32.74709 6.149999999999999 -33.14709 6.249999999999998 -33.54709 6.449999999999998 L -52.74709 16.049999999999997 L -52.74709 -11.450000000000003 L -8.74709 -11.450000000000003 C -7.94709 -11.450000000000003 -7.04709 -11.850000000000003 -6.44709 -12.450000000000003 L 21.85291 -46.650000000000006 L 43.85291 -46.650000000000006 C 44.35291 -46.650000000000006 44.75291 -46.75000000000001 45.15291 -46.95 L 64.35291 -56.550000000000004 z" stroke-linecap="round" />
</g>
</svg>