<?xml version="1.0" encoding="utf-8"?>
<svg version="1.1" x="0px" y="0px" viewBox="0 0 190 190" style="enable-background:new 0 0 190 190;" xmlns="http://www.w3.org/2000/svg">
  <style type="text/css">
	.st0{fill:#4B286D;}
</style>
  <title>icon_customer_experience_grey</title>
  <g>
    <path class="st0" d="M23.1,170c-0.8,0-1.6-0.3-2.2-0.9c-0.6-0.6-0.9-1.4-0.9-2.2c0-19.5,6.7-30.7,20.4-34.1l23.9-6l2.2-8.7 c-6.1-6.4-10.1-14.5-11.5-23.3c-4-0.8-7-4-7.5-8l-1.6-12.5c-0.3-2.7,0.5-5.3,2.3-7.4c1.1-1.3,2.6-2.2,4.2-2.7 c-0.5-3.8-1.1-10.1-1.1-12.9c0-12.1,3.6-24.4,30.3-25c9.3-6.3,19.3-6.3,23.7-6.3c11,0,19,3.6,23.7,10.8c6.1,9.3,3.2,15.7-0.3,19.5 l-2.3,2.3l-0.6,11.8c1.4,0.6,2.7,1.5,3.8,2.6c1.8,2,2.6,4.7,2.2,7.3L130,86.8c-0.5,3.7-3.1,6.8-6.8,7.9c-1.4,9.1-5.6,17.5-12.1,24 l0.7,2.6c0.3,1.7-0.7,3.3-2.4,3.7c-1.6,0.3-3.2-0.6-3.6-2.2l-1.1-4.4c-0.3-1.1,0.1-2.3,0.9-3.1c6.7-6.1,10.9-14.6,11.7-23.7 c0.1-1.6,1.5-2.9,3.1-2.9c1.7,0.1,3.2-1.1,3.4-2.8l1.6-12.5c0.1-0.9-0.2-1.8-0.7-2.4c-0.6-0.7-1.4-1.1-2.3-1.1 c-1.7,0-3.1-1.4-3.1-3.1c0,0,0-0.1,0-0.1l0.8-15.6c0-0.8,0.4-1.5,0.9-2.1l3.1-3.1c1.9-2.1,3.8-5.4-0.4-11.7c-3.5-5.3-9.7-8-18.5-8 c-6.4,0-13.9,0.7-20.9,5.7c-0.5,0.4-1.1,0.6-1.8,0.6c-23.1,0.2-25,9-25,18.8c0,3.1,1,12,1.5,15.2c0.2,1.7-1,3.3-2.7,3.5 c-0.1,0-0.3,0-0.4,0h-0.6c-1.7,0-3.1,1.4-3.1,3.1c0,0.1,0,0.3,0,0.4L53.7,86c0.2,1.6,1.5,2.7,3.1,2.7h1c1.6,0,3,1.3,3.1,2.9 c0.8,8.8,4.8,17.1,11.2,23.2c0.8,0.8,1.2,1.9,0.9,3l-3.1,12.3c-0.3,1.1-1.2,2-2.3,2.3l-25.8,6.4c-10,2.5-15,10.4-15.6,24.9h97.9 c1.7,0.1,3,1.6,2.9,3.3c-0.1,1.6-1.4,2.9-2.9,2.9L23.1,170z" style="fill: rgb(255, 255, 255);"/>
    <path class="st0" d="M141.9,170c-0.8,0-1.6-0.3-2.2-0.9l-21.3-21.3c-2.9-2.9-4.6-6.9-4.6-11.1c0-8.4,5.6-15.3,13-16.5 c4.5-0.8,9.2,0.5,12.7,3.5c0.9,0.8,1.7,1.6,2.4,2.5c0.7-0.9,1.5-1.8,2.4-2.5c3.5-3,8.2-4.3,12.8-3.5c7.4,1.2,13,8.1,13,16.1 c0.1,4.3-1.6,8.4-4.6,11.4l-21.3,21.3C143.5,169.7,142.7,170,141.9,170z M129.4,126.2c-0.5,0-1.1,0-1.6,0.1c-4.4,0.7-7.8,5-7.8,9.9 c-0.1,2.6,0.9,5.1,2.7,7l19.1,19.1l19.1-19.1c1.8-1.8,2.7-4.2,2.7-6.6c0-5.3-3.3-9.6-7.8-10.3c-5.1-0.9-10,2.5-10.9,7.6 c-0.1,0.5-0.1,1.1-0.1,1.6c-0.1,1.7-1.6,3-3.3,2.9c-1.6-0.1-2.9-1.4-2.9-2.9C138.7,130.5,134.5,126.3,129.4,126.2L129.4,126.2 L129.4,126.2z" style="fill: rgb(255, 255, 255);"/>
  </g>
</svg>