<svg xmlns="http://www.w3.org/2000/svg" width="110" height="110" viewBox="0 0 110 110"><path fill="#FFF" d="M65.6,71.8 L65.6,79 L70.4,79 C74.48,79 77.6,82.12 77.6,86.2 L77.6,89.8 C77.6,90.52 77.12,91 76.4,91 L33.2,91 C32.48,91 32,90.52 32,89.8 L32,86.2 C32,82.12 35.12,79 39.2,79 L44,79 L44,71.8 L26.2,71.8 C22.12,71.8 19,68.68 19,64.6 L19,26.2 C19,22.12 22.12,19 26.2,19 L83.8,19 C87.88,19 91,22.12 91,26.2 L91,63.4 C91,67.24 87.88,71.8 83.8,71.8 L65.6,71.8 Z M63.2,71.8 L46.4,71.8 L46.4,79 L63.2,79 L63.2,71.8 Z M44.9856633,46.9220346 L65,36.1583378 L65,33.125 C65,32.45 65.45,32 66.125,32 L72.875,32 C73.55,32 74,32.45 74,33.125 L74,39.875 C74,40.55 73.55,41 72.875,41 L66.125,41 C65.45,41 65,40.55 65,39.875 L65,38.8886341 L45,49.6446207 L45,53.875 C45,54.55 44.55,55 43.875,55 L37.125,55 C36.45,55 36,54.55 36,53.875 L36,47.125 C36,46.45 36.45,46 37.125,46 L43.875,46 C44.479829,46 44.9040071,46.3613019 44.9856633,46.9220346 Z M88.6,28.6 L21.4,28.6 L21.4,59.8 L88.6,59.8 L88.6,28.6 Z M88.6,26.2 C88.6,23.56 86.44,21.4 83.8,21.4 L26.2,21.4 C23.56,21.4 21.4,23.56 21.4,26.2 L88.6,26.2 Z M88.6,62.2 L21.4,62.2 L21.4,64.6 C21.4,67.24 23.56,69.4 26.2,69.4 L83.8,69.4 C86.44,69.4 88.6,66.04 88.6,63.4 L88.6,62.2 Z M38.25,52.75 L42.75,52.75 L42.75,48.25 L38.25,48.25 L38.25,52.75 Z M67.25,38.75 L71.75,38.75 L71.75,34.25 L67.25,34.25 L67.25,38.75 Z M34.4,88.6 L75.2,88.6 L75.2,86.2 C75.2,83.56 73.04,81.4 70.4,81.4 L39.2,81.4 C36.56,81.4 34.4,83.56 34.4,86.2 L34.4,88.6 Z"/></svg>