<?xml version="1.0" encoding="utf-8"?>
<svg width="95" height="110" viewBox="0 0 95 110" fill="none" xmlns="http://www.w3.org/2000/svg">
  <g id="network">
    <path id="Combined Shape" fill-rule="evenodd" clip-rule="evenodd" d="M 86.383 73.027 C 86.146 72.819 85.889 72.635 85.616 72.479 C 85.365 72.334 85.102 72.215 84.828 72.123 L 84.828 70.264 L 81.676 70.264 L 81.676 72.141 C 81.479 72.208 81.286 72.286 81.099 72.378 L 72.316 67.288 C 76.391 59.216 76.391 49.68 72.316 41.609 L 79.898 37.216 C 80.398 37.718 81.008 38.103 81.676 38.337 L 81.676 41.796 L 84.828 41.796 L 84.828 38.316 C 85.101 38.23 85.364 38.122 85.616 37.988 C 87.88 36.679 88.656 33.775 87.35 31.504 C 86.045 29.233 83.151 28.453 80.888 29.763 C 80.676 29.894 80.474 30.039 80.285 30.201 L 78.699 29.233 L 77.06 31.936 L 78.646 32.903 C 78.545 33.37 78.515 33.851 78.557 34.327 L 70.732 38.862 C 65.829 31.264 57.588 26.49 48.58 26.03 L 48.58 16.199 C 49.084 16.016 49.555 15.748 49.971 15.407 L 52.825 17.147 L 54.465 14.446 C 54.465 14.446 51.627 12.719 51.627 12.706 C 51.698 12.39 51.731 12.068 51.73 11.744 C 51.73 9.124 49.614 7 47.003 7 C 44.392 7 42.276 9.124 42.276 11.744 C 42.276 12.072 42.309 12.397 42.376 12.717 L 40.8 13.683 L 42.434 16.386 L 44.032 15.407 C 44.447 15.749 44.918 16.017 45.423 16.199 L 45.423 26.03 C 44.106 26.097 42.795 26.255 41.5 26.504 C 34 27.965 27.418 32.432 23.27 38.871 L 15.446 34.337 C 15.489 33.861 15.46 33.379 15.356 32.913 C 15.356 32.903 18.192 31.186 18.192 31.186 L 16.553 28.485 C 16.553 28.485 13.728 30.225 13.717 30.209 C 13.53 30.048 13.33 29.905 13.115 29.781 C 10.854 28.471 7.96 29.251 6.654 31.521 C 5.349 33.792 6.124 36.696 8.389 38.007 C 8.642 38.133 8.906 38.237 9.177 38.316 L 9.177 41.796 L 12.33 41.796 L 12.33 38.337 C 13 38.103 13.607 37.72 14.111 37.218 L 21.69 41.609 C 17.615 49.68 17.615 59.216 21.69 67.288 L 12.907 72.376 C 12.72 72.286 12.526 72.208 12.33 72.141 L 12.33 70.264 L 9.177 70.264 L 9.177 72.126 C 6.711 72.986 5.406 75.69 6.264 78.165 C 7.12 80.641 9.814 81.95 12.28 81.09 C 12.862 80.887 13.399 80.573 13.86 80.164 L 16.048 81.405 L 17.6 78.651 L 15.392 77.397 C 15.55 76.509 15.446 75.594 15.096 74.762 L 23.276 70.017 C 28.176 77.621 36.416 82.401 45.427 82.867 L 45.427 92.698 C 44.872 92.898 44.358 93.2 43.915 93.588 L 42.292 92.669 L 40.741 95.421 L 42.358 96.338 C 41.882 98.916 43.58 101.391 46.147 101.867 C 48.715 102.344 51.181 100.641 51.655 98.064 C 51.761 97.493 51.761 96.909 51.655 96.338 L 53.861 95.091 L 52.311 92.338 L 50.104 93.588 C 49.661 93.199 49.148 92.897 48.591 92.698 L 48.591 82.867 C 49.91 82.8 51.221 82.641 52.517 82.392 C 60.016 80.93 66.599 76.465 70.745 70.026 L 78.926 74.771 C 78.578 75.602 78.475 76.516 78.631 77.405 L 77.003 78.328 L 78.554 81.083 L 80.16 80.171 C 82.127 81.896 85.113 81.694 86.832 79.721 C 88.551 77.747 88.349 74.75 86.383 73.027 Z M 82.455 32.524 L 82.464 32.518 L 82.464 32.515 C 83.218 32.078 84.182 32.337 84.618 33.094 C 85.052 33.85 84.794 34.817 84.041 35.254 C 83.287 35.69 82.323 35.431 81.888 34.675 C 81.452 33.924 81.706 32.96 82.455 32.524 Z M 9.966 35.257 C 10.719 35.694 11.684 35.434 12.118 34.678 C 12.554 33.922 12.295 32.954 11.541 32.518 C 11.302 32.378 11.031 32.304 10.753 32.305 C 10.191 32.305 9.67 32.608 9.389 33.097 C 8.954 33.853 9.212 34.821 9.966 35.257 Z M 11.541 77.96 C 10.789 78.397 9.823 78.138 9.389 77.381 C 8.954 76.626 9.212 75.658 9.966 75.221 C 10.719 74.785 11.684 75.043 12.118 75.8 C 12.554 76.557 12.295 77.524 11.541 77.96 Z M 55.118 30.478 C 55.011 30.44 54.906 30.403 54.8 30.366 C 54.726 30.345 54.665 30.328 54.592 30.307 C 57.387 34.146 59.266 38.579 60.085 43.262 C 62.785 42.584 65.369 41.503 67.75 40.057 C 67.746 40.051 67.742 40.045 67.738 40.04 L 67.725 40.02 L 67.719 40.011 C 67.711 39.997 67.703 39.985 67.693 39.972 C 67.634 39.885 67.571 39.802 67.51 39.718 C 67.458 39.65 67.406 39.582 67.357 39.51 C 67.154 39.232 66.952 38.953 66.742 38.685 C 66.661 38.586 66.578 38.487 66.496 38.388 L 66.496 38.387 C 66.446 38.328 66.397 38.27 66.347 38.209 L 66.25 38.094 C 66.074 37.882 65.899 37.673 65.718 37.471 C 65.631 37.376 65.542 37.282 65.452 37.187 C 65.394 37.124 65.334 37.06 65.276 36.996 C 65.064 36.77 64.851 36.546 64.632 36.33 C 64.554 36.254 64.475 36.18 64.396 36.108 C 64.312 36.03 64.227 35.952 64.146 35.871 C 63.926 35.666 63.708 35.463 63.483 35.268 C 63.313 35.12 63.137 34.976 62.963 34.832 C 62.735 34.645 62.507 34.459 62.276 34.282 C 62.092 34.144 61.908 34.01 61.722 33.874 L 61.595 33.784 C 61.401 33.646 61.209 33.509 61.011 33.377 C 60.819 33.249 60.627 33.124 60.431 33.002 C 60.188 32.849 59.943 32.7 59.697 32.553 C 59.495 32.438 59.295 32.323 59.09 32.211 C 58.84 32.074 58.588 31.944 58.332 31.815 L 58.227 31.764 C 58.051 31.677 57.878 31.59 57.701 31.508 C 57.437 31.388 57.175 31.273 56.913 31.162 L 56.862 31.141 C 56.663 31.057 56.465 30.972 56.266 30.894 C 55.999 30.788 55.73 30.691 55.459 30.596 C 55.344 30.56 55.232 30.518 55.118 30.478 Z M 58.035 54.449 C 58.037 56.905 57.875 59.36 57.549 61.795 C 50.583 60.435 43.424 60.435 36.457 61.795 C 35.808 56.918 35.808 51.978 36.457 47.101 C 39.931 47.786 43.463 48.128 47.003 48.122 C 50.544 48.128 54.076 47.786 57.549 47.101 C 57.875 49.537 58.037 51.99 58.035 54.449 Z M 48.58 11.744 C 48.58 10.872 47.873 10.163 47.003 10.163 C 46.132 10.163 45.427 10.872 45.427 11.744 C 45.427 12.618 46.132 13.326 47.003 13.326 C 47.873 13.326 48.58 12.618 48.58 11.744 Z M 47.003 29.143 C 50.98 29.143 55.164 34.813 57.032 43.981 C 53.729 44.637 50.37 44.964 47.003 44.959 C 43.636 44.964 40.278 44.637 36.974 43.981 C 38.842 34.813 43.027 29.143 47.003 29.143 Z M 26.587 39.608 L 26.586 39.608 C 26.497 39.729 26.407 39.849 26.322 39.974 C 26.309 39.99 26.3 40.006 26.29 40.023 L 26.283 40.034 C 26.278 40.041 26.273 40.049 26.269 40.056 C 28.646 41.502 31.225 42.582 33.922 43.262 C 34.74 38.581 36.619 34.151 39.411 30.314 C 39.383 30.322 39.354 30.33 39.325 30.338 C 39.287 30.349 39.248 30.36 39.209 30.373 C 38.986 30.446 38.766 30.524 38.544 30.604 L 38.543 30.604 C 38.276 30.699 38.009 30.794 37.745 30.898 C 37.575 30.966 37.407 31.037 37.238 31.107 L 37.237 31.107 L 37.237 31.108 L 37.089 31.17 C 36.829 31.281 36.573 31.393 36.317 31.512 C 36.104 31.617 35.89 31.722 35.679 31.827 C 35.428 31.955 35.18 32.082 34.934 32.217 C 34.725 32.331 34.519 32.449 34.315 32.568 C 34.072 32.71 33.832 32.856 33.596 33.005 C 33.394 33.131 33.195 33.26 32.999 33.392 C 32.859 33.486 32.72 33.585 32.582 33.683 L 32.582 33.684 C 32.489 33.748 32.398 33.813 32.306 33.876 C 32.114 34.014 31.923 34.153 31.734 34.297 C 31.511 34.469 31.29 34.648 31.069 34.829 L 31.013 34.875 L 30.945 34.931 L 30.944 34.931 C 30.804 35.047 30.663 35.162 30.527 35.284 C 30.311 35.472 30.1 35.667 29.889 35.865 C 29.717 36.023 29.545 36.18 29.38 36.338 C 29.17 36.544 28.967 36.758 28.764 36.971 C 28.712 37.028 28.66 37.082 28.606 37.139 C 28.503 37.249 28.397 37.361 28.292 37.474 C 28.134 37.648 27.982 37.831 27.831 38.014 L 27.831 38.015 C 27.785 38.067 27.743 38.12 27.699 38.172 C 27.655 38.225 27.61 38.278 27.566 38.332 L 27.565 38.332 C 27.465 38.449 27.367 38.567 27.272 38.689 C 27.085 38.926 26.906 39.171 26.728 39.416 L 26.695 39.464 C 26.659 39.512 26.623 39.561 26.587 39.608 Z M 21.786 54.449 C 21.784 50.375 22.764 46.363 24.642 42.752 C 27.354 44.41 30.3 45.644 33.381 46.411 C 32.63 51.743 32.63 57.154 33.381 62.487 C 30.3 63.256 27.354 64.492 24.642 66.152 C 22.763 62.54 21.783 58.524 21.786 54.449 Z M 38.889 78.419 C 38.995 78.457 39.1 78.495 39.206 78.529 C 39.28 78.551 39.342 78.567 39.414 78.59 C 36.619 74.75 34.74 70.319 33.922 65.635 C 31.222 66.312 28.637 67.392 26.256 68.839 C 26.267 68.854 26.278 68.87 26.288 68.886 C 26.295 68.899 26.303 68.912 26.312 68.925 C 26.372 69.012 26.435 69.095 26.496 69.179 L 26.497 69.179 L 26.497 69.18 L 26.498 69.18 L 26.498 69.181 C 26.548 69.248 26.601 69.315 26.65 69.386 C 26.852 69.666 27.053 69.943 27.265 70.212 C 27.345 70.311 27.428 70.411 27.51 70.508 C 27.56 70.568 27.609 70.627 27.659 70.687 L 27.756 70.803 L 27.756 70.804 C 27.933 71.015 28.107 71.224 28.289 71.425 C 28.433 71.583 28.583 71.741 28.731 71.9 L 28.782 71.955 C 28.979 72.162 29.173 72.369 29.377 72.567 C 29.453 72.643 29.531 72.715 29.61 72.788 C 29.694 72.865 29.777 72.943 29.858 73.025 C 30.077 73.229 30.299 73.432 30.524 73.629 C 30.67 73.755 30.817 73.877 30.965 74 L 31.044 74.064 C 31.271 74.252 31.499 74.436 31.73 74.614 C 31.914 74.753 32.099 74.887 32.284 75.022 L 32.411 75.113 L 32.412 75.113 C 32.606 75.251 32.798 75.389 32.996 75.518 C 33.188 75.649 33.379 75.773 33.576 75.895 C 33.818 76.047 34.063 76.196 34.31 76.343 C 34.51 76.46 34.711 76.574 34.916 76.686 C 35.165 76.821 35.418 76.953 35.674 77.082 L 35.779 77.133 C 35.955 77.219 36.128 77.306 36.305 77.388 C 36.569 77.509 36.831 77.624 37.093 77.734 L 37.145 77.756 C 37.343 77.841 37.54 77.924 37.741 78.003 C 38.007 78.11 38.276 78.206 38.548 78.3 C 38.662 78.337 38.774 78.378 38.889 78.419 Z M 47.003 98.734 C 46.132 98.734 45.427 98.025 45.427 97.151 C 45.427 96.278 46.132 95.57 47.003 95.57 C 47.873 95.57 48.58 96.278 48.58 97.151 C 48.58 98.025 47.873 98.734 47.003 98.734 Z M 36.974 64.916 C 38.842 74.084 43.027 79.754 47.003 79.754 C 50.98 79.754 55.164 74.084 57.032 64.916 C 50.41 63.612 43.597 63.612 36.974 64.916 Z M 67.685 68.923 C 67.599 69.047 67.51 69.168 67.42 69.288 C 67.383 69.337 67.348 69.383 67.312 69.432 L 67.278 69.48 C 67.1 69.725 66.921 69.971 66.735 70.207 C 66.64 70.329 66.541 70.447 66.441 70.565 L 66.382 70.634 C 66.357 70.664 66.332 70.694 66.307 70.724 C 66.263 70.776 66.22 70.828 66.176 70.881 C 66.025 71.065 65.872 71.249 65.714 71.423 C 65.609 71.536 65.505 71.647 65.399 71.758 C 65.346 71.813 65.294 71.87 65.241 71.924 C 65.04 72.139 64.836 72.354 64.626 72.557 C 64.511 72.674 64.382 72.79 64.254 72.907 C 64.208 72.949 64.163 72.99 64.117 73.033 C 63.907 73.229 63.695 73.424 63.479 73.612 C 63.343 73.734 63.202 73.85 63.062 73.965 L 63.062 73.966 L 63.061 73.966 C 63.02 74 62.978 74.033 62.937 74.068 C 62.717 74.249 62.496 74.427 62.272 74.6 C 62.083 74.743 61.892 74.883 61.7 75.02 C 61.608 75.084 61.517 75.149 61.424 75.214 C 61.286 75.312 61.148 75.411 61.008 75.504 C 60.811 75.637 60.613 75.765 60.411 75.892 C 60.175 76.041 59.934 76.187 59.691 76.329 C 59.488 76.449 59.282 76.565 59.073 76.679 C 58.827 76.814 58.578 76.941 58.327 77.068 C 58.116 77.174 57.903 77.281 57.688 77.385 C 57.434 77.503 57.177 77.616 56.918 77.726 L 56.769 77.789 C 56.6 77.86 56.432 77.932 56.261 77.998 C 55.998 78.103 55.731 78.198 55.464 78.292 L 55.463 78.292 L 55.462 78.292 C 55.241 78.372 55.02 78.451 54.797 78.524 C 54.758 78.536 54.72 78.547 54.681 78.559 C 54.653 78.566 54.623 78.574 54.595 78.583 C 57.388 74.746 59.266 70.316 60.085 65.635 C 62.781 66.314 65.36 67.395 67.738 68.841 C 67.729 68.853 67.722 68.866 67.714 68.879 L 67.709 68.886 L 67.7 68.9 C 67.695 68.908 67.689 68.916 67.685 68.923 Z M 60.625 62.494 C 63.706 63.261 66.653 64.495 69.364 66.152 C 73.171 58.823 73.171 50.09 69.364 42.761 C 66.653 44.418 63.706 45.652 60.625 46.418 C 61.375 51.75 61.375 57.162 60.625 62.494 Z M 84.618 77.381 C 84.182 78.138 83.218 78.397 82.464 77.96 C 81.71 77.524 81.453 76.557 81.888 75.8 C 82.169 75.311 82.69 75.009 83.253 75.009 C 83.529 75.008 83.801 75.082 84.041 75.221 C 84.794 75.658 85.052 76.626 84.618 77.381 Z M 38.526 15.347 L 40.171 18.051 L 37.469 19.695 L 35.824 16.992 L 38.526 15.347 Z M 33.119 18.639 L 34.764 21.342 L 32.062 22.987 L 30.416 20.283 L 33.119 18.639 Z M 22.309 25.215 L 23.954 27.918 L 21.252 29.563 L 19.607 26.859 L 22.309 25.215 Z M 29.359 24.631 L 27.714 21.927 L 25.012 23.572 L 26.657 26.276 L 29.359 24.631 Z M 12.906 51.021 L 9.453 51.021 L 9.453 54.473 L 12.906 54.473 L 12.906 51.021 Z M 9.453 44.979 L 12.906 44.979 L 12.906 48.432 L 9.453 48.432 L 9.453 44.979 Z M 12.906 63.968 L 9.453 63.968 L 9.453 67.421 L 12.906 67.421 L 12.906 63.968 Z M 9.453 57.063 L 12.906 57.063 L 12.906 60.516 L 9.453 60.516 L 9.453 57.063 Z M 24.654 86.097 L 27.407 87.654 L 28.964 84.901 L 26.211 83.344 L 24.654 86.097 Z M 32.907 90.768 L 30.154 89.211 L 31.71 86.457 L 34.465 88.013 L 32.907 90.768 Z M 35.654 92.327 L 38.408 93.885 L 39.966 91.131 L 37.211 89.574 L 35.654 92.327 Z M 21.891 84.538 L 19.139 82.981 L 20.695 80.228 L 23.447 81.785 L 21.891 84.538 Z M 55.522 90.811 L 57.079 93.564 L 59.832 92.008 L 58.275 89.255 L 55.522 90.811 Z M 68.093 87.325 L 66.536 84.572 L 69.289 83.016 L 70.846 85.769 L 68.093 87.325 Z M 72.042 81.46 L 73.599 84.214 L 76.352 82.657 L 74.796 79.903 L 72.042 81.46 Z M 62.585 90.444 L 61.028 87.69 L 63.782 86.133 L 65.339 88.887 L 62.585 90.444 Z M 81.957 51.021 L 85.41 51.021 L 85.41 54.473 L 81.957 54.473 L 81.957 51.021 Z M 85.41 44.979 L 81.957 44.979 L 81.957 48.432 L 85.41 48.432 L 85.41 44.979 Z M 81.957 63.968 L 85.41 63.968 L 85.41 67.421 L 81.957 67.421 L 81.957 63.968 Z M 85.41 57.063 L 81.957 57.063 L 81.957 60.516 L 85.41 60.516 L 85.41 57.063 Z M 68.457 22.686 L 71.158 24.33 L 69.513 27.034 L 66.811 25.389 L 68.457 22.686 Z M 76.563 27.622 L 73.861 25.978 L 72.215 28.682 L 74.918 30.326 L 76.563 27.622 Z M 63.051 19.393 L 65.754 21.037 L 64.109 23.74 L 61.406 22.096 L 63.051 19.393 Z M 60.348 17.757 L 57.646 16.113 L 56.001 18.817 L 58.703 20.461 L 60.348 17.757 Z" style="fill: rgb(255, 255, 255);"/>
  </g>
</svg>