<svg xmlns="http://www.w3.org/2000/svg" width="110" height="110" viewBox="0 0 110 110"><path fill="#FFF" d="M62.5,73 L86.5,73 C87.328,73 88,72.328 88,71.5 C88,70.672 87.328,70 86.5,70 L62.5,70 C61.672,70 61,70.672 61,71.5 C61,72.328 61.672,73 62.5,73 Z M62.5,61 L86.5,61 C87.328,61 88,60.328 88,59.5 C88,58.672 87.328,58 86.5,58 L62.5,58 C61.672,58 61,58.672 61,59.5 C61,60.328 61.672,61 62.5,61 Z M90.934,13 L19.066,13 C14.065,13 10,17.134 10,22.213 L10,87.787 C10,92.866 14.065,97 19.066,97 L90.934,97 C95.935,97 100,92.866 100,87.784 L100,22.213 C100,17.134 95.935,13 90.934,13 Z M97,87.784 C97,91.21 94.279,93.997 90.934,93.997 L19.066,93.997 C15.721,93.997 13,91.213 13,87.784 L13,28 L97,28 L97,87.784 Z M97,25 L13,25 L13,22.213 C13,18.787 15.721,16 19.066,16 L90.934,16 C94.279,16 97,18.787 97,22.213 L97,25 Z M29.5,19 C28.672,19 28,19.672 28,20.5 C28,21.328 28.672,22 29.5,22 C30.328,22 31,21.328 31,20.5 C31,19.672 30.328,19 29.5,19 Z M62.5,49 L86.5,49 C87.328,49 88,48.328 88,47.5 C88,46.672 87.328,46 86.5,46 L62.5,46 C61.672,46 61,46.672 61,47.5 C61,48.328 61.672,49 62.5,49 Z M20.5,19 C19.672,19 19,19.672 19,20.5 C19,21.328 19.672,22 20.5,22 C21.328,22 22,21.328 22,20.5 C22,19.672 21.328,19 20.5,19 Z M38.5,19 C37.672,19 37,19.672 37,20.5 C37,21.328 37.672,22 38.5,22 C39.328,22 40,21.328 40,20.5 C40,19.672 39.328,19 38.5,19 Z M37,76 C45.271,76 52,69.271 52,61 L53.5,61 C54.328,61 55,60.328 55,59.5 C55,50.404 47.599,43 38.5,43 C37.672,43 37,43.672 37,44.5 L37,46 C28.729,46 22,52.729 22,61 C22,69.271 28.729,76 37,76 Z M40,46.084 C46.246,46.777 51.223,51.751 51.916,58 L40,58 L40,46.084 Z M37,49 L37,59.5 C37,60.328 37.672,61 38.5,61 L49,61 C49,67.618 43.618,73 37,73 C30.382,73 25,67.618 25,61 C25,54.382 30.382,49 37,49 Z"/></svg>