<svg xmlns="http://www.w3.org/2000/svg" width="110" height="110" viewBox="0 0 110 110"><path fill="#FFF" d="M71.5,82 L59.5,82 C58.672,82 58,82.672 58,83.5 C58,84.328 58.672,85 59.5,85 L71.5,85 C72.328,85 73,84.328 73,83.5 C73,82.672 72.328,82 71.5,82 Z M26.5,70 C25.672,70 25,70.672 25,71.5 C25,72.328 25.672,73 26.5,73 C27.328,73 28,72.328 28,71.5 C28,70.672 27.328,70 26.5,70 Z M26.5,82 C25.672,82 25,82.672 25,83.5 C25,84.328 25.672,85 26.5,85 C27.328,85 28,84.328 28,83.5 C28,82.672 27.328,82 26.5,82 Z M71.5,70 L59.5,70 C58.672,70 58,70.672 58,71.5 C58,72.328 58.672,73 59.5,73 L71.5,73 C72.328,73 73,72.328 73,71.5 C73,70.672 72.328,70 71.5,70 Z M74.5,64 L23.5,64 C21.019,64 19,66.019 19,68.5 L19,74.5 C19,75.655 19.45,76.702 20.17,77.5 C19.45,78.298 19,79.345 19,80.5 L19,86.5 C19,88.981 21.019,91 23.5,91 L74.5,91 C76.981,91 79,88.981 79,86.5 L79,80.5 C79,79.345 78.55,78.298 77.83,77.5 C78.55,76.702 79,75.655 79,74.5 L79,68.5 C79,66.019 76.981,64 74.5,64 Z M76,86.5 C76,87.328 75.325,88 74.5,88 L23.5,88 C22.675,88 22,87.328 22,86.5 L22,80.5 C22,79.672 22.675,79 23.5,79 L74.5,79 C75.325,79 76,79.672 76,80.5 L76,86.5 Z M76,74.5 C76,75.328 75.325,76 74.5,76 L23.5,76 C22.675,76 22,75.328 22,74.5 L22,68.5 C22,67.672 22.675,67 23.5,67 L74.5,67 C75.325,67 76,67.672 76,68.5 L76,74.5 Z M79.33,28.567 L68.614,41.965 L66.751,39.172 C66.463,38.74 65.965,38.473 65.449,38.506 C64.93,38.521 64.456,38.809 64.198,39.259 L59.401,47.65 L54.748,40.669 C54.463,40.243 53.995,40 53.464,40 C52.948,40.015 52.477,40.288 52.213,40.729 L43.213,55.729 C42.787,56.44 43.018,57.361 43.729,57.787 C43.969,57.931 44.236,58 44.5,58 C45.007,58 45.505,57.742 45.781,57.274 L53.563,44.305 L58.249,51.334 C58.537,51.763 59.002,52.039 59.551,52 C60.07,51.985 60.544,51.697 60.802,51.247 L65.599,42.856 L67.252,45.337 C67.519,45.736 67.96,45.982 68.437,46.003 C68.884,46.024 69.373,45.814 69.673,45.442 L81.673,30.442 C82.189,29.794 82.087,28.852 81.439,28.333 C80.791,27.82 79.852,27.919 79.33,28.567 Z M89.5,19 L35.5,19 C34.672,19 34,19.672 34,20.5 L34,59.5 C34,60.328 34.672,61 35.5,61 C36.328,61 37,60.328 37,59.5 L37,22 L88,22 L88,67 L83.5,67 C82.672,67 82,67.672 82,68.5 C82,69.328 82.672,70 83.5,70 L89.5,70 C90.328,70 91,69.328 91,68.5 L91,20.5 C91,19.672 90.328,19 89.5,19 Z"/></svg>