<?xml version="1.0" encoding="utf-8"?>
<svg width="110px" height="110px" viewBox="0 0 110 110" version="1.1" xmlns="http://www.w3.org/2000/svg">
  <title>icons_solutions/backoffice/white</title>
  <desc>Created with Sketch.</desc>
  <g stroke="none" stroke-width="1" fill="none" fill-rule="evenodd" style="">
    <g fill-rule="nonzero">
      <rect x="0" y="0" width="110" height="110"/>
    </g>
    <g transform="matrix(1.222162, 0, 0, 1.222162, 12, 13)" fill="#FFFFFF" style="">
      <g transform="translate(33.870968, 20.400000)" fill-rule="nonzero">
        <path d="M23.7096774,27.2 L1.12903226,27.2 C0.451612903,27.2 0,26.7466667 0,26.0666667 C0,19.2666667 5.64516129,13.6 12.4193548,13.6 C19.1935484,13.6 24.8387097,19.2666667 24.8387097,26.0666667 C24.8387097,26.7466667 24.3870968,27.2 23.7096774,27.2 Z M2.25806452,24.9333333 L22.5806452,24.9333333 C21.9032258,19.9466667 17.6129032,15.8666667 12.4193548,15.8666667 C7.22580645,15.8666667 2.93548387,19.9466667 2.25806452,24.9333333 Z" style=""/>
        <path d="M12.4193548,15.8666667 C8.12903226,15.8666667 4.51612903,12.24 4.51612903,7.93333333 C4.51612903,3.62666667 8.12903226,0 12.4193548,0 C16.7096774,0 20.3225806,3.62666667 20.3225806,7.93333333 C20.3225806,12.24 16.7096774,15.8666667 12.4193548,15.8666667 Z M12.4193548,2.26666667 C9.25806452,2.26666667 6.77419355,4.76 6.77419355,7.93333333 C6.77419355,11.1066667 9.25806452,13.6 12.4193548,13.6 C15.5806452,13.6 18.0645161,11.1066667 18.0645161,7.93333333 C18.0645161,4.76 15.5806452,2.26666667 12.4193548,2.26666667 Z" style=""/>
      </g>
      <path d="M63.6774194,54.4 L29.3548387,54.4 C28.6774194,54.4 28.2258065,53.9466667 28.2258065,53.2666667 C28.2258065,52.5866667 28.6774194,52.1333333 29.3548387,52.1333333 L63.9032258,52.1333333 C64.8064516,52.1333333 65.7096774,51.4533333 65.7096774,50.32 L65.7096774,19.9466667 C65.483871,18.8133333 64.8064516,18.1333333 63.6774194,18.1333333 L37.2580645,18.1333333 C36.5806452,18.1333333 36.1290323,17.68 36.1290323,17 C36.1290323,16.32 36.5806452,15.8666667 37.2580645,15.8666667 L63.9032258,15.8666667 C66.1612903,15.8666667 67.9677419,17.68 67.9677419,19.9466667 L67.9677419,50.5466667 C67.7419355,52.5866667 65.9354839,54.4 63.6774194,54.4 Z" style=""/>
      <g>
        <path d="M25.2903226,68 C23.2580645,68 21.2258065,67.5466667 19.4193548,66.8666667 L4.29032258,60.0666667 C1.80645161,59.16 0,56.6666667 0,53.9466667 L0,13.8266667 C0,10.88 2.03225806,8.16 4.74193548,7.25333333 L23.0322581,1.58666667 C23.0322581,1.58666667 23.0322581,1.58666667 23.0322581,1.58666667 C26.6451613,0.453333333 30.483871,-2.22044605e-16 34.3225806,-2.22044605e-16 C36.5806452,-2.22044605e-16 38.3870968,1.81333333 38.3870968,4.08 L38.3870968,19.2666667 C38.3870968,21.08 37.2580645,22.44 35.6774194,23.12 L30.483871,24.7066667 C29.8064516,24.9333333 29.3548387,25.6133333 29.3548387,26.2933333 L29.3548387,64.3733333 C29.3548387,66.1866667 27.5483871,68 25.2903226,68 Z M23.7096774,3.85333333 L5.41935484,9.52 C3.61290323,9.97333333 2.25806452,11.7866667 2.25806452,13.8266667 L2.25806452,53.9466667 C2.25806452,55.76 3.38709677,57.5733333 5.19354839,58.2533333 L20.3225806,65.0533333 C21.9032258,65.7333333 23.483871,65.96 25.2903226,65.96 C26.1935484,65.96 27.0967742,65.28 27.0967742,64.1466667 L27.0967742,26.0666667 C27.0967742,24.2533333 28.2258065,22.8933333 29.8064516,22.2133333 L35,20.6266667 C35.6774194,20.6266667 36.1290323,19.9466667 36.1290323,19.04 L36.1290323,4.08 C36.1290323,2.94666667 35.4516129,2.26666667 34.3225806,2.26666667 C30.7096774,2.26666667 27.0967742,2.72 23.7096774,3.85333333 Z" fill-rule="nonzero" style=""/>
        <path d="M46.2903226,18.1333333 C45.6129032,18.1333333 45.1612903,17.68 45.1612903,17 L45.1612903,12.4666667 C45.1612903,9.97333333 43.1290323,7.93333333 40.6451613,7.93333333 L37.7096774,7.93333333 C37.0322581,7.93333333 36.5806452,7.48 36.5806452,6.8 C36.5806452,6.12 37.0322581,5.66666667 37.7096774,5.66666667 L40.6451613,5.66666667 C44.483871,5.66666667 47.4193548,8.61333333 47.4193548,12.4666667 L47.4193548,17 C47.4193548,17.68 46.9677419,18.1333333 46.2903226,18.1333333 Z" style=""/>
        <path d="M40.6451613,61.2 L29.3548387,61.2 C28.6774194,61.2 28.2258065,60.7466667 28.2258065,60.0666667 C28.2258065,59.3866667 28.6774194,58.9333333 29.3548387,58.9333333 L40.6451613,58.9333333 C43.1290323,58.9333333 45.1612903,56.8933333 45.1612903,54.4 L45.1612903,53.2666667 C45.1612903,52.5866667 45.6129032,52.1333333 46.2903226,52.1333333 C46.9677419,52.1333333 47.4193548,52.5866667 47.4193548,53.2666667 L47.4193548,54.4 C47.4193548,58.2533333 44.483871,61.2 40.6451613,61.2 Z" style=""/>
      </g>
    </g>
  </g>
  <rect x="-4.031" y="0.172" width="113.35" height="107.862" style="visibility: hidden;"/>
</svg>