<?xml version="1.0" encoding="utf-8"?>
<!-- Generator: Adobe Illustrator 28.1.0, SVG Export Plug-In . SVG Version: 6.00 Build 0)  -->
<svg version="1.1"
	 id="Layer_1" xmlns:cc="http://creativecommons.org/ns#" xmlns:rdf="http://www.w3.org/1999/02/22-rdf-syntax-ns#" xmlns:dc="http://purl.org/dc/elements/1.1/"
	 xmlns="http://www.w3.org/2000/svg" xmlns:xlink="http://www.w3.org/1999/xlink" x="0px" y="0px" viewBox="0 0 196.6 160"
	 style="enable-background:new 0 0 196.6 160;" xml:space="preserve">
<style type="text/css">
	.st0{fill:#FFFFFF;}
</style>
<path class="st0" d="M103.9,67.5H92.4v8.4h11.5V67.5z M109.5,105.1l-5.6-5.6V83.7H92.4v8.4h4.1v13H66.7v-13h5.6V67.5h-5.6v-13h49.9
	l8.3,8.4v10.5l-7.4,5.5l7.4,5.6V94h4.7v11.2L109.5,105.1 M125,13v26.5l-11.2,11.2H83.5L72.3,39.5V13h-5.6V0h30.6v13h-4.8v24.7h17.1
	V13h-4.2V0h24.3v13L125,13 M176.4,13h-17.1v8.7h17.1L176.4,13L176.4,13z M188.5,30.6h-29.1v7h5.4v13h-31.1v-13h5.6V13h-5.6V0h54
	l9,8.7v13.9L188.5,30.6 M185.2,105.1h-38.3l-13.2-13V67.4l13.2-13h30.2l3.7,4.8l3.7-4.7h12.1v21.3h-15.8v-8.4h-26.5v24.8h26.5v-8.5
	h15.8V94L185.2,105.1 M124.2,159.8H66.7v-13h5.6v-24.6h-5.6v-13H98v13h-5.6v24.7H114v-16.4h15.8v23.3L124.2,159.8 M191,159.8h-57.4
	v-13h5.5v-24.6h-5.5v-13h31.1v13h-5.6v24.7h21.7v-16.4h15.8v23.3L191,159.8 M53.1,50.7H18l-4.2-4.5l-3.7,4.5H0V35.2h14.1v4.3h26.5
	v-7.3H9.1L0,23.8V11.3L10.5,0H42l4.2,4.5L49.9,0H60v15.5H45.8v-4.3H22v7.3h30.8L63,28.2V40L53.1,50.7 M57.3,105.1H0v-13h5.6V67.6H0
	v-13h57.3l5.6,6.2v17.4l-15.8,0.1V67.6H25.7V75H35v9.4h-9.3v7.7h21.5V81.6h15.8V99L57.3,105.1 M57.3,159.8H0v-13h5.6v-24.6H0v-13
	h57.3l5.6,6.2v17.4H47.1v-10.5H25.7v7.6H35v9.3h-9.3v7.9h21.5v-10.5h15.8v17.4l-5.6,6.2"/>
</svg>
