<svg width="30" height="30" viewBox="0 0 30 30" fill="none" xmlns="http://www.w3.org/2000/svg">
<path d="M18.2997 18.2L15.7997 17.6L15.5997 16.8C16.2997 16 16.8997 15 16.9997 13.9C17.4997 13.7 17.7997 13.3 17.8997 12.8L18.0997 11.3C18.0997 10.9 17.9997 10.5 17.7997 10.2C17.6997 10.1 17.4997 10 17.3997 9.90002L17.4997 8.70002L17.6997 8.50002C18.0997 8.10002 18.5997 7.20002 17.7997 5.80002C17.1997 4.90002 16.0997 4.40002 14.6997 4.40002C14.1997 4.40002 12.8997 4.40002 11.6997 5.20002C8.29974 5.20002 7.79974 6.90002 7.79974 8.40002C7.79974 8.70002 7.89974 9.40002 7.89974 9.90002C7.69974 10 7.59974 10.1 7.49974 10.2C7.19974 10.5 7.09974 10.9 7.19974 11.3L7.39974 12.8C7.49974 13.3 7.79974 13.8 8.29974 13.9C8.49974 14.9 8.99974 15.9 9.69974 16.7L9.49974 17.5L6.99974 18.2C6.69974 18.3 6.49974 18.6 6.59974 18.9C6.69974 19.2 6.99974 19.4 7.29974 19.3L10.0997 18.6C10.2997 18.5 10.4997 18.4 10.4997 18.2L10.8997 16.7C10.9997 16.5 10.8997 16.3 10.6997 16.1C9.99974 15.4 9.49974 14.4 9.39974 13.4C9.39974 13.1 9.09974 12.9 8.79974 12.9H8.69974C8.59974 12.9 8.49974 12.8 8.49974 12.7L8.29974 11.2C8.29974 11.1 8.29974 11.1 8.29974 11.1C8.29974 11.1 8.39974 11 8.49974 11C8.69974 11 8.79974 10.9 8.89974 10.8C8.99974 10.7 9.09974 10.5 8.99974 10.3C9.09974 9.90002 8.99974 8.80002 8.99974 8.40002C8.99974 7.50002 8.99974 6.30002 11.8997 6.30002C11.9997 6.30002 12.0997 6.30002 12.1997 6.20002C12.9997 5.60002 13.8997 5.50002 14.6997 5.50002C15.6997 5.50002 16.3997 5.80002 16.7997 6.40002C17.2997 7.10002 16.9997 7.40002 16.8997 7.60002L16.4997 8.00002C16.3997 8.10002 16.2997 8.20002 16.2997 8.40002L16.1997 10.3C16.1997 10.5 16.1997 10.6 16.3997 10.7C16.4997 10.8 16.6997 10.9 16.7997 10.9C16.8997 10.9 16.8997 10.9 16.8997 11C16.8997 11 16.9997 11.1 16.8997 11.1L16.6997 12.6C16.6997 12.7 16.5997 12.8 16.4997 12.8C16.1997 12.8 15.8997 13 15.8997 13.3C15.7997 14.3 15.2997 15.4 14.4997 16.1C14.2997 16.2 14.2997 16.5 14.2997 16.7L14.6997 18.1C14.7997 18.3 14.8997 18.5 15.0997 18.5L17.8997 19.2H17.9997C18.2997 19.2 18.4997 19 18.5997 18.8C18.7997 18.6 18.5997 18.3 18.2997 18.2Z" fill="#6E3BA1"/>
<path d="M28.9998 28.2L21.3998 20.6C23.2998 18.5 24.4998 15.7 24.4998 12.7C24.4998 6.20001 19.1998 0.900013 12.6998 0.900013C6.0998 0.800013 0.799805 6.10001 0.799805 12.6C0.799805 19.1 6.0998 24.4 12.5998 24.4C15.5998 24.4 18.3998 23.2 20.4998 21.3L28.0998 28.9C28.1998 29 28.3998 29.1 28.4998 29.1C28.5998 29.1 28.7998 29 28.8998 28.9C29.1998 28.8 29.1998 28.4 28.9998 28.2ZM12.5998 23.3C6.7998 23.3 1.9998 18.5 1.9998 12.6C1.9998 6.80001 6.7998 2.00001 12.5998 2.00001C18.3998 2.00001 23.1998 6.80001 23.1998 12.6C23.2998 18.5 18.4998 23.3 12.5998 23.3Z" fill="#6E3BA1"/>
</svg>
