<svg width="50" height="54" viewBox="0 0 50 54" fill="none" xmlns="http://www.w3.org/2000/svg">
<path d="M4.83862 18.1289H8.06443V19.7418H4.83862V18.1289Z" fill="#4B286D"/>
<path d="M47.5806 14.9032C48.9144 14.9032 50 13.8176 50 12.4839V4.41935C50 3.08564 48.9144 2 47.5806 2H36.2903C34.9566 2 33.871 3.08564 33.871 4.41935V12.4839C33.871 13.8176 34.9566 14.9032 36.2903 14.9032H38.7097V16.5161H37.0968V18.129H41.129V26.1935H37.8008C37.1574 25.5655 36.3651 25.0847 35.4784 24.8201C35.4823 24.7385 35.4839 24.6598 35.4839 24.5806C35.4839 21.0233 32.5896 18.129 29.0323 18.129C26.8251 18.129 24.7736 19.2773 23.5986 21.1138C22.7708 20.7421 21.8758 20.5484 20.9677 20.5484C18.2913 20.5484 15.8813 22.2353 14.9387 24.7098C14.3259 24.8413 13.755 25.0768 13.2364 25.3871H7.25806V22.9677H10.4839C11.8176 22.9677 12.9032 21.8821 12.9032 20.5484V4.41935C12.9032 3.08564 11.8176 2 10.4839 2H2.41935C1.08564 2 0 3.08564 0 4.41935V20.5484C0 21.8821 1.08564 22.9677 2.41935 22.9677H5.64516V27H11.5211C11.1781 27.4895 10.9119 28.0297 10.7371 28.6129H7.25806V37.4839H4.03226C2.69854 37.4839 1.6129 38.5695 1.6129 39.9032V47.1613H0V49.5806C0 50.9144 1.08564 52 2.41935 52H15.3226C16.6563 52 17.7419 50.9144 17.7419 49.5806V47.1613H16.129V39.9032C16.129 38.5695 15.0434 37.4839 13.7097 37.4839H8.87097V30.2258H10.4839C10.4839 33.3378 13.017 35.871 16.129 35.871H33.871C36.7089 35.871 39.0582 33.7631 39.4515 31.0323H42.7419V37.4839H37.0968V52H50V37.4839H44.3548V29.4194H39.4484C39.3645 28.8515 39.1905 28.3113 38.9467 27.8065H42.7419V18.129H46.7742V16.5161H45.1613V14.9032H47.5806ZM11.2903 14.9032H1.6129V6.83871H11.2903V14.9032ZM2.41935 3.6129H10.4839C10.9288 3.6129 11.2903 3.97439 11.2903 4.41935V5.22581H1.6129V4.41935C1.6129 3.97439 1.97439 3.6129 2.41935 3.6129ZM1.6129 20.5484V16.5161H11.2903V20.5484C11.2903 20.9934 10.9288 21.3548 10.4839 21.3548H2.41935C1.97439 21.3548 1.6129 20.9934 1.6129 20.5484ZM16.129 49.5806C16.129 50.0256 15.7675 50.3871 15.3226 50.3871H2.41935C1.97439 50.3871 1.6129 50.0256 1.6129 49.5806V48.7742H16.129V49.5806ZM14.5161 39.9032V47.1613H3.22581V39.9032C3.22581 39.4583 3.58729 39.0968 4.03226 39.0968H13.7097C14.1546 39.0968 14.5161 39.4583 14.5161 39.9032ZM38.7097 50.3871V45.5484H48.3871V50.3871H38.7097ZM48.3871 43.9355H38.7097V39.0968H48.3871V43.9355ZM33.871 34.2581H16.129C13.9058 34.2581 12.0968 32.4491 12.0968 30.2258C12.0968 28.1872 13.6227 26.4676 15.6451 26.2258L16.1743 26.162L16.3236 25.6501C16.9201 23.5958 18.8307 22.1613 20.9677 22.1613C21.8581 22.1613 22.7322 22.4113 23.4985 22.8831L24.2684 23.358L24.6523 22.5377C25.4461 20.8386 27.1654 19.7419 29.0323 19.7419C31.7009 19.7419 33.871 21.912 33.871 24.5806C33.871 24.8031 33.8509 25.0402 33.8072 25.3265L33.6855 26.1242L34.4829 26.2451C36.4329 26.5428 37.9032 28.2542 37.9032 30.2258C37.9032 32.4491 36.0942 34.2581 33.871 34.2581ZM36.2903 3.6129H47.5806C48.0256 3.6129 48.3871 3.97439 48.3871 4.41935V10.0645H35.4839V4.41935C35.4839 3.97439 35.8454 3.6129 36.2903 3.6129ZM35.4839 12.4839V11.6774H48.3871V12.4839C48.3871 12.9288 48.0256 13.2903 47.5806 13.2903H36.2903C35.8454 13.2903 35.4839 12.9288 35.4839 12.4839ZM43.5484 16.5161H40.3226V14.9032H43.5484V16.5161Z" fill="#4B286D"/>
<path d="M40.3225 40.7095H41.9354V42.3224H40.3225V40.7095Z" fill="#4B286D"/>
<path d="M45.1614 47.1611H46.7743V48.774H45.1614V47.1611Z" fill="#4B286D"/>
<path d="M43.5483 40.7095H46.7741V42.3224H43.5483V40.7095Z" fill="#4B286D"/>
<path d="M40.3225 47.1611H43.5483V48.774H40.3225V47.1611Z" fill="#4B286D"/>
</svg>
