<svg width="30" height="30" viewBox="0 0 30 30" fill="none" xmlns="http://www.w3.org/2000/svg">
<path d="M24.3966 12.7475H24.3322V11.1708C24.3322 6.10591 20.2263 2 15.1614 2C10.0964 2 5.9906 6.10591 5.9906 11.1708V12.7475H5.60449C4.18863 12.7475 3.09459 14.0024 3.09459 15.4505V19.4728C3.05893 20.8763 4.16781 22.0429 5.57129 22.0786C5.58237 22.0789 5.5934 22.0791 5.60449 22.0792H7.98566C8.32293 22.0634 8.58352 21.777 8.56763 21.4398C8.56708 21.4276 8.56616 21.4155 8.56486 21.4034V13.5198C8.56486 13.1336 8.33962 12.7475 7.98566 12.7475H7.27773V11.1707C7.27773 6.81673 10.8074 3.28707 15.1614 3.28707C19.5154 3.28707 23.0451 6.81673 23.0451 11.1707V12.7475H22.3371C21.9832 12.7475 21.7579 13.1336 21.7579 13.5198V21.4034C21.722 21.7391 21.9651 22.0404 22.3008 22.0764C22.3129 22.0776 22.325 22.0786 22.3371 22.0791H23.0772L23.0128 22.1756C22.0473 23.4589 20.5321 24.2105 18.9262 24.2029C18.5747 22.479 16.8921 21.3665 15.1682 21.7181C13.694 22.0187 12.6312 23.3098 12.6193 24.8143C12.6369 26.5788 14.0725 28 15.8371 27.9999C16.7107 27.9857 17.5433 27.6273 18.1539 27.0024C18.5659 26.5805 18.8359 26.0405 18.9262 25.4578C20.9373 25.4654 22.8339 24.5231 24.0425 22.9157L24.6539 22.0147C26.0376 21.9182 26.9064 21.0494 26.9064 19.7944V15.7721C26.9065 14.3886 25.8768 12.7475 24.3966 12.7475ZM7.27773 20.7921H5.60449C4.91159 20.7752 4.36355 20.1999 4.38042 19.507C4.38073 19.4956 4.38116 19.4842 4.38172 19.4727V15.4504C4.38172 14.7104 4.89656 14.0346 5.60449 14.0346H7.27773V20.7921V20.7921ZM17.2208 26.1015C16.8642 26.4881 16.3632 26.7095 15.8372 26.7129C14.7902 26.6962 13.9407 25.8608 13.9065 24.8143C13.906 23.7658 14.7557 22.9155 15.8042 22.915C16.8527 22.9146 17.7031 23.7643 17.7035 24.8128C17.7035 24.8133 17.7035 24.8138 17.7035 24.8143C17.7303 25.2921 17.5551 25.7591 17.2208 26.1015ZM25.6193 19.7945C25.6193 20.6633 24.7827 20.7921 24.3966 20.7921H23.0451V14.0347H24.3966C25.1045 14.0347 25.6193 15.0322 25.6193 15.7723V19.7945Z" fill="#6E3BA1"/>
</svg>
