<svg width="30" height="30" viewBox="0 0 30 30" fill="none" xmlns="http://www.w3.org/2000/svg">
<g clip-path="url(#clip0_1219_9209)">
<path d="M23.5 29.2308H5.5C5.224 29.2308 5 29.0126 5 28.7436V6.33337C5 6.06445 5.224 5.84619 5.5 5.84619H23.5C23.776 5.84619 24 6.06445 24 6.33337V28.7436C24 29.0126 23.776 29.2308 23.5 29.2308ZM6 28.2565H23V6.82055H6V28.2565Z" fill="#6E3BA1"/>
<path d="M11 23.3847C10.771 23.3847 10.571 23.2327 10.515 23.0154L9.015 17.1693C8.948 16.9082 9.111 16.6441 9.379 16.5788C9.645 16.5155 9.919 16.6724 9.985 16.9335L11 20.8884L12.015 16.9325C12.081 16.6704 12.353 16.5126 12.621 16.5778C12.889 16.6431 13.052 16.9082 12.985 17.1683L11.485 23.0145C11.429 23.2327 11.229 23.3847 11 23.3847ZM14.5 23.3847C14.224 23.3847 14 23.1665 14 22.8975V17.0514C14 16.7825 14.224 16.5642 14.5 16.5642C14.776 16.5642 15 16.7825 15 17.0514V22.8975C15 23.1665 14.776 23.3847 14.5 23.3847ZM16.5 23.3847C16.224 23.3847 16 23.1665 16 22.8975V17.0514C16 16.7825 16.224 16.5642 16.5 16.5642H18.5C19.485 16.5642 20 17.5444 20 18.5129C20 19.4814 19.485 20.4616 18.5 20.4616H17V22.8975C17 23.1665 16.776 23.3847 16.5 23.3847ZM17 19.4873H18.5C18.841 19.4873 19 18.9056 19 18.5129C19 18.1203 18.841 17.5386 18.5 17.5386H17V19.4873ZM20.5 15.5898H8.5C8.224 15.5898 8 15.3716 8 15.1027C8 14.8337 8.224 14.6155 8.5 14.6155H20.5C20.776 14.6155 21 14.8337 21 15.1027C21 15.3716 20.776 15.5898 20.5 15.5898ZM20.5 25.3334H8.5C8.224 25.3334 8 25.1152 8 24.8463C8 24.5773 8.224 24.3591 8.5 24.3591H20.5C20.776 24.3591 21 24.5773 21 24.8463C21 25.1152 20.776 25.3334 20.5 25.3334ZM14.5 10.7181C14.425 10.7181 14.349 10.7015 14.277 10.6664C14.03 10.5456 13.93 10.2533 14.053 10.0126L19.053 0.269029C19.177 0.0293365 19.477 -0.0700481 19.724 0.0507724C19.971 0.171593 20.071 0.463901 19.948 0.704567L14.948 10.4482C14.859 10.6187 14.683 10.7181 14.5 10.7181ZM12.5 6.82062C12.316 6.82062 12.14 6.72123 12.052 6.5517L9.052 0.705542C8.929 0.464875 9.029 0.172567 9.276 0.0517468C9.524 -0.0690737 9.823 0.0293365 9.947 0.269029L12.947 6.11518C13.071 6.35585 12.97 6.64816 12.723 6.76898C12.652 6.80405 12.576 6.82062 12.5 6.82062Z" fill="#6E3BA1"/>
<path d="M14.5 11.6924C13.673 11.6924 13 11.0366 13 10.2308C13 9.42503 13.673 8.76929 14.5 8.76929C15.327 8.76929 16 9.42503 16 10.2308C16 11.0366 15.327 11.6924 14.5 11.6924ZM14.5 9.74365C14.224 9.74365 14 9.96288 14 10.2308C14 10.4988 14.224 10.718 14.5 10.718C14.776 10.718 15 10.4988 15 10.2308C15 9.96288 14.776 9.74365 14.5 9.74365Z" fill="#6E3BA1"/>
</g>
<defs>
<clipPath id="clip0_1219_9209">
<rect width="30" height="29.2308" fill="white"/>
</clipPath>
</defs>
</svg>
