<svg width="30" height="30" viewBox="0 0 30 30" fill="none" xmlns="http://www.w3.org/2000/svg">
<path d="M18.4 1.79999C19.2 1.39999 20.1 1.29999 20.7 1.29999C21.9 1.29999 22.8 1.69999 23.3 2.39999C23.9 3.29999 23.6 3.69999 23.4 3.99999L23 4.49999C22.9 4.59999 22.9 4.69999 22.9 4.79999L22.8 6.99999C22.8 7.09999 22.8 7.29999 22.9 7.39999C23 7.49999 23.1 7.59999 23.2 7.59999C23.3 7.59999 23.4 7.69999 23.5 7.69999C23.6 7.79999 23.6 7.89999 23.6 7.99999L23.4 9.79999C23.4 9.99999 23.2 10.2 23 10.2C22.7 10.2 22.5 10.4 22.5 10.6C22.4 11.9 21.8 13.1 20.8 13.9C20.6 14.1 20.6 14.4 20.8 14.6C20.9 14.7 21 14.8 21.2 14.8C21.3 14.8 21.4 14.8 21.5 14.7C22.5 13.8 23.2 12.5 23.4 11.1C23.9 10.9 24.3 10.5 24.4 9.99999L24.6 8.19999C24.6 7.79999 24.5 7.39999 24.3 7.09999C24.2 6.89999 24 6.79999 23.8 6.69999L23.9 5.09999L24.2 4.79999C24.7 4.29999 25.1 3.29999 24.3 1.99999C23.6 0.999994 22.5 0.399994 20.9 0.399994C20 0.399994 19 0.399994 18 0.899994C17.8 0.999994 17.7 1.29999 17.8 1.59999C17.9 1.79999 18.2 1.89999 18.4 1.79999Z" fill="#6E3BA1"/>
<path d="M29.3 21.2C29.3 21.1 29.2 21 29 20.9C28.9 20.8 28.7 20.8 28.6 20.9C28.3 21 27.9 20.9 27.8 20.6C27.6 20.3 27.7 19.9 28 19.7C28.1 19.6 28.2 19.5 28.2 19.4C28.2 19.3 28.2 19.1 28.1 19C27.2 17.9 25.9 17.2 24.6 16.9C24.5 16.9 24.3 16.9 24.2 17C24 17.1 24 17.3 24 17.4C24 17.8 23.6 17.9 23.3 17.9C23 17.9 22.7 17.8 22.6 17.4C22.6 17.3 22.5 17.1 22.4 17.1C22.3 17 22.2 17 22 17C20.6 17.3 19.4 18 18.5 19.1C18.4 19.2 18.4 19.3 18.4 19.5C18.4 19.6 18.5 19.8 18.6 19.8C18.9 20 19 20.4 18.8 20.7C18.6 21 18.3 21.1 18 21C17.9 20.9 17.7 20.9 17.6 21C17.5 21.1 17.4 21.2 17.3 21.3C17.1 22 17 22.6 17 23.3C17 24 17.1 24.6 17.4 25.4C17.4 25.5 17.5 25.6 17.7 25.7C17.8 25.8 18 25.8 18.1 25.7C18.4 25.6 18.8 25.7 18.9 26C19.1 26.3 19 26.7 18.7 26.9C18.6 27 18.5 27.1 18.5 27.2C18.5 27.3 18.5 27.5 18.6 27.6C19.5 28.7 20.8 29.4 22.1 29.7C22.2 29.7 22.4 29.7 22.5 29.6C22.6 29.5 22.7 29.4 22.7 29.3C22.7 28.9 23.1 28.8 23.4 28.8C23.7 28.8 24 28.9 24.1 29.3C24.1 29.4 24.2 29.6 24.3 29.6C24.4 29.7 24.5 29.7 24.6 29.7H24.7C26.1 29.4 27.3 28.7 28.2 27.6C28.3 27.5 28.3 27.4 28.3 27.2C28.3 27.1 28.2 26.9 28.1 26.9C27.8 26.7 27.7 26.3 27.9 26C28.1 25.7 28.4 25.6 28.7 25.7C28.8 25.8 29 25.8 29.1 25.7C29.2 25.6 29.3 25.5 29.4 25.4C29.6 24.7 29.8 24 29.8 23.3C29.6 22.6 29.5 22 29.3 21.2ZM28.5 24.6C27.9 24.5 27.3 24.9 26.9 25.4C26.6 26 26.6 26.7 27 27.2C26.4 27.8 25.6 28.3 24.8 28.5C24.5 28 24 27.6 23.3 27.6C22.6 27.6 22.1 27.9 21.8 28.5C21 28.3 20.2 27.8 19.6 27.2C20 26.7 20 26 19.7 25.4C19.4 24.8 18.8 24.5 18.1 24.6C18 24.1 17.9 23.7 17.9 23.3C17.9 22.9 18 22.4 18.1 22C18.7 22 19.3 21.7 19.7 21.2C20 20.6 20 19.9 19.6 19.4C20.2 18.8 21 18.3 21.8 18.1C22.1 18.6 22.6 19 23.3 19C24 19 24.5 18.7 24.8 18.1C25.6 18.3 26.4 18.8 27 19.4C26.6 19.9 26.6 20.6 26.9 21.2C27.2 21.8 27.8 22.1 28.5 22C28.6 22.5 28.7 22.9 28.7 23.3C28.7 23.7 28.6 24.2 28.5 24.6Z" fill="#6E3BA1"/>
<path d="M18.2999 17.6C18.4999 17.7 18.7999 17.6 18.8999 17.3C18.9999 17 18.8999 16.8 18.5999 16.7C18.3999 16.6 18.1999 16.5 17.9999 16.5L14.5999 15.7L14.2999 14.6C15.1999 13.7 15.7999 12.5 15.9999 11.2C16.4999 11 16.8999 10.6 16.9999 10.1L17.1999 8.3C17.1999 7.9 17.0999 7.5 16.8999 7.2C16.7999 7 16.5999 6.9 16.3999 6.8L16.4999 5.2L16.7999 4.9C17.2999 4.4 17.6999 3.4 16.8999 2.1C16.1999 1.1 15.0999 0.5 13.4999 0.5C12.8999 0.5 11.3999 0.5 10.0999 1.4C6.1999 1.3 5.6999 3.1 5.6999 4.9C5.6999 5.3 5.7999 6.2 5.8999 6.7C5.5999 6.7 5.3999 6.9 5.2999 7.1C4.9999 7.4 4.8999 7.8 4.8999 8.1L5.0999 9.9C5.1999 10.5 5.5999 11 6.1999 11.1C6.3999 12.3 6.9999 13.5 7.7999 14.4L7.4999 15.6L4.0999 16.4C1.8999 17 0.399902 19 0.399902 21.3C0.399902 21.6 0.599902 21.8 0.899902 21.8C1.1999 21.8 1.3999 21.6 1.3999 21.3C1.3999 19.4 2.6999 17.8 4.4999 17.3L8.1999 16.4C8.3999 16.4 8.4999 16.2 8.5999 16L8.9999 14.3C8.9999 14.1 8.9999 13.9 8.8999 13.8C7.9999 13 7.3999 11.7 7.2999 10.5C7.2999 10.2 7.0999 10.1 6.7999 10.1H6.4999C6.2999 10.1 6.0999 9.9 6.0999 9.7L5.8999 8C5.8999 7.9 5.8999 7.8 5.9999 7.7C6.0999 7.6 6.1999 7.6 6.3999 7.6C6.4999 7.6 6.6999 7.5 6.7999 7.4C6.8999 7.3 6.8999 7.2 6.8999 7C6.7999 6.6 6.6999 5.3 6.6999 4.9C6.6999 3.5 6.9999 2.3 10.1999 2.3C10.2999 2.3 10.3999 2.3 10.4999 2.2C11.4999 1.5 12.4999 1.4 13.4999 1.4C14.6999 1.4 15.5999 1.8 16.0999 2.5C16.6999 3.4 16.3999 3.8 16.1999 4.1L15.7999 4.5C15.6999 4.6 15.6999 4.7 15.6999 4.8L15.5999 7C15.5999 7.1 15.5999 7.3 15.6999 7.4C15.7999 7.5 15.8999 7.6 15.9999 7.6C16.0999 7.6 16.1999 7.7 16.2999 7.7C16.3999 7.8 16.3999 7.9 16.3999 8L16.1999 9.8C16.1999 10 15.9999 10.2 15.7999 10.2C15.4999 10.2 15.2999 10.4 15.2999 10.6C15.1999 11.9 14.5999 13.1 13.5999 13.9C13.4999 14 13.3999 14.2 13.4999 14.4L13.8999 16.1C13.8999 16.3 14.0999 16.4 14.2999 16.5L17.9999 17.4C17.8999 17.4 18.0999 17.5 18.2999 17.6Z" fill="#6E3BA1"/>
<path d="M23.2999 19.9C21.3999 19.9 19.8999 21.4 19.8999 23.3C19.8999 25.2 21.3999 26.7 23.2999 26.7C25.1999 26.7 26.6999 25.2 26.6999 23.3C26.6999 21.4 25.1999 19.9 23.2999 19.9ZM23.2999 25.7C21.9999 25.7 20.8999 24.6 20.8999 23.3C20.8999 22 21.9999 20.9 23.2999 20.9C24.5999 20.9 25.6999 22 25.6999 23.3C25.6999 24.6 24.5999 25.7 23.2999 25.7Z" fill="#6E3BA1"/>
</svg>
