<svg width="30" height="30" viewBox="0 0 30 30" fill="none" xmlns="http://www.w3.org/2000/svg">
<path d="M14 2.514C14 2.792 14.224 3.017 14.5 3.017C14.776 3.017 15 2.792 15 2.514C15 2.237 14.776 2.011 14.5 2.011C14.224 2.011 14 2.236 14 2.514ZM9.082 23.633C9.082 23.355 8.858 23.13 8.582 23.13H3.046C1.918 23.13 1.001 22.208 1.001 21.073V19.616C1.004 19.892 1.226 20.115 1.5 20.115H13.03C13.306 20.115 13.53 19.89 13.53 19.612C13.53 19.334 13.306 19.109 13.03 19.109L2.042 19.106C2.237 17.91 3.119 16.924 4.32 16.622L7.188 15.901C7.367 15.856 7.508 15.715 7.552 15.535L7.893 14.163C7.937 13.986 7.882 13.799 7.75 13.674C7.074 13.038 6.626 12.102 6.553 11.176C6.532 10.914 6.315 10.713 6.054 10.713H5.941C5.843 10.713 5.759 10.64 5.747 10.541L5.573 9.141C5.563 9.065 5.598 9.012 5.62 8.986C5.642 8.962 5.69 8.921 5.839 8.921C5.983 8.921 6.119 8.86 6.214 8.751C6.309 8.643 6.353 8.499 6.335 8.355C6.29 7.999 6.174 7.004 6.174 6.668C6.174 5.812 6.174 4.748 8.809 4.722C8.911 4.721 9.012 4.689 9.095 4.628C9.837 4.095 10.641 4.023 11.33 4.023C12.252 4.023 12.9 4.3 13.256 4.845C13.656 5.46 13.519 5.751 13.321 5.963L12.973 6.313C12.778 6.509 12.778 6.828 12.973 7.024C13.168 7.22 13.485 7.22 13.68 7.024L14.038 6.664C14.467 6.204 14.825 5.421 14.092 4.294C13.54 3.447 12.611 3.017 11.33 3.017C10.837 3.017 9.71 3.017 8.646 3.719C5.573 3.798 5.174 5.332 5.174 6.669C5.174 6.965 5.237 7.581 5.287 8.015C5.129 8.085 4.986 8.188 4.87 8.321C4.643 8.579 4.537 8.924 4.58 9.265L4.754 10.665C4.815 11.151 5.16 11.54 5.608 11.671C5.769 12.6 6.214 13.505 6.853 14.194L6.653 14.999L4.077 15.646C2.269 16.101 1.007 17.726 1.001 19.599V3.061C1.001 1.927 1.918 1.005 3.046 1.005H25.955C27.083 1.005 28 1.928 28 3.064V21.075C28 21.508 27.861 21.927 27.597 22.286C27.433 22.51 27.481 22.824 27.704 22.989C27.926 23.154 28.24 23.105 28.403 22.882C28.793 22.349 29 21.723 29 21.074V3.061C29 1.373 27.634 0 25.955 0H3.045C1.366 0 0 1.375 0 3.064V21.075C0 22.763 1.366 24.138 3.045 24.138H8.581C8.857 24.138 9.082 23.911 9.082 23.633V23.633ZM26.085 23.397L22.612 22.481L22.318 21.242C23.252 20.266 23.891 18.93 24.083 17.559C24.605 17.394 25.005 16.923 25.075 16.336L25.304 14.412C25.354 13.991 25.225 13.569 24.95 13.254C24.805 13.087 24.627 12.96 24.43 12.878L24.513 11.078L24.85 10.721C25.367 10.142 25.795 9.151 24.902 7.713C24.21 6.6 23.032 6.034 21.402 6.034C20.763 6.034 19.293 6.034 17.92 7C14.01 7.092 13.477 9.002 13.477 10.867C13.477 11.297 13.576 12.261 13.641 12.848C13.419 12.928 13.217 13.063 13.056 13.245C12.777 13.561 12.646 13.987 12.696 14.413L12.925 16.337C13 16.964 13.451 17.459 14.025 17.59C14.217 18.906 14.823 20.198 15.702 21.157L15.388 22.481L11.915 23.397C9.61 24.002 8 26.167 8 28.664C8 28.941 8.224 29.167 8.5 29.167H29.5C29.776 29.167 30 28.939 30 28.662C30 26.168 28.39 24.002 26.085 23.397V23.397ZM9.026 28.16C9.22 26.34 10.458 24.819 12.17 24.37L15.934 23.378C16.112 23.33 16.25 23.188 16.293 23.008L16.741 21.122C16.781 20.95 16.73 20.77 16.605 20.646C15.686 19.738 15.078 18.404 14.977 17.081C14.957 16.818 14.739 16.616 14.478 16.616H14.33C14.124 16.616 13.948 16.444 13.921 16.216L13.692 14.293C13.675 14.152 13.717 14.013 13.807 13.911C13.853 13.861 13.951 13.774 14.196 13.774C14.339 13.774 14.475 13.712 14.57 13.604C14.665 13.497 14.71 13.354 14.693 13.211C14.634 12.719 14.481 11.337 14.481 10.866C14.481 9.376 14.757 8.036 18.095 8.002C18.201 8.001 18.304 7.966 18.389 7.902C19.396 7.142 20.478 7.039 21.404 7.039C22.666 7.039 23.558 7.446 24.056 8.246C24.66 9.219 24.401 9.721 24.118 10.037L23.662 10.518C23.579 10.607 23.53 10.721 23.524 10.842L23.413 13.25C23.407 13.386 23.456 13.518 23.549 13.618C23.641 13.716 23.771 13.774 23.906 13.776C24.056 13.778 24.154 13.864 24.199 13.916C24.287 14.017 24.328 14.154 24.311 14.293L24.082 16.217C24.055 16.444 23.879 16.616 23.628 16.616C23.366 16.616 23.149 16.818 23.129 17.081C23.026 18.446 22.389 19.805 21.424 20.716C21.293 20.839 21.238 21.024 21.28 21.199L21.709 23.005C21.752 23.186 21.89 23.328 22.068 23.375L25.832 24.367C27.542 24.817 28.779 26.339 28.973 28.159H9.026V28.16Z" fill="#6E3BA1"/>
</svg>
